{
	"asset":{
		"copyright":"Equipo Camino de Cempas\u00fachil - FI UNAM",
		"generator":"Khronos glTF Blender I/O v5.2.40",
		"version":"2.0"
	},
	"scene":0,
	"scenes":[
		{
			"name":"Scene",
			"nodes":[
				4
			]
		}
	],
	"nodes":[
		{
			"mesh":0,
			"name":"nivel_3",
			"translation":[
				0,
				0.44999998807907104,
				0
			]
		},
		{
			"children":[
				0
			],
			"mesh":1,
			"name":"nivel_2",
			"translation":[
				0,
				0.44999998807907104,
				0
			]
		},
		{
			"children":[
				1
			],
			"mesh":2,
			"name":"nivel_1"
		},
		{
			"mesh":3,
			"name":"petate"
		},
		{
			"children":[
				2,
				3
			],
			"name":"altar_muertos"
		}
	],
	"materials":[
		{
			"name":"madera_oscura",
			"pbrMetallicRoughness":{
				"baseColorTexture":{
					"index":0
				},
				"metallicFactor":0,
				"roughnessFactor":0.800000011920929
			}
		},
		{
			"name":"mantel",
			"pbrMetallicRoughness":{
				"baseColorTexture":{
					"index":1
				},
				"metallicFactor":0,
				"roughnessFactor":0.8999999761581421
			}
		},
		{
			"name":"petate",
			"pbrMetallicRoughness":{
				"baseColorTexture":{
					"index":2
				},
				"metallicFactor":0,
				"roughnessFactor":0.949999988079071
			}
		}
	],
	"meshes":[
		{
			"name":"nivel_3",
			"primitives":[
				{
					"attributes":{
						"POSITION":0,
						"NORMAL":1,
						"TEXCOORD_0":2
					},
					"indices":3,
					"material":0
				},
				{
					"attributes":{
						"POSITION":4,
						"NORMAL":5,
						"TEXCOORD_0":6
					},
					"indices":7,
					"material":1
				}
			]
		},
		{
			"name":"nivel_2",
			"primitives":[
				{
					"attributes":{
						"POSITION":8,
						"NORMAL":9,
						"TEXCOORD_0":10
					},
					"indices":3,
					"material":0
				},
				{
					"attributes":{
						"POSITION":11,
						"NORMAL":12,
						"TEXCOORD_0":13
					},
					"indices":7,
					"material":1
				}
			]
		},
		{
			"name":"nivel_1",
			"primitives":[
				{
					"attributes":{
						"POSITION":14,
						"NORMAL":15,
						"TEXCOORD_0":16
					},
					"indices":3,
					"material":0
				},
				{
					"attributes":{
						"POSITION":17,
						"NORMAL":18,
						"TEXCOORD_0":19
					},
					"indices":7,
					"material":1
				}
			]
		},
		{
			"name":"petate",
			"primitives":[
				{
					"attributes":{
						"POSITION":20,
						"NORMAL":21,
						"TEXCOORD_0":22
					},
					"indices":23,
					"material":2
				}
			]
		}
	],
	"textures":[
		{
			"sampler":0,
			"source":0
		},
		{
			"sampler":0,
			"source":1
		},
		{
			"sampler":0,
			"source":2
		}
	],
	"images":[
		{
			"mimeType":"image/jpeg",
			"name":"madera_oscura.jpg",
			"uri":"../../textures/madera_oscura.jpg"
		},
		{
			"mimeType":"image/png",
			"name":"mantel.png",
			"uri":"../../textures/mantel.png"
		},
		{
			"mimeType":"image/png",
			"name":"petate.png",
			"uri":"../../textures/petate.png"
		}
	],
	"accessors":[
		{
			"bufferView":0,
			"componentType":5126,
			"count":32,
			"max":[
				0.699999988079071,
				0.44999998807907104,
				0.05000000074505806
			],
			"min":[
				-0.699999988079071,
				0,
				-0.75
			],
			"type":"VEC3"
		},
		{
			"bufferView":1,
			"componentType":5126,
			"count":32,
			"type":"VEC3"
		},
		{
			"bufferView":2,
			"componentType":5126,
			"count":32,
			"type":"VEC2"
		},
		{
			"bufferView":3,
			"componentType":5123,
			"count":48,
			"type":"SCALAR"
		},
		{
			"bufferView":4,
			"componentType":5126,
			"count":16,
			"max":[
				0.7250000238418579,
				0.45399999618530273,
				0.07500000298023224
			],
			"min":[
				-0.7250000238418579,
				0.2800000011920929,
				-0.75
			],
			"type":"VEC3"
		},
		{
			"bufferView":5,
			"componentType":5126,
			"count":16,
			"type":"VEC3"
		},
		{
			"bufferView":6,
			"componentType":5126,
			"count":16,
			"type":"VEC2"
		},
		{
			"bufferView":7,
			"componentType":5123,
			"count":24,
			"type":"SCALAR"
		},
		{
			"bufferView":8,
			"componentType":5126,
			"count":32,
			"max":[
				0.949999988079071,
				0.44999998807907104,
				0.4000000059604645
			],
			"min":[
				-0.949999988079071,
				0,
				-0.75
			],
			"type":"VEC3"
		},
		{
			"bufferView":9,
			"componentType":5126,
			"count":32,
			"type":"VEC3"
		},
		{
			"bufferView":10,
			"componentType":5126,
			"count":32,
			"type":"VEC2"
		},
		{
			"bufferView":11,
			"componentType":5126,
			"count":16,
			"max":[
				0.9750000238418579,
				0.45399999618530273,
				0.42500001192092896
			],
			"min":[
				-0.9750000238418579,
				0.2800000011920929,
				-0.75
			],
			"type":"VEC3"
		},
		{
			"bufferView":12,
			"componentType":5126,
			"count":16,
			"type":"VEC3"
		},
		{
			"bufferView":13,
			"componentType":5126,
			"count":16,
			"type":"VEC2"
		},
		{
			"bufferView":14,
			"componentType":5126,
			"count":32,
			"max":[
				1.2000000476837158,
				0.44999998807907104,
				0.75
			],
			"min":[
				-1.2000000476837158,
				0,
				-0.75
			],
			"type":"VEC3"
		},
		{
			"bufferView":15,
			"componentType":5126,
			"count":32,
			"type":"VEC3"
		},
		{
			"bufferView":16,
			"componentType":5126,
			"count":32,
			"type":"VEC2"
		},
		{
			"bufferView":17,
			"componentType":5126,
			"count":16,
			"max":[
				1.225000023841858,
				0.45399999618530273,
				0.7749999761581421
			],
			"min":[
				-1.225000023841858,
				0.2800000011920929,
				-0.75
			],
			"type":"VEC3"
		},
		{
			"bufferView":18,
			"componentType":5126,
			"count":16,
			"type":"VEC3"
		},
		{
			"bufferView":19,
			"componentType":5126,
			"count":16,
			"type":"VEC2"
		},
		{
			"bufferView":20,
			"componentType":5126,
			"count":20,
			"max":[
				0.949999988079071,
				0.012000000104308128,
				1.9500000476837158
			],
			"min":[
				-0.949999988079071,
				0,
				0.8500000238418579
			],
			"type":"VEC3"
		},
		{
			"bufferView":21,
			"componentType":5126,
			"count":20,
			"type":"VEC3"
		},
		{
			"bufferView":22,
			"componentType":5126,
			"count":20,
			"type":"VEC2"
		},
		{
			"bufferView":23,
			"componentType":5123,
			"count":30,
			"type":"SCALAR"
		}
	],
	"bufferViews":[
		{
			"buffer":0,
			"byteLength":384,
			"byteOffset":0,
			"target":34962
		},
		{
			"buffer":0,
			"byteLength":384,
			"byteOffset":384,
			"target":34962
		},
		{
			"buffer":0,
			"byteLength":256,
			"byteOffset":768,
			"target":34962
		},
		{
			"buffer":0,
			"byteLength":96,
			"byteOffset":1024,
			"target":34963
		},
		{
			"buffer":0,
			"byteLength":192,
			"byteOffset":1120,
			"target":34962
		},
		{
			"buffer":0,
			"byteLength":192,
			"byteOffset":1312,
			"target":34962
		},
		{
			"buffer":0,
			"byteLength":128,
			"byteOffset":1504,
			"target":34962
		},
		{
			"buffer":0,
			"byteLength":48,
			"byteOffset":1632,
			"target":34963
		},
		{
			"buffer":0,
			"byteLength":384,
			"byteOffset":1680,
			"target":34962
		},
		{
			"buffer":0,
			"byteLength":384,
			"byteOffset":2064,
			"target":34962
		},
		{
			"buffer":0,
			"byteLength":256,
			"byteOffset":2448,
			"target":34962
		},
		{
			"buffer":0,
			"byteLength":192,
			"byteOffset":2704,
			"target":34962
		},
		{
			"buffer":0,
			"byteLength":192,
			"byteOffset":2896,
			"target":34962
		},
		{
			"buffer":0,
			"byteLength":128,
			"byteOffset":3088,
			"target":34962
		},
		{
			"buffer":0,
			"byteLength":384,
			"byteOffset":3216,
			"target":34962
		},
		{
			"buffer":0,
			"byteLength":384,
			"byteOffset":3600,
			"target":34962
		},
		{
			"buffer":0,
			"byteLength":256,
			"byteOffset":3984,
			"target":34962
		},
		{
			"buffer":0,
			"byteLength":192,
			"byteOffset":4240,
			"target":34962
		},
		{
			"buffer":0,
			"byteLength":192,
			"byteOffset":4432,
			"target":34962
		},
		{
			"buffer":0,
			"byteLength":128,
			"byteOffset":4624,
			"target":34962
		},
		{
			"buffer":0,
			"byteLength":240,
			"byteOffset":4752,
			"target":34962
		},
		{
			"buffer":0,
			"byteLength":240,
			"byteOffset":4992,
			"target":34962
		},
		{
			"buffer":0,
			"byteLength":160,
			"byteOffset":5232,
			"target":34962
		},
		{
			"buffer":0,
			"byteLength":60,
			"byteOffset":5392,
			"target":34963
		}
	],
	"samplers":[
		{
			"magFilter":9729,
			"minFilter":9987
		}
	],
	"buffers":[
		{
			"byteLength":5452,
			"uri":"altar_muertos.bin"
		}
	]
}
