{
	"asset":{
		"generator":"Khronos glTF Blender I/O v5.2.40",
		"version":"2.0"
	},
	"scene":0,
	"scenes":[
		{
			"name":"Arco_Florido_Editable",
			"nodes":[
				3
			]
		}
	],
	"nodes":[
		{
			"mesh":0,
			"name":"flores",
			"rotation":[
				0.4937724769115448,
				0.4589375853538513,
				0.6281051635742188,
				0.38865038752555847
			],
			"scale":[
				1.4944226741790771,
				1.4944229125976562,
				1.4944226741790771
			],
			"translation":[
				-0.46244075894355774,
				2.2703816890716553,
				0.06052460893988609
			]
		},
		{
			"mesh":1,
			"name":"follaje",
			"rotation":[
				0.6812693476676941,
				-0.18939973413944244,
				-0.18939971923828125,
				0.6812691688537598
			],
			"scale":[
				1.189826250076294,
				1.189826250076294,
				1.1898263692855835
			],
			"translation":[
				0.31386101245880127,
				2.605379343032837,
				-0.004999999888241291
			]
		},
		{
			"mesh":2,
			"name":"marco"
		},
		{
			"children":[
				0,
				1,
				2
			],
			"name":"Arco_Raiz"
		}
	],
	"materials":[
		{
			"doubleSided":true,
			"name":"Petalo_Cempasuchil",
			"pbrMetallicRoughness":{
				"baseColorTexture":{
					"index":0
				},
				"metallicFactor":0,
				"roughnessFactor":0.6499999761581421
			}
		},
		{
			"doubleSided":true,
			"name":"Hoja_Cempasuchil",
			"pbrMetallicRoughness":{
				"baseColorTexture":{
					"index":1
				},
				"metallicFactor":0,
				"roughnessFactor":0.6499999761581421
			}
		},
		{
			"name":"carrizo",
			"pbrMetallicRoughness":{
				"baseColorFactor":[
					0.5840784311294556,
					0.43415364623069763,
					0.1946178376674652,
					1
				],
				"baseColorTexture":{
					"index":2
				},
				"metallicFactor":0,
				"roughnessFactor":0.800000011920929
			}
		}
	],
	"meshes":[
		{
			"name":"Cabeza_ligera_compartida.023",
			"primitives":[
				{
					"attributes":{
						"POSITION":0,
						"NORMAL":1,
						"TEXCOORD_0":2
					},
					"indices":3,
					"material":0
				}
			]
		},
		{
			"name":"Rama_hojas_compartida.068",
			"primitives":[
				{
					"attributes":{
						"POSITION":4,
						"NORMAL":5,
						"TEXCOORD_0":6
					},
					"indices":7,
					"material":1
				}
			]
		},
		{
			"name":"arco_cempasuchil",
			"primitives":[
				{
					"attributes":{
						"POSITION":8,
						"NORMAL":9,
						"TEXCOORD_0":10
					},
					"indices":11,
					"material":2
				}
			]
		}
	],
	"textures":[
		{
			"sampler":0,
			"source":0
		},
		{
			"sampler":0,
			"source":1
		},
		{
			"sampler":0,
			"source":2
		}
	],
	"images":[
		{
			"mimeType":"image/png",
			"name":"petalo_cempasuchil",
			"uri":"../../textures/petalo_cempasuchil.png"
		},
		{
			"mimeType":"image/png",
			"name":"hoja_cempasuchil_color",
			"uri":"../../textures/hoja_cempasuchil_color.png"
		},
		{
			"mimeType":"image/jpeg",
			"name":"madera_clara",
			"uri":"../../textures/madera_clara.jpg"
		}
	],
	"accessors":[
		{
			"bufferView":0,
			"componentType":5126,
			"count":419672,
			"max":[
				0.30280622839927673,
				0.49120819568634033,
				1.2268117666244507
			],
			"min":[
				-1.718225359916687,
				-0.18017764389514923,
				-0.9648645520210266
			],
			"type":"VEC3"
		},
		{
			"bufferView":1,
			"componentType":5126,
			"count":419672,
			"type":"VEC3"
		},
		{
			"bufferView":2,
			"componentType":5126,
			"count":419672,
			"type":"VEC2"
		},
		{
			"bufferView":3,
			"componentType":5125,
			"count":1261524,
			"type":"SCALAR"
		},
		{
			"bufferView":4,
			"componentType":5126,
			"count":38368,
			"max":[
				2.1197268962860107,
				0.0021784058772027493,
				2.7646594047546387
			],
			"min":[
				-1.063660740852356,
				-0.0015558175509795547,
				-0.30998939275741577
			],
			"type":"VEC3"
		},
		{
			"bufferView":5,
			"componentType":5126,
			"count":38368,
			"type":"VEC3"
		},
		{
			"bufferView":6,
			"componentType":5126,
			"count":38368,
			"type":"VEC2"
		},
		{
			"bufferView":7,
			"componentType":5123,
			"count":120384,
			"type":"SCALAR"
		},
		{
			"bufferView":8,
			"componentType":5126,
			"count":187,
			"max":[
				1.3346409797668457,
				2.5346410274505615,
				0.03999999910593033
			],
			"min":[
				-1.3346409797668457,
				0,
				-0.03999999910593033
			],
			"type":"VEC3"
		},
		{
			"bufferView":9,
			"componentType":5126,
			"count":187,
			"type":"VEC3"
		},
		{
			"bufferView":10,
			"componentType":5126,
			"count":187,
			"type":"VEC2"
		},
		{
			"bufferView":11,
			"componentType":5123,
			"count":888,
			"type":"SCALAR"
		}
	],
	"bufferViews":[
		{
			"buffer":0,
			"byteLength":5036064,
			"byteOffset":0,
			"target":34962
		},
		{
			"buffer":0,
			"byteLength":5036064,
			"byteOffset":5036064,
			"target":34962
		},
		{
			"buffer":0,
			"byteLength":3357376,
			"byteOffset":10072128,
			"target":34962
		},
		{
			"buffer":0,
			"byteLength":5046096,
			"byteOffset":13429504,
			"target":34963
		},
		{
			"buffer":0,
			"byteLength":460416,
			"byteOffset":18475600,
			"target":34962
		},
		{
			"buffer":0,
			"byteLength":460416,
			"byteOffset":18936016,
			"target":34962
		},
		{
			"buffer":0,
			"byteLength":306944,
			"byteOffset":19396432,
			"target":34962
		},
		{
			"buffer":0,
			"byteLength":240768,
			"byteOffset":19703376,
			"target":34963
		},
		{
			"buffer":0,
			"byteLength":2244,
			"byteOffset":19944144,
			"target":34962
		},
		{
			"buffer":0,
			"byteLength":2244,
			"byteOffset":19946388,
			"target":34962
		},
		{
			"buffer":0,
			"byteLength":1496,
			"byteOffset":19948632,
			"target":34962
		},
		{
			"buffer":0,
			"byteLength":1776,
			"byteOffset":19950128,
			"target":34963
		}
	],
	"samplers":[
		{
			"magFilter":9729,
			"minFilter":9987
		}
	],
	"buffers":[
		{
			"byteLength":19951904,
			"uri":"arco_cempasuchil.bin"
		}
	]
}
