{
	"asset":{
		"generator":"Khronos glTF Blender I/O v5.2.40",
		"version":"2.0"
	},
	"extensionsUsed":[
		"KHR_materials_clearcoat"
	],
	"scene":0,
	"scenes":[
		{
			"name":"Calaverita_Referencia",
			"nodes":[
				31
			]
		}
	],
	"nodes":[
		{
			"mesh":0,
			"name":"adorno_placa_izq",
			"rotation":[
				-0.06965026259422302,
				-0.1488332450389862,
				-0.07598389685153961,
				0.9834754467010498
			],
			"translation":[
				-0.7443459033966064,
				2.2386879920959473,
				0.2678288221359253
			]
		},
		{
			"mesh":1,
			"name":"adorno_plaza_der",
			"rotation":[
				-0.019978361204266548,
				0.1813507378101349,
				0.11217985302209854,
				0.9767950177192688
			],
			"translation":[
				0.7472600340843201,
				2.3673696517944336,
				0.3275547921657562
			]
		},
		{
			"mesh":2,
			"name":"arco_frente_1",
			"rotation":[
				-0.08874183893203735,
				-0.01274313684552908,
				-0.004155721049755812,
				0.9959645867347717
			],
			"translation":[
				0.035256460309028625,
				2.725579261779785,
				0.2500496804714203
			]
		},
		{
			"mesh":3,
			"name":"arco_frente_2",
			"rotation":[
				-0.08874183893203735,
				-0.01274313684552908,
				-0.004155721049755812,
				0.9959645867347717
			],
			"translation":[
				0.035256460309028625,
				2.725579261779785,
				0.2500496804714203
			]
		},
		{
			"mesh":4,
			"name":"arco_frente_3",
			"rotation":[
				-0.08874183893203735,
				-0.01274313684552908,
				-0.004155721049755812,
				0.9959645867347717
			],
			"translation":[
				0.035256460309028625,
				2.725579261779785,
				0.2500496804714203
			]
		},
		{
			"mesh":5,
			"name":"borde_ojo_derecho",
			"rotation":[
				0,
				0.015958232805132866,
				0,
				0.9998726844787598
			],
			"translation":[
				0.3817250728607178,
				1.783172369003296,
				0.602616012096405
			]
		},
		{
			"mesh":6,
			"name":"borde_ojo_izquierdo",
			"translation":[
				-0.4161522388458252,
				1.7520909309387207,
				0.7871867418289185
			]
		},
		{
			"mesh":7,
			"name":"borde_placa_derecha",
			"rotation":[
				-0.20368272066116333,
				0,
				0,
				0.9790369868278503
			],
			"translation":[
				0.43128088116645813,
				2.3872463703155518,
				0.6827676296234131
			]
		},
		{
			"mesh":8,
			"name":"borde_placa_inferior",
			"translation":[
				0.04017062485218048,
				2.2485721111297607,
				0.837321937084198
			]
		},
		{
			"mesh":9,
			"name":"borde_placa_izquierda",
			"rotation":[
				-0.20368272066116333,
				0,
				0,
				0.9790369868278503
			],
			"translation":[
				-0.3975241184234619,
				2.4217941761016846,
				0.6815441846847534
			]
		},
		{
			"mesh":10,
			"name":"borde_placa_superior",
			"translation":[
				0.04124721512198448,
				2.4948229789733887,
				0.6567434072494507
			]
		},
		{
			"mesh":11,
			"name":"craneo"
		},
		{
			"mesh":12,
			"name":"diente_1",
			"rotation":[
				-0.0366356261074543,
				0,
				0,
				0.9993286728858948
			],
			"translation":[
				-0.0017571382923051715,
				0.2445196807384491,
				0.18442076444625854
			]
		},
		{
			"mesh":13,
			"name":"diente_02",
			"rotation":[
				-0.0366356261074543,
				0,
				0,
				0.9993286728858948
			],
			"translation":[
				-0.0017571382923051715,
				0.2445196807384491,
				0.18442076444625854
			]
		},
		{
			"mesh":14,
			"name":"diente_03",
			"rotation":[
				-0.0366356261074543,
				0,
				0,
				0.9993286728858948
			],
			"translation":[
				-0.0017571382923051715,
				0.2445196807384491,
				0.18442076444625854
			]
		},
		{
			"mesh":15,
			"name":"diente_04",
			"rotation":[
				-0.0366356261074543,
				0,
				0,
				0.9993286728858948
			],
			"translation":[
				-0.0017571382923051715,
				0.2445196807384491,
				0.18442076444625854
			]
		},
		{
			"mesh":16,
			"name":"diente_05",
			"rotation":[
				-0.0366356261074543,
				0,
				0,
				0.9993286728858948
			],
			"translation":[
				-0.0017571382923051715,
				0.2445196807384491,
				0.18442076444625854
			]
		},
		{
			"mesh":17,
			"name":"diente_06",
			"rotation":[
				-0.0366356261074543,
				0,
				0,
				0.9993286728858948
			],
			"translation":[
				-0.0017571382923051715,
				0.2445196807384491,
				0.18442076444625854
			]
		},
		{
			"mesh":18,
			"name":"diente_07",
			"rotation":[
				-0.0366356261074543,
				0,
				0,
				0.9993286728858948
			],
			"translation":[
				-0.0017571382923051715,
				0.2445196807384491,
				0.18442076444625854
			]
		},
		{
			"mesh":19,
			"name":"diente_08",
			"translation":[
				-0.0017571382923051715,
				0.29332640767097473,
				0.13578441739082336
			]
		},
		{
			"mesh":20,
			"name":"diente_09",
			"rotation":[
				-0.0366356261074543,
				0,
				0,
				0.9993286728858948
			],
			"translation":[
				-0.0017571382923051715,
				0.2445196807384491,
				0.18442076444625854
			]
		},
		{
			"mesh":21,
			"name":"espiral_mejilla_derecha",
			"rotation":[
				0,
				0.17264311015605927,
				0,
				0.9849844574928284
			],
			"translation":[
				0.7380244135856628,
				1.1132102012634277,
				0.32738661766052246
			]
		},
		{
			"mesh":22,
			"name":"espiral_mejilla_izquierda",
			"rotation":[
				0,
				-0.20896558463573456,
				0,
				0.9779230952262878
			],
			"translation":[
				-0.728735625743866,
				1.1074573993682861,
				0.3486201763153076
			]
		},
		{
			"mesh":23,
			"name":"linea_boca",
			"rotation":[
				-0.0366356261074543,
				0,
				0,
				0.9993286728858948
			],
			"translation":[
				-0.003452593693509698,
				0.9322625994682312,
				0.8257656097412109
			]
		},
		{
			"mesh":24,
			"name":"mandibula_der",
			"rotation":[
				-0.6852539777755737,
				-0.1119469404220581,
				0.14647021889686584,
				0.7045859694480896
			],
			"translation":[
				0.7457018494606018,
				0.8941727876663208,
				-0.10062655806541443
			]
		},
		{
			"mesh":25,
			"name":"mandibula_izq",
			"rotation":[
				-0.6342196464538574,
				-0.29500359296798706,
				0.18970340490341187,
				0.6890217661857605
			],
			"translation":[
				-0.7316486239433289,
				0.8839545249938965,
				-0.038445912301540375
			]
		},
		{
			"mesh":26,
			"name":"ojo_derecho",
			"rotation":[
				0.005210781004279852,
				0.23602737486362457,
				0.002228438388556242,
				0.9717298746109009
			],
			"translation":[
				0.4068840444087982,
				1.7018263339996338,
				0.7123810052871704
			]
		},
		{
			"mesh":27,
			"name":"ojo_izquierdo",
			"rotation":[
				0,
				-0.1842658966779709,
				0,
				0.9828765392303467
			],
			"translation":[
				-0.44599735736846924,
				1.7200002670288086,
				0.6945158243179321
			]
		},
		{
			"mesh":28,
			"name":"oreja_der",
			"rotation":[
				-0.01252925954759121,
				0.0933300033211708,
				-0.01948966085910797,
				0.9953656196594238
			],
			"translation":[
				0.9391922354698181,
				1.7260892391204834,
				0.0640227198600769
			]
		},
		{
			"mesh":29,
			"name":"oreja_izq",
			"rotation":[
				0,
				-0.0683458223938942,
				0,
				0.9976617097854614
			],
			"translation":[
				-0.9370435476303101,
				1.7490136623382568,
				0.03954971209168434
			]
		},
		{
			"mesh":30,
			"name":"placa_frente",
			"rotation":[
				-0.21828338503837585,
				0,
				0,
				0.9758854508399963
			],
			"translation":[
				0.02842310070991516,
				2.3943469524383545,
				0.724818766117096
			]
		},
		{
			"children":[
				0,
				1,
				2,
				3,
				4,
				5,
				6,
				7,
				8,
				9,
				10,
				11,
				12,
				13,
				14,
				15,
				16,
				17,
				18,
				19,
				20,
				21,
				22,
				23,
				24,
				25,
				26,
				27,
				28,
				29,
				30
			],
			"name":"Calaverita_Raiz",
			"scale":[
				0.05212073773145676,
				0.05212073773145676,
				0.05212073773145676
			],
			"translation":[
				0,
				-0.035377588123083115,
				0
			]
		}
	],
	"animations":[
		{
			"channels":[
				{
					"sampler":0,
					"target":{
						"node":19,
						"path":"translation"
					}
				},
				{
					"sampler":1,
					"target":{
						"node":19,
						"path":"rotation"
					}
				},
				{
					"sampler":2,
					"target":{
						"node":19,
						"path":"scale"
					}
				}
			],
			"name":"05_Diente_07Action",
			"samplers":[
				{
					"input":113,
					"interpolation":"LINEAR",
					"output":114
				},
				{
					"input":113,
					"interpolation":"LINEAR",
					"output":115
				},
				{
					"input":113,
					"interpolation":"LINEAR",
					"output":116
				}
			]
		}
	],
	"materials":[
		{
			"doubleSided":true,
			"name":"Adorno_Placa",
			"pbrMetallicRoughness":{
				"baseColorFactor":[
					0.8000074625015259,
					0.5051193237304688,
					0,
					1
				],
				"metallicFactor":0,
				"roughnessFactor":0.800000011920929
			}
		},
		{
			"doubleSided":true,
			"name":"Adorno_Craneo",
			"pbrMetallicRoughness":{
				"baseColorFactor":[
					0.5576913356781006,
					0.11731904745101929,
					0,
					1
				],
				"metallicFactor":0,
				"roughnessFactor":0.800000011920929
			}
		},
		{
			"doubleSided":true,
			"name":"Contorno_Ojo",
			"pbrMetallicRoughness":{
				"baseColorFactor":[
					0.00843486376106739,
					0.8000074625015259,
					0.07205179333686829,
					1
				],
				"metallicFactor":0,
				"roughnessFactor":0.800000011920929
			}
		},
		{
			"doubleSided":true,
			"name":"Contorno_Placa",
			"pbrMetallicRoughness":{
				"baseColorFactor":[
					0,
					0.0008085359004326165,
					0.8000074625015259,
					1
				],
				"metallicFactor":0,
				"roughnessFactor":0.800000011920929
			}
		},
		{
			"doubleSided":true,
			"name":"Azucar_Marfil",
			"pbrMetallicRoughness":{
				"baseColorFactor":[
					0.8962584733963013,
					0.8647422790527344,
					0.5417487621307373,
					1
				],
				"metallicFactor":0,
				"roughnessFactor":0.5
			}
		},
		{
			"doubleSided":true,
			"name":"Diente",
			"pbrMetallicRoughness":{
				"baseColorFactor":[
					0.800039529800415,
					0.16676676273345947,
					0.026004336774349213,
					1
				],
				"metallicFactor":0,
				"roughnessFactor":0.800000011920929
			}
		},
		{
			"doubleSided":true,
			"name":"Espiral_2",
			"pbrMetallicRoughness":{
				"baseColorFactor":[
					0.8000074625015259,
					0.00040122473728843033,
					0.1352820247411728,
					1
				],
				"metallicFactor":0,
				"roughnessFactor":0.800000011920929
			}
		},
		{
			"doubleSided":true,
			"name":"Linea_Boca",
			"pbrMetallicRoughness":{
				"baseColorFactor":[
					0.9822507500648499,
					1,
					0.9734454154968262,
					1
				],
				"metallicFactor":0,
				"roughnessFactor":0.5813953876495361
			}
		},
		{
			"doubleSided":true,
			"name":"Adorno_Mandibula",
			"pbrMetallicRoughness":{
				"baseColorFactor":[
					0.18230284750461578,
					0,
					0.8000074625015259,
					1
				],
				"metallicFactor":0,
				"roughnessFactor":0.800000011920929
			}
		},
		{
			"doubleSided":true,
			"extensions":{
				"KHR_materials_clearcoat":{
					"clearcoatFactor":0.30000001192092896,
					"clearcoatRoughnessFactor":0.10000000149011612
				}
			},
			"name":"Ojo_Lentejuela",
			"pbrMetallicRoughness":{
				"baseColorFactor":[
					0.8000156879425049,
					0.0004433254653122276,
					0,
					1
				],
				"metallicFactor":0.800000011920929,
				"roughnessFactor":0.15000000596046448
			}
		},
		{
			"doubleSided":true,
			"name":"Espiral_1",
			"pbrMetallicRoughness":{
				"baseColorFactor":[
					0.6886047720909119,
					0,
					0.6060331463813782,
					1
				],
				"metallicFactor":0,
				"roughnessFactor":0.800000011920929
			}
		},
		{
			"doubleSided":true,
			"extensions":{
				"KHR_materials_clearcoat":{
					"clearcoatFactor":0.5,
					"clearcoatRoughnessFactor":0.10000000149011612
				}
			},
			"name":"Placa",
			"pbrMetallicRoughness":{
				"baseColorFactor":[
					0,
					0.0033903131261467934,
					0.8000074625015259,
					1
				],
				"metallicFactor":0,
				"roughnessFactor":0.20000000298023224
			}
		}
	],
	"meshes":[
		{
			"name":"10_Guarda_verde_-1",
			"primitives":[
				{
					"attributes":{
						"POSITION":0,
						"NORMAL":1,
						"TEXCOORD_0":2
					},
					"indices":3,
					"material":0
				}
			]
		},
		{
			"name":"10_Guarda_verde_1",
			"primitives":[
				{
					"attributes":{
						"POSITION":4,
						"NORMAL":5,
						"TEXCOORD_0":6
					},
					"indices":7,
					"material":0
				}
			]
		},
		{
			"name":"11_Arco_naranja_0",
			"primitives":[
				{
					"attributes":{
						"POSITION":8,
						"NORMAL":9,
						"TEXCOORD_0":10
					},
					"indices":11,
					"material":1
				}
			]
		},
		{
			"name":"11_Arco_naranja_1",
			"primitives":[
				{
					"attributes":{
						"POSITION":12,
						"NORMAL":13,
						"TEXCOORD_0":14
					},
					"indices":15,
					"material":1
				}
			]
		},
		{
			"name":"11_Arco_naranja_2",
			"primitives":[
				{
					"attributes":{
						"POSITION":16,
						"NORMAL":17,
						"TEXCOORD_0":18
					},
					"indices":19,
					"material":1
				}
			]
		},
		{
			"name":"03_Borde_verde_Derecho",
			"primitives":[
				{
					"attributes":{
						"POSITION":20,
						"NORMAL":21,
						"TEXCOORD_0":22
					},
					"indices":23,
					"material":2
				}
			]
		},
		{
			"name":"03_Borde_verde_Izquierdo",
			"primitives":[
				{
					"attributes":{
						"POSITION":24,
						"NORMAL":25,
						"TEXCOORD_0":26
					},
					"indices":27,
					"material":2
				}
			]
		},
		{
			"name":"09_Lateral_placa_-1",
			"primitives":[
				{
					"attributes":{
						"POSITION":28,
						"NORMAL":29,
						"TEXCOORD_0":30
					},
					"indices":31,
					"material":3
				}
			]
		},
		{
			"name":"09_Borde_placa_Inferior_rosa.001",
			"primitives":[
				{
					"attributes":{
						"POSITION":32,
						"NORMAL":33,
						"TEXCOORD_0":34
					},
					"indices":35,
					"material":3
				}
			]
		},
		{
			"name":"09_Lateral_placa_-1.001",
			"primitives":[
				{
					"attributes":{
						"POSITION":36,
						"NORMAL":37,
						"TEXCOORD_0":38
					},
					"indices":31,
					"material":3
				}
			]
		},
		{
			"name":"09_Borde_placa_Inferior_rosa",
			"primitives":[
				{
					"attributes":{
						"POSITION":39,
						"NORMAL":40,
						"TEXCOORD_0":41
					},
					"indices":35,
					"material":3
				}
			]
		},
		{
			"name":"Superficie_craneo",
			"primitives":[
				{
					"attributes":{
						"POSITION":42,
						"NORMAL":43,
						"TEXCOORD_0":44
					},
					"indices":45,
					"material":4
				}
			]
		},
		{
			"name":"05_Diente_00",
			"primitives":[
				{
					"attributes":{
						"POSITION":46,
						"NORMAL":47,
						"TEXCOORD_0":48
					},
					"indices":49,
					"material":5
				}
			]
		},
		{
			"name":"05_Diente_01",
			"primitives":[
				{
					"attributes":{
						"POSITION":50,
						"NORMAL":51,
						"TEXCOORD_0":52
					},
					"indices":49,
					"material":5
				}
			]
		},
		{
			"name":"05_Diente_02",
			"primitives":[
				{
					"attributes":{
						"POSITION":53,
						"NORMAL":54,
						"TEXCOORD_0":55
					},
					"indices":49,
					"material":5
				}
			]
		},
		{
			"name":"05_Diente_03",
			"primitives":[
				{
					"attributes":{
						"POSITION":56,
						"NORMAL":57,
						"TEXCOORD_0":58
					},
					"indices":49,
					"material":5
				}
			]
		},
		{
			"name":"05_Diente_04",
			"primitives":[
				{
					"attributes":{
						"POSITION":59,
						"NORMAL":60,
						"TEXCOORD_0":61
					},
					"indices":62,
					"material":5
				}
			]
		},
		{
			"name":"05_Diente_05",
			"primitives":[
				{
					"attributes":{
						"POSITION":63,
						"NORMAL":64,
						"TEXCOORD_0":65
					},
					"indices":49,
					"material":5
				}
			]
		},
		{
			"name":"05_Diente_06",
			"primitives":[
				{
					"attributes":{
						"POSITION":66,
						"NORMAL":67,
						"TEXCOORD_0":68
					},
					"indices":49,
					"material":5
				}
			]
		},
		{
			"name":"05_Diente_07",
			"primitives":[
				{
					"attributes":{
						"POSITION":69,
						"NORMAL":70,
						"TEXCOORD_0":71
					},
					"indices":49,
					"material":5
				}
			]
		},
		{
			"name":"05_Diente_08",
			"primitives":[
				{
					"attributes":{
						"POSITION":72,
						"NORMAL":73,
						"TEXCOORD_0":74
					},
					"indices":49,
					"material":5
				}
			]
		},
		{
			"name":"06_Espiral_mejilla_1",
			"primitives":[
				{
					"attributes":{
						"POSITION":75,
						"NORMAL":76,
						"TEXCOORD_0":77
					},
					"indices":78,
					"material":6
				}
			]
		},
		{
			"name":"06_Espiral_mejilla_-1",
			"primitives":[
				{
					"attributes":{
						"POSITION":79,
						"NORMAL":80,
						"TEXCOORD_0":81
					},
					"indices":82,
					"material":6
				}
			]
		},
		{
			"name":"04_Linea_boca",
			"primitives":[
				{
					"attributes":{
						"POSITION":83,
						"NORMAL":84,
						"TEXCOORD_0":85
					},
					"indices":86,
					"material":7
				}
			]
		},
		{
			"name":"07_Adorno_mandibula_-1.002",
			"primitives":[
				{
					"attributes":{
						"POSITION":87,
						"NORMAL":88,
						"TEXCOORD_0":89
					},
					"indices":90,
					"material":8
				}
			]
		},
		{
			"name":"07_Adorno_mandibula_-1",
			"primitives":[
				{
					"attributes":{
						"POSITION":91,
						"NORMAL":92,
						"TEXCOORD_0":93
					},
					"indices":90,
					"material":8
				}
			]
		},
		{
			"name":"Sphere.001",
			"primitives":[
				{
					"attributes":{
						"POSITION":94,
						"NORMAL":95,
						"TEXCOORD_0":96
					},
					"indices":97,
					"material":9
				}
			]
		},
		{
			"name":"Sphere",
			"primitives":[
				{
					"attributes":{
						"POSITION":98,
						"NORMAL":99,
						"TEXCOORD_0":100
					},
					"indices":101,
					"material":9
				}
			]
		},
		{
			"name":"13_Espiral_lateral_1",
			"primitives":[
				{
					"attributes":{
						"POSITION":102,
						"NORMAL":103,
						"TEXCOORD_0":104
					},
					"indices":105,
					"material":10
				}
			]
		},
		{
			"name":"13_Espiral_lateral_-1",
			"primitives":[
				{
					"attributes":{
						"POSITION":106,
						"NORMAL":107,
						"TEXCOORD_0":108
					},
					"indices":109,
					"material":10
				}
			]
		},
		{
			"name":"Placa_frontal",
			"primitives":[
				{
					"attributes":{
						"POSITION":110,
						"NORMAL":111
					},
					"indices":112,
					"material":11
				}
			]
		}
	],
	"accessors":[
		{
			"bufferView":0,
			"componentType":5126,
			"count":801,
			"max":[
				0.2519611716270447,
				0.2079782783985138,
				0.2962605059146881
			],
			"min":[
				-0.30361124873161316,
				-0.15318414568901062,
				-0.2287243753671646
			],
			"type":"VEC3"
		},
		{
			"bufferView":1,
			"componentType":5126,
			"count":801,
			"type":"VEC3"
		},
		{
			"bufferView":2,
			"componentType":5126,
			"count":801,
			"type":"VEC2"
		},
		{
			"bufferView":3,
			"componentType":5123,
			"count":4248,
			"type":"SCALAR"
		},
		{
			"bufferView":4,
			"componentType":5126,
			"count":801,
			"max":[
				0.2885771691799164,
				0.12003353238105774,
				0.21389657258987427
			],
			"min":[
				-0.26699525117874146,
				-0.24112889170646667,
				-0.31108832359313965
			],
			"type":"VEC3"
		},
		{
			"bufferView":5,
			"componentType":5126,
			"count":801,
			"type":"VEC3"
		},
		{
			"bufferView":6,
			"componentType":5126,
			"count":801,
			"type":"VEC2"
		},
		{
			"bufferView":7,
			"componentType":5123,
			"count":4248,
			"type":"SCALAR"
		},
		{
			"bufferView":8,
			"componentType":5126,
			"count":911,
			"max":[
				0.6718956232070923,
				0.08108372986316681,
				-0.096645288169384
			],
			"min":[
				-0.747992753982544,
				-0.2722780406475067,
				-0.2712247371673584
			],
			"type":"VEC3"
		},
		{
			"bufferView":9,
			"componentType":5126,
			"count":911,
			"type":"VEC3"
		},
		{
			"bufferView":10,
			"componentType":5126,
			"count":911,
			"type":"VEC2"
		},
		{
			"bufferView":11,
			"componentType":5123,
			"count":4848,
			"type":"SCALAR"
		},
		{
			"bufferView":12,
			"componentType":5126,
			"count":911,
			"max":[
				0.521849513053894,
				0.021158263087272644,
				0.02514893189072609
			],
			"min":[
				-0.5979467630386353,
				-0.26759636402130127,
				-0.10664242506027222
			],
			"type":"VEC3"
		},
		{
			"bufferView":13,
			"componentType":5126,
			"count":911,
			"type":"VEC3"
		},
		{
			"bufferView":14,
			"componentType":5126,
			"count":911,
			"type":"VEC2"
		},
		{
			"bufferView":15,
			"componentType":5123,
			"count":4848,
			"type":"SCALAR"
		},
		{
			"bufferView":16,
			"componentType":5126,
			"count":911,
			"max":[
				0.3718171715736389,
				-0.03857478126883507,
				0.11424300074577332
			],
			"min":[
				-0.44791436195373535,
				-0.26509907841682434,
				-0.010574936866760254
			],
			"type":"VEC3"
		},
		{
			"bufferView":17,
			"componentType":5126,
			"count":911,
			"type":"VEC3"
		},
		{
			"bufferView":18,
			"componentType":5126,
			"count":911,
			"type":"VEC2"
		},
		{
			"bufferView":19,
			"componentType":5123,
			"count":4848,
			"type":"SCALAR"
		},
		{
			"bufferView":20,
			"componentType":5126,
			"count":1067,
			"max":[
				0.37357085943222046,
				0.3237594962120056,
				0.3113635182380676
			],
			"min":[
				-0.3267911374568939,
				-0.4628000557422638,
				-0.032327502965927124
			],
			"type":"VEC3"
		},
		{
			"bufferView":21,
			"componentType":5126,
			"count":1067,
			"type":"VEC3"
		},
		{
			"bufferView":22,
			"componentType":5126,
			"count":1067,
			"type":"VEC2"
		},
		{
			"bufferView":23,
			"componentType":5123,
			"count":5760,
			"type":"SCALAR"
		},
		{
			"bufferView":24,
			"componentType":5126,
			"count":1067,
			"max":[
				0.3385823965072632,
				0.34840452671051025,
				0.13677160441875458
			],
			"min":[
				-0.34867221117019653,
				-0.4203912615776062,
				-0.20097817480564117
			],
			"type":"VEC3"
		},
		{
			"bufferView":25,
			"componentType":5126,
			"count":1067,
			"type":"VEC3"
		},
		{
			"bufferView":26,
			"componentType":5126,
			"count":1067,
			"type":"VEC2"
		},
		{
			"bufferView":27,
			"componentType":5123,
			"count":5760,
			"type":"SCALAR"
		},
		{
			"bufferView":28,
			"componentType":5126,
			"count":251,
			"max":[
				0.025093194097280502,
				0.14810243248939514,
				0.027603499591350555
			],
			"min":[
				-0.04690682515501976,
				-0.16645383834838867,
				-0.11290048807859421
			],
			"type":"VEC3"
		},
		{
			"bufferView":29,
			"componentType":5126,
			"count":251,
			"type":"VEC3"
		},
		{
			"bufferView":30,
			"componentType":5126,
			"count":251,
			"type":"VEC2"
		},
		{
			"bufferView":31,
			"componentType":5123,
			"count":1248,
			"type":"SCALAR"
		},
		{
			"bufferView":32,
			"componentType":5126,
			"count":911,
			"max":[
				0.41431447863578796,
				0.04847654327750206,
				-0.005599725991487503
			],
			"min":[
				-0.483633816242218,
				-0.050495877861976624,
				-0.14697210490703583
			],
			"type":"VEC3"
		},
		{
			"bufferView":33,
			"componentType":5126,
			"count":911,
			"type":"VEC3"
		},
		{
			"bufferView":34,
			"componentType":5126,
			"count":911,
			"type":"VEC2"
		},
		{
			"bufferView":35,
			"componentType":5123,
			"count":4848,
			"type":"SCALAR"
		},
		{
			"bufferView":36,
			"componentType":5126,
			"count":251,
			"max":[
				0.025093194097280502,
				0.14810243248939514,
				0.027603499591350555
			],
			"min":[
				-0.04690682515501976,
				-0.16645383834838867,
				-0.11290048807859421
			],
			"type":"VEC3"
		},
		{
			"bufferView":37,
			"componentType":5126,
			"count":251,
			"type":"VEC3"
		},
		{
			"bufferView":38,
			"componentType":5126,
			"count":251,
			"type":"VEC2"
		},
		{
			"bufferView":39,
			"componentType":5126,
			"count":911,
			"max":[
				0.41431447863578796,
				0.04847654327750206,
				-0.005599725991487503
			],
			"min":[
				-0.483633816242218,
				-0.050495877861976624,
				-0.14697210490703583
			],
			"type":"VEC3"
		},
		{
			"bufferView":40,
			"componentType":5126,
			"count":911,
			"type":"VEC3"
		},
		{
			"bufferView":41,
			"componentType":5126,
			"count":911,
			"type":"VEC2"
		},
		{
			"bufferView":42,
			"componentType":5126,
			"count":1808,
			"max":[
				1.014944076538086,
				2.6890907287597656,
				0.9114903807640076
			],
			"min":[
				-1.01651132106781,
				0.6751294732093811,
				-1.152119517326355
			],
			"type":"VEC3"
		},
		{
			"bufferView":43,
			"componentType":5126,
			"count":1808,
			"type":"VEC3"
		},
		{
			"bufferView":44,
			"componentType":5126,
			"count":1808,
			"type":"VEC2"
		},
		{
			"bufferView":45,
			"componentType":5123,
			"count":9120,
			"type":"SCALAR"
		},
		{
			"bufferView":46,
			"componentType":5126,
			"count":141,
			"max":[
				-0.5350000262260437,
				0.8403270840644836,
				0.4872913360595703
			],
			"min":[
				-0.5849999785423279,
				0.5230470299720764,
				0.3978021740913391
			],
			"type":"VEC3"
		},
		{
			"bufferView":47,
			"componentType":5126,
			"count":141,
			"type":"VEC3"
		},
		{
			"bufferView":48,
			"componentType":5126,
			"count":141,
			"type":"VEC2"
		},
		{
			"bufferView":49,
			"componentType":5123,
			"count":648,
			"type":"SCALAR"
		},
		{
			"bufferView":50,
			"componentType":5126,
			"count":141,
			"max":[
				-0.39499998092651367,
				0.8237355351448059,
				0.5850751996040344
			],
			"min":[
				-0.4449999928474426,
				0.5078701972961426,
				0.5048491954803467
			],
			"type":"VEC3"
		},
		{
			"bufferView":51,
			"componentType":5126,
			"count":141,
			"type":"VEC3"
		},
		{
			"bufferView":52,
			"componentType":5126,
			"count":141,
			"type":"VEC2"
		},
		{
			"bufferView":53,
			"componentType":5126,
			"count":141,
			"max":[
				-0.2549999952316284,
				0.8122000694274902,
				0.6450595855712891
			],
			"min":[
				-0.3050000071525574,
				0.49697405099868774,
				0.5684124827384949
			],
			"type":"VEC3"
		},
		{
			"bufferView":54,
			"componentType":5126,
			"count":141,
			"type":"VEC3"
		},
		{
			"bufferView":55,
			"componentType":5126,
			"count":141,
			"type":"VEC2"
		},
		{
			"bufferView":56,
			"componentType":5126,
			"count":141,
			"max":[
				-0.11499999463558197,
				0.8053497672080994,
				0.6783095598220825
			],
			"min":[
				-0.16500000655651093,
				0.4904269874095917,
				0.603141188621521
			],
			"type":"VEC3"
		},
		{
			"bufferView":57,
			"componentType":5126,
			"count":141,
			"type":"VEC3"
		},
		{
			"bufferView":58,
			"componentType":5126,
			"count":141,
			"type":"VEC2"
		},
		{
			"bufferView":59,
			"componentType":5126,
			"count":141,
			"max":[
				0.025000005960464478,
				0.8030751943588257,
				0.6890115141868591
			],
			"min":[
				-0.025000005960464478,
				0.48824360966682434,
				0.6142514944076538
			],
			"type":"VEC3"
		},
		{
			"bufferView":60,
			"componentType":5126,
			"count":141,
			"type":"VEC3"
		},
		{
			"bufferView":61,
			"componentType":5126,
			"count":141,
			"type":"VEC2"
		},
		{
			"bufferView":62,
			"componentType":5123,
			"count":648,
			"type":"SCALAR"
		},
		{
			"bufferView":63,
			"componentType":5126,
			"count":141,
			"max":[
				0.16500000655651093,
				0.8053497672080994,
				0.6783095598220825
			],
			"min":[
				0.11499999463558197,
				0.4904269874095917,
				0.603141188621521
			],
			"type":"VEC3"
		},
		{
			"bufferView":64,
			"componentType":5126,
			"count":141,
			"type":"VEC3"
		},
		{
			"bufferView":65,
			"componentType":5126,
			"count":141,
			"type":"VEC2"
		},
		{
			"bufferView":66,
			"componentType":5126,
			"count":141,
			"max":[
				0.3050000071525574,
				0.8122000694274902,
				0.6450595855712891
			],
			"min":[
				0.2549999952316284,
				0.49697405099868774,
				0.5684124827384949
			],
			"type":"VEC3"
		},
		{
			"bufferView":67,
			"componentType":5126,
			"count":141,
			"type":"VEC3"
		},
		{
			"bufferView":68,
			"componentType":5126,
			"count":141,
			"type":"VEC2"
		},
		{
			"bufferView":69,
			"componentType":5126,
			"count":141,
			"max":[
				0.4449999928474426,
				0.8237355351448059,
				0.5850751996040344
			],
			"min":[
				0.39499998092651367,
				0.5078701972961426,
				0.5048491954803467
			],
			"type":"VEC3"
		},
		{
			"bufferView":70,
			"componentType":5126,
			"count":141,
			"type":"VEC3"
		},
		{
			"bufferView":71,
			"componentType":5126,
			"count":141,
			"type":"VEC2"
		},
		{
			"bufferView":72,
			"componentType":5126,
			"count":141,
			"max":[
				0.5849999785423279,
				0.8403270840644836,
				0.4872913360595703
			],
			"min":[
				0.5350000262260437,
				0.5230470299720764,
				0.3978021740913391
			],
			"type":"VEC3"
		},
		{
			"bufferView":73,
			"componentType":5126,
			"count":141,
			"type":"VEC3"
		},
		{
			"bufferView":74,
			"componentType":5126,
			"count":141,
			"type":"VEC2"
		},
		{
			"bufferView":75,
			"componentType":5126,
			"count":1010,
			"max":[
				0.1353498101234436,
				0.14998167753219604,
				0.11468902230262756
			],
			"min":[
				-0.15330001711845398,
				-0.16900618374347687,
				-0.24948455393314362
			],
			"type":"VEC3"
		},
		{
			"bufferView":76,
			"componentType":5126,
			"count":1010,
			"type":"VEC3"
		},
		{
			"bufferView":77,
			"componentType":5126,
			"count":1010,
			"type":"VEC2"
		},
		{
			"bufferView":78,
			"componentType":5123,
			"count":5388,
			"type":"SCALAR"
		},
		{
			"bufferView":79,
			"componentType":5126,
			"count":1010,
			"max":[
				0.15134575963020325,
				0.1496148705482483,
				0.10758289694786072
			],
			"min":[
				-0.13730406761169434,
				-0.16937299072742462,
				-0.25659066438674927
			],
			"type":"VEC3"
		},
		{
			"bufferView":80,
			"componentType":5126,
			"count":1010,
			"type":"VEC3"
		},
		{
			"bufferView":81,
			"componentType":5126,
			"count":1010,
			"type":"VEC2"
		},
		{
			"bufferView":82,
			"componentType":5123,
			"count":5388,
			"type":"SCALAR"
		},
		{
			"bufferView":83,
			"componentType":5126,
			"count":691,
			"max":[
				0.62123703956604,
				0.07067510485649109,
				4.82611358165741e-05
			],
			"min":[
				-0.6178461313247681,
				-0.024091538041830063,
				-0.30243340134620667
			],
			"type":"VEC3"
		},
		{
			"bufferView":84,
			"componentType":5126,
			"count":691,
			"type":"VEC3"
		},
		{
			"bufferView":85,
			"componentType":5126,
			"count":691,
			"type":"VEC2"
		},
		{
			"bufferView":86,
			"componentType":5123,
			"count":3648,
			"type":"SCALAR"
		},
		{
			"bufferView":87,
			"componentType":5126,
			"count":460,
			"max":[
				0.06721315532922745,
				0.22717559337615967,
				0.1288193315267563
			],
			"min":[
				-0.05224238708615303,
				-0.30692267417907715,
				-0.057708822190761566
			],
			"type":"VEC3"
		},
		{
			"bufferView":88,
			"componentType":5126,
			"count":460,
			"type":"VEC3"
		},
		{
			"bufferView":89,
			"componentType":5126,
			"count":460,
			"type":"VEC2"
		},
		{
			"bufferView":90,
			"componentType":5123,
			"count":2388,
			"type":"SCALAR"
		},
		{
			"bufferView":91,
			"componentType":5126,
			"count":460,
			"max":[
				0.10702667385339737,
				0.25870221853256226,
				0.11616183817386627
			],
			"min":[
				-0.012428868561983109,
				-0.2753960192203522,
				-0.07036631554365158
			],
			"type":"VEC3"
		},
		{
			"bufferView":92,
			"componentType":5126,
			"count":460,
			"type":"VEC3"
		},
		{
			"bufferView":93,
			"componentType":5126,
			"count":460,
			"type":"VEC2"
		},
		{
			"bufferView":94,
			"componentType":5126,
			"count":608,
			"max":[
				0.28999999165534973,
				0.33000001311302185,
				0.12999999523162842
			],
			"min":[
				-0.28999996185302734,
				-0.33000001311302185,
				-0.12999999523162842
			],
			"type":"VEC3"
		},
		{
			"bufferView":95,
			"componentType":5126,
			"count":608,
			"type":"VEC3"
		},
		{
			"bufferView":96,
			"componentType":5126,
			"count":608,
			"type":"VEC2"
		},
		{
			"bufferView":97,
			"componentType":5123,
			"count":864,
			"type":"SCALAR"
		},
		{
			"bufferView":98,
			"componentType":5126,
			"count":608,
			"max":[
				0.28999999165534973,
				0.33000001311302185,
				0.12999999523162842
			],
			"min":[
				-0.28999996185302734,
				-0.33000001311302185,
				-0.12999999523162842
			],
			"type":"VEC3"
		},
		{
			"bufferView":99,
			"componentType":5126,
			"count":608,
			"type":"VEC3"
		},
		{
			"bufferView":100,
			"componentType":5126,
			"count":608,
			"type":"VEC2"
		},
		{
			"bufferView":101,
			"componentType":5123,
			"count":864,
			"type":"SCALAR"
		},
		{
			"bufferView":102,
			"componentType":5126,
			"count":1131,
			"max":[
				0.05220961570739746,
				0.2018795758485794,
				0.1915878802537918
			],
			"min":[
				-0.10801026225090027,
				-0.25476136803627014,
				-0.22195211052894592
			],
			"type":"VEC3"
		},
		{
			"bufferView":103,
			"componentType":5126,
			"count":1131,
			"type":"VEC3"
		},
		{
			"bufferView":104,
			"componentType":5126,
			"count":1131,
			"type":"VEC2"
		},
		{
			"bufferView":105,
			"componentType":5123,
			"count":6048,
			"type":"SCALAR"
		},
		{
			"bufferView":106,
			"componentType":5126,
			"count":1131,
			"max":[
				0.13060493767261505,
				0.17895515263080597,
				0.21606087684631348
			],
			"min":[
				-0.029614925384521484,
				-0.2776857912540436,
				-0.19747909903526306
			],
			"type":"VEC3"
		},
		{
			"bufferView":107,
			"componentType":5126,
			"count":1131,
			"type":"VEC3"
		},
		{
			"bufferView":108,
			"componentType":5126,
			"count":1131,
			"type":"VEC2"
		},
		{
			"bufferView":109,
			"componentType":5123,
			"count":6048,
			"type":"SCALAR"
		},
		{
			"bufferView":110,
			"componentType":5126,
			"count":85,
			"max":[
				0.4015769064426422,
				0.15014243125915527,
				0.022756993770599365
			],
			"min":[
				-0.45842310786247253,
				-0.1498575210571289,
				-0.12275195121765137
			],
			"type":"VEC3"
		},
		{
			"bufferView":111,
			"componentType":5126,
			"count":85,
			"type":"VEC3"
		},
		{
			"bufferView":112,
			"componentType":5123,
			"count":384,
			"type":"SCALAR"
		},
		{
			"bufferView":113,
			"componentType":5126,
			"count":1,
			"max":[
				4.833333333333333
			],
			"min":[
				4.833333333333333
			],
			"type":"SCALAR"
		},
		{
			"bufferView":114,
			"componentType":5126,
			"count":1,
			"type":"VEC3"
		},
		{
			"bufferView":115,
			"componentType":5126,
			"count":1,
			"type":"VEC4"
		},
		{
			"bufferView":116,
			"componentType":5126,
			"count":1,
			"type":"VEC3"
		}
	],
	"bufferViews":[
		{
			"buffer":0,
			"byteLength":9612,
			"byteOffset":0,
			"target":34962
		},
		{
			"buffer":0,
			"byteLength":9612,
			"byteOffset":9612,
			"target":34962
		},
		{
			"buffer":0,
			"byteLength":6408,
			"byteOffset":19224,
			"target":34962
		},
		{
			"buffer":0,
			"byteLength":8496,
			"byteOffset":25632,
			"target":34963
		},
		{
			"buffer":0,
			"byteLength":9612,
			"byteOffset":34128,
			"target":34962
		},
		{
			"buffer":0,
			"byteLength":9612,
			"byteOffset":43740,
			"target":34962
		},
		{
			"buffer":0,
			"byteLength":6408,
			"byteOffset":53352,
			"target":34962
		},
		{
			"buffer":0,
			"byteLength":8496,
			"byteOffset":59760,
			"target":34963
		},
		{
			"buffer":0,
			"byteLength":10932,
			"byteOffset":68256,
			"target":34962
		},
		{
			"buffer":0,
			"byteLength":10932,
			"byteOffset":79188,
			"target":34962
		},
		{
			"buffer":0,
			"byteLength":7288,
			"byteOffset":90120,
			"target":34962
		},
		{
			"buffer":0,
			"byteLength":9696,
			"byteOffset":97408,
			"target":34963
		},
		{
			"buffer":0,
			"byteLength":10932,
			"byteOffset":107104,
			"target":34962
		},
		{
			"buffer":0,
			"byteLength":10932,
			"byteOffset":118036,
			"target":34962
		},
		{
			"buffer":0,
			"byteLength":7288,
			"byteOffset":128968,
			"target":34962
		},
		{
			"buffer":0,
			"byteLength":9696,
			"byteOffset":136256,
			"target":34963
		},
		{
			"buffer":0,
			"byteLength":10932,
			"byteOffset":145952,
			"target":34962
		},
		{
			"buffer":0,
			"byteLength":10932,
			"byteOffset":156884,
			"target":34962
		},
		{
			"buffer":0,
			"byteLength":7288,
			"byteOffset":167816,
			"target":34962
		},
		{
			"buffer":0,
			"byteLength":9696,
			"byteOffset":175104,
			"target":34963
		},
		{
			"buffer":0,
			"byteLength":12804,
			"byteOffset":184800,
			"target":34962
		},
		{
			"buffer":0,
			"byteLength":12804,
			"byteOffset":197604,
			"target":34962
		},
		{
			"buffer":0,
			"byteLength":8536,
			"byteOffset":210408,
			"target":34962
		},
		{
			"buffer":0,
			"byteLength":11520,
			"byteOffset":218944,
			"target":34963
		},
		{
			"buffer":0,
			"byteLength":12804,
			"byteOffset":230464,
			"target":34962
		},
		{
			"buffer":0,
			"byteLength":12804,
			"byteOffset":243268,
			"target":34962
		},
		{
			"buffer":0,
			"byteLength":8536,
			"byteOffset":256072,
			"target":34962
		},
		{
			"buffer":0,
			"byteLength":11520,
			"byteOffset":264608,
			"target":34963
		},
		{
			"buffer":0,
			"byteLength":3012,
			"byteOffset":276128,
			"target":34962
		},
		{
			"buffer":0,
			"byteLength":3012,
			"byteOffset":279140,
			"target":34962
		},
		{
			"buffer":0,
			"byteLength":2008,
			"byteOffset":282152,
			"target":34962
		},
		{
			"buffer":0,
			"byteLength":2496,
			"byteOffset":284160,
			"target":34963
		},
		{
			"buffer":0,
			"byteLength":10932,
			"byteOffset":286656,
			"target":34962
		},
		{
			"buffer":0,
			"byteLength":10932,
			"byteOffset":297588,
			"target":34962
		},
		{
			"buffer":0,
			"byteLength":7288,
			"byteOffset":308520,
			"target":34962
		},
		{
			"buffer":0,
			"byteLength":9696,
			"byteOffset":315808,
			"target":34963
		},
		{
			"buffer":0,
			"byteLength":3012,
			"byteOffset":325504,
			"target":34962
		},
		{
			"buffer":0,
			"byteLength":3012,
			"byteOffset":328516,
			"target":34962
		},
		{
			"buffer":0,
			"byteLength":2008,
			"byteOffset":331528,
			"target":34962
		},
		{
			"buffer":0,
			"byteLength":10932,
			"byteOffset":333536,
			"target":34962
		},
		{
			"buffer":0,
			"byteLength":10932,
			"byteOffset":344468,
			"target":34962
		},
		{
			"buffer":0,
			"byteLength":7288,
			"byteOffset":355400,
			"target":34962
		},
		{
			"buffer":0,
			"byteLength":21696,
			"byteOffset":362688,
			"target":34962
		},
		{
			"buffer":0,
			"byteLength":21696,
			"byteOffset":384384,
			"target":34962
		},
		{
			"buffer":0,
			"byteLength":14464,
			"byteOffset":406080,
			"target":34962
		},
		{
			"buffer":0,
			"byteLength":18240,
			"byteOffset":420544,
			"target":34963
		},
		{
			"buffer":0,
			"byteLength":1692,
			"byteOffset":438784,
			"target":34962
		},
		{
			"buffer":0,
			"byteLength":1692,
			"byteOffset":440476,
			"target":34962
		},
		{
			"buffer":0,
			"byteLength":1128,
			"byteOffset":442168,
			"target":34962
		},
		{
			"buffer":0,
			"byteLength":1296,
			"byteOffset":443296,
			"target":34963
		},
		{
			"buffer":0,
			"byteLength":1692,
			"byteOffset":444592,
			"target":34962
		},
		{
			"buffer":0,
			"byteLength":1692,
			"byteOffset":446284,
			"target":34962
		},
		{
			"buffer":0,
			"byteLength":1128,
			"byteOffset":447976,
			"target":34962
		},
		{
			"buffer":0,
			"byteLength":1692,
			"byteOffset":449104,
			"target":34962
		},
		{
			"buffer":0,
			"byteLength":1692,
			"byteOffset":450796,
			"target":34962
		},
		{
			"buffer":0,
			"byteLength":1128,
			"byteOffset":452488,
			"target":34962
		},
		{
			"buffer":0,
			"byteLength":1692,
			"byteOffset":453616,
			"target":34962
		},
		{
			"buffer":0,
			"byteLength":1692,
			"byteOffset":455308,
			"target":34962
		},
		{
			"buffer":0,
			"byteLength":1128,
			"byteOffset":457000,
			"target":34962
		},
		{
			"buffer":0,
			"byteLength":1692,
			"byteOffset":458128,
			"target":34962
		},
		{
			"buffer":0,
			"byteLength":1692,
			"byteOffset":459820,
			"target":34962
		},
		{
			"buffer":0,
			"byteLength":1128,
			"byteOffset":461512,
			"target":34962
		},
		{
			"buffer":0,
			"byteLength":1296,
			"byteOffset":462640,
			"target":34963
		},
		{
			"buffer":0,
			"byteLength":1692,
			"byteOffset":463936,
			"target":34962
		},
		{
			"buffer":0,
			"byteLength":1692,
			"byteOffset":465628,
			"target":34962
		},
		{
			"buffer":0,
			"byteLength":1128,
			"byteOffset":467320,
			"target":34962
		},
		{
			"buffer":0,
			"byteLength":1692,
			"byteOffset":468448,
			"target":34962
		},
		{
			"buffer":0,
			"byteLength":1692,
			"byteOffset":470140,
			"target":34962
		},
		{
			"buffer":0,
			"byteLength":1128,
			"byteOffset":471832,
			"target":34962
		},
		{
			"buffer":0,
			"byteLength":1692,
			"byteOffset":472960,
			"target":34962
		},
		{
			"buffer":0,
			"byteLength":1692,
			"byteOffset":474652,
			"target":34962
		},
		{
			"buffer":0,
			"byteLength":1128,
			"byteOffset":476344,
			"target":34962
		},
		{
			"buffer":0,
			"byteLength":1692,
			"byteOffset":477472,
			"target":34962
		},
		{
			"buffer":0,
			"byteLength":1692,
			"byteOffset":479164,
			"target":34962
		},
		{
			"buffer":0,
			"byteLength":1128,
			"byteOffset":480856,
			"target":34962
		},
		{
			"buffer":0,
			"byteLength":12120,
			"byteOffset":481984,
			"target":34962
		},
		{
			"buffer":0,
			"byteLength":12120,
			"byteOffset":494104,
			"target":34962
		},
		{
			"buffer":0,
			"byteLength":8080,
			"byteOffset":506224,
			"target":34962
		},
		{
			"buffer":0,
			"byteLength":10776,
			"byteOffset":514304,
			"target":34963
		},
		{
			"buffer":0,
			"byteLength":12120,
			"byteOffset":525080,
			"target":34962
		},
		{
			"buffer":0,
			"byteLength":12120,
			"byteOffset":537200,
			"target":34962
		},
		{
			"buffer":0,
			"byteLength":8080,
			"byteOffset":549320,
			"target":34962
		},
		{
			"buffer":0,
			"byteLength":10776,
			"byteOffset":557400,
			"target":34963
		},
		{
			"buffer":0,
			"byteLength":8292,
			"byteOffset":568176,
			"target":34962
		},
		{
			"buffer":0,
			"byteLength":8292,
			"byteOffset":576468,
			"target":34962
		},
		{
			"buffer":0,
			"byteLength":5528,
			"byteOffset":584760,
			"target":34962
		},
		{
			"buffer":0,
			"byteLength":7296,
			"byteOffset":590288,
			"target":34963
		},
		{
			"buffer":0,
			"byteLength":5520,
			"byteOffset":597584,
			"target":34962
		},
		{
			"buffer":0,
			"byteLength":5520,
			"byteOffset":603104,
			"target":34962
		},
		{
			"buffer":0,
			"byteLength":3680,
			"byteOffset":608624,
			"target":34962
		},
		{
			"buffer":0,
			"byteLength":4776,
			"byteOffset":612304,
			"target":34963
		},
		{
			"buffer":0,
			"byteLength":5520,
			"byteOffset":617080,
			"target":34962
		},
		{
			"buffer":0,
			"byteLength":5520,
			"byteOffset":622600,
			"target":34962
		},
		{
			"buffer":0,
			"byteLength":3680,
			"byteOffset":628120,
			"target":34962
		},
		{
			"buffer":0,
			"byteLength":7296,
			"byteOffset":631800,
			"target":34962
		},
		{
			"buffer":0,
			"byteLength":7296,
			"byteOffset":639096,
			"target":34962
		},
		{
			"buffer":0,
			"byteLength":4864,
			"byteOffset":646392,
			"target":34962
		},
		{
			"buffer":0,
			"byteLength":1728,
			"byteOffset":651256,
			"target":34963
		},
		{
			"buffer":0,
			"byteLength":7296,
			"byteOffset":652984,
			"target":34962
		},
		{
			"buffer":0,
			"byteLength":7296,
			"byteOffset":660280,
			"target":34962
		},
		{
			"buffer":0,
			"byteLength":4864,
			"byteOffset":667576,
			"target":34962
		},
		{
			"buffer":0,
			"byteLength":1728,
			"byteOffset":672440,
			"target":34963
		},
		{
			"buffer":0,
			"byteLength":13572,
			"byteOffset":674168,
			"target":34962
		},
		{
			"buffer":0,
			"byteLength":13572,
			"byteOffset":687740,
			"target":34962
		},
		{
			"buffer":0,
			"byteLength":9048,
			"byteOffset":701312,
			"target":34962
		},
		{
			"buffer":0,
			"byteLength":12096,
			"byteOffset":710360,
			"target":34963
		},
		{
			"buffer":0,
			"byteLength":13572,
			"byteOffset":722456,
			"target":34962
		},
		{
			"buffer":0,
			"byteLength":13572,
			"byteOffset":736028,
			"target":34962
		},
		{
			"buffer":0,
			"byteLength":9048,
			"byteOffset":749600,
			"target":34962
		},
		{
			"buffer":0,
			"byteLength":12096,
			"byteOffset":758648,
			"target":34963
		},
		{
			"buffer":0,
			"byteLength":1020,
			"byteOffset":770744,
			"target":34962
		},
		{
			"buffer":0,
			"byteLength":1020,
			"byteOffset":771764,
			"target":34962
		},
		{
			"buffer":0,
			"byteLength":768,
			"byteOffset":772784,
			"target":34963
		},
		{
			"buffer":0,
			"byteLength":4,
			"byteOffset":773552
		},
		{
			"buffer":0,
			"byteLength":12,
			"byteOffset":773556
		},
		{
			"buffer":0,
			"byteLength":16,
			"byteOffset":773568
		},
		{
			"buffer":0,
			"byteLength":12,
			"byteOffset":773584
		}
	],
	"buffers":[
		{
			"byteLength":773596,
			"uri":"calaverita_azucar.bin"
		}
	]
}
