{
	"asset":{
		"copyright":"Equipo Camino de Cempas\u00fachil - FI UNAM",
		"generator":"Khronos glTF Blender I/O v5.2.40",
		"version":"2.0"
	},
	"scene":0,
	"scenes":[
		{
			"name":"Scene",
			"nodes":[
				4
			]
		}
	],
	"nodes":[
		{
			"mesh":0,
			"name":"portal"
		},
		{
			"mesh":1,
			"name":"puerta",
			"translation":[
				1.600000023841858,
				0,
				-0.20000000298023224
			]
		},
		{
			"mesh":2,
			"name":"techo"
		},
		{
			"mesh":3,
			"name":"ventana"
		},
		{
			"children":[
				0,
				1,
				2,
				3
			],
			"mesh":4,
			"name":"casa_adobe"
		}
	],
	"materials":[
		{
			"name":"madera_oscura",
			"pbrMetallicRoughness":{
				"baseColorTexture":{
					"index":0
				},
				"metallicFactor":0,
				"roughnessFactor":0.800000011920929
			}
		},
		{
			"name":"aplanado_rojo",
			"pbrMetallicRoughness":{
				"baseColorTexture":{
					"index":1
				},
				"metallicFactor":0,
				"roughnessFactor":0.8999999761581421
			}
		},
		{
			"name":"cal",
			"pbrMetallicRoughness":{
				"baseColorTexture":{
					"index":2
				},
				"metallicFactor":0,
				"roughnessFactor":0.949999988079071
			}
		},
		{
			"name":"tejas",
			"pbrMetallicRoughness":{
				"baseColorTexture":{
					"index":3
				},
				"metallicFactor":0,
				"roughnessFactor":0.8500000238418579
			}
		},
		{
			"name":"madera_clara",
			"pbrMetallicRoughness":{
				"baseColorTexture":{
					"index":4
				},
				"metallicFactor":0,
				"roughnessFactor":0.800000011920929
			}
		},
		{
			"name":"hierro",
			"pbrMetallicRoughness":{
				"baseColorFactor":[
					0.016807375475764275,
					0.016807375475764275,
					0.019382361322641373,
					1
				],
				"metallicFactor":0.75,
				"roughnessFactor":0.44999998807907104
			}
		},
		{
			"name":"adobe",
			"pbrMetallicRoughness":{
				"baseColorTexture":{
					"index":5
				},
				"metallicFactor":0,
				"roughnessFactor":0.949999988079071
			}
		}
	],
	"meshes":[
		{
			"name":"portal",
			"primitives":[
				{
					"attributes":{
						"POSITION":0,
						"NORMAL":1,
						"TEXCOORD_0":2
					},
					"indices":3,
					"material":0
				},
				{
					"attributes":{
						"POSITION":4,
						"NORMAL":5,
						"TEXCOORD_0":6
					},
					"indices":7,
					"material":1
				},
				{
					"attributes":{
						"POSITION":8,
						"NORMAL":9,
						"TEXCOORD_0":10
					},
					"indices":11,
					"material":2
				},
				{
					"attributes":{
						"POSITION":12,
						"NORMAL":13,
						"TEXCOORD_0":14
					},
					"indices":15,
					"material":3
				},
				{
					"attributes":{
						"POSITION":16,
						"NORMAL":17,
						"TEXCOORD_0":18
					},
					"indices":15,
					"material":4
				}
			]
		},
		{
			"name":"puerta",
			"primitives":[
				{
					"attributes":{
						"POSITION":19,
						"NORMAL":20,
						"TEXCOORD_0":21
					},
					"indices":22,
					"material":4
				},
				{
					"attributes":{
						"POSITION":23,
						"NORMAL":24,
						"TEXCOORD_0":25
					},
					"indices":26,
					"material":5
				}
			]
		},
		{
			"name":"techo",
			"primitives":[
				{
					"attributes":{
						"POSITION":27,
						"NORMAL":28,
						"TEXCOORD_0":29
					},
					"indices":30,
					"material":3
				},
				{
					"attributes":{
						"POSITION":31,
						"NORMAL":32,
						"TEXCOORD_0":33
					},
					"indices":30,
					"material":4
				}
			]
		},
		{
			"name":"ventana",
			"primitives":[
				{
					"attributes":{
						"POSITION":34,
						"NORMAL":35,
						"TEXCOORD_0":36
					},
					"indices":26,
					"material":4
				},
				{
					"attributes":{
						"POSITION":37,
						"NORMAL":38,
						"TEXCOORD_0":39
					},
					"indices":40,
					"material":5
				},
				{
					"attributes":{
						"POSITION":41,
						"NORMAL":42,
						"TEXCOORD_0":43
					},
					"indices":26,
					"material":2
				}
			]
		},
		{
			"name":"casa_adobe",
			"primitives":[
				{
					"attributes":{
						"POSITION":44,
						"NORMAL":45,
						"TEXCOORD_0":46
					},
					"indices":47,
					"material":6
				},
				{
					"attributes":{
						"POSITION":48,
						"NORMAL":49,
						"TEXCOORD_0":50
					},
					"indices":51,
					"material":1
				}
			]
		}
	],
	"textures":[
		{
			"sampler":0,
			"source":0
		},
		{
			"sampler":0,
			"source":1
		},
		{
			"sampler":0,
			"source":2
		},
		{
			"sampler":0,
			"source":3
		},
		{
			"sampler":0,
			"source":4
		},
		{
			"sampler":0,
			"source":5
		}
	],
	"images":[
		{
			"mimeType":"image/jpeg",
			"name":"madera_oscura.jpg",
			"uri":"../../textures/madera_oscura.jpg"
		},
		{
			"mimeType":"image/jpeg",
			"name":"aplanado_rojo.jpg",
			"uri":"../../textures/aplanado_rojo.jpg"
		},
		{
			"mimeType":"image/jpeg",
			"name":"cal.jpg",
			"uri":"../../textures/cal.jpg"
		},
		{
			"mimeType":"image/jpeg",
			"name":"tejas.jpg",
			"uri":"../../textures/tejas.jpg"
		},
		{
			"mimeType":"image/jpeg",
			"name":"madera_clara.jpg",
			"uri":"../../textures/madera_clara.jpg"
		},
		{
			"mimeType":"image/jpeg",
			"name":"adobe.jpg",
			"uri":"../../textures/adobe.jpg"
		}
	],
	"accessors":[
		{
			"bufferView":0,
			"componentType":5126,
			"count":216,
			"max":[
				3.75,
				2.619999885559082,
				3.0999999046325684
			],
			"min":[
				-3.75,
				0.3199999928474426,
				2.9000000953674316
			],
			"type":"VEC3"
		},
		{
			"bufferView":1,
			"componentType":5126,
			"count":216,
			"type":"VEC3"
		},
		{
			"bufferView":2,
			"componentType":5126,
			"count":216,
			"type":"VEC2"
		},
		{
			"bufferView":3,
			"componentType":5123,
			"count":324,
			"type":"SCALAR"
		},
		{
			"bufferView":4,
			"componentType":5126,
			"count":16,
			"max":[
				3.5999999046325684,
				0.15000000596046448,
				3.299999952316284
			],
			"min":[
				-3.5999999046325684,
				0,
				0
			],
			"type":"VEC3"
		},
		{
			"bufferView":5,
			"componentType":5126,
			"count":16,
			"type":"VEC3"
		},
		{
			"bufferView":6,
			"componentType":5126,
			"count":16,
			"type":"VEC2"
		},
		{
			"bufferView":7,
			"componentType":5123,
			"count":24,
			"type":"SCALAR"
		},
		{
			"bufferView":8,
			"componentType":5126,
			"count":96,
			"max":[
				3.5399999618530273,
				0.3199999928474426,
				3.140000104904175
			],
			"min":[
				-3.5399999618530273,
				0.15000000596046448,
				2.859999895095825
			],
			"type":"VEC3"
		},
		{
			"bufferView":9,
			"componentType":5126,
			"count":96,
			"type":"VEC3"
		},
		{
			"bufferView":10,
			"componentType":5126,
			"count":96,
			"type":"VEC2"
		},
		{
			"bufferView":11,
			"componentType":5123,
			"count":144,
			"type":"SCALAR"
		},
		{
			"bufferView":12,
			"componentType":5126,
			"count":4,
			"max":[
				3.8499999046325684,
				2.799999952316284,
				3.450000047683716
			],
			"min":[
				-3.8499999046325684,
				2.619999885559082,
				0
			],
			"type":"VEC3"
		},
		{
			"bufferView":13,
			"componentType":5126,
			"count":4,
			"type":"VEC3"
		},
		{
			"bufferView":14,
			"componentType":5126,
			"count":4,
			"type":"VEC2"
		},
		{
			"bufferView":15,
			"componentType":5123,
			"count":6,
			"type":"SCALAR"
		},
		{
			"bufferView":16,
			"componentType":5126,
			"count":4,
			"max":[
				3.8499999046325684,
				2.75,
				3.450000047683716
			],
			"min":[
				-3.8499999046325684,
				2.569999933242798,
				0
			],
			"type":"VEC3"
		},
		{
			"bufferView":17,
			"componentType":5126,
			"count":4,
			"type":"VEC3"
		},
		{
			"bufferView":18,
			"componentType":5126,
			"count":4,
			"type":"VEC2"
		},
		{
			"bufferView":19,
			"componentType":5126,
			"count":64,
			"max":[
				1,
				2.0999999046325684,
				0.05000000074505806
			],
			"min":[
				0,
				0,
				-0.029999999329447746
			],
			"type":"VEC3"
		},
		{
			"bufferView":20,
			"componentType":5126,
			"count":64,
			"type":"VEC3"
		},
		{
			"bufferView":21,
			"componentType":5126,
			"count":64,
			"type":"VEC2"
		},
		{
			"bufferView":22,
			"componentType":5123,
			"count":96,
			"type":"SCALAR"
		},
		{
			"bufferView":23,
			"componentType":5126,
			"count":24,
			"max":[
				0.8799999952316284,
				1.1200000047683716,
				0.07999999821186066
			],
			"min":[
				0.8399999737739563,
				1,
				0.05000000074505806
			],
			"type":"VEC3"
		},
		{
			"bufferView":24,
			"componentType":5126,
			"count":24,
			"type":"VEC3"
		},
		{
			"bufferView":25,
			"componentType":5126,
			"count":24,
			"type":"VEC2"
		},
		{
			"bufferView":26,
			"componentType":5123,
			"count":36,
			"type":"SCALAR"
		},
		{
			"bufferView":27,
			"componentType":5126,
			"count":8,
			"max":[
				3.8499999046325684,
				4.150000095367432,
				0.3499999940395355
			],
			"min":[
				-3.8499999046325684,
				2.8499999046325684,
				-4.849999904632568
			],
			"type":"VEC3"
		},
		{
			"bufferView":28,
			"componentType":5126,
			"count":8,
			"type":"VEC3"
		},
		{
			"bufferView":29,
			"componentType":5126,
			"count":8,
			"type":"VEC2"
		},
		{
			"bufferView":30,
			"componentType":5123,
			"count":12,
			"type":"SCALAR"
		},
		{
			"bufferView":31,
			"componentType":5126,
			"count":8,
			"max":[
				3.8499999046325684,
				4.090000152587891,
				0.3499999940395355
			],
			"min":[
				-3.8499999046325684,
				2.7899999618530273,
				-4.849999904632568
			],
			"type":"VEC3"
		},
		{
			"bufferView":32,
			"componentType":5126,
			"count":8,
			"type":"VEC3"
		},
		{
			"bufferView":33,
			"componentType":5126,
			"count":8,
			"type":"VEC2"
		},
		{
			"bufferView":34,
			"componentType":5126,
			"count":24,
			"max":[
				-1.7999999523162842,
				1.899999976158142,
				-0.23999999463558197
			],
			"min":[
				-2.799999952316284,
				1,
				-0.28999999165534973
			],
			"type":"VEC3"
		},
		{
			"bufferView":35,
			"componentType":5126,
			"count":24,
			"type":"VEC3"
		},
		{
			"bufferView":36,
			"componentType":5126,
			"count":24,
			"type":"VEC2"
		},
		{
			"bufferView":37,
			"componentType":5126,
			"count":104,
			"max":[
				-1.7999999523162842,
				1.899999976158142,
				-0.029999999329447746
			],
			"min":[
				-2.799999952316284,
				1,
				-0.054999999701976776
			],
			"type":"VEC3"
		},
		{
			"bufferView":38,
			"componentType":5126,
			"count":104,
			"type":"VEC3"
		},
		{
			"bufferView":39,
			"componentType":5126,
			"count":104,
			"type":"VEC2"
		},
		{
			"bufferView":40,
			"componentType":5123,
			"count":156,
			"type":"SCALAR"
		},
		{
			"bufferView":41,
			"componentType":5126,
			"count":24,
			"max":[
				-1.7400000095367432,
				1,
				0.05999999865889549
			],
			"min":[
				-2.859999895095825,
				0.9200000166893005,
				-0.03999999910593033
			],
			"type":"VEC3"
		},
		{
			"bufferView":42,
			"componentType":5126,
			"count":24,
			"type":"VEC3"
		},
		{
			"bufferView":43,
			"componentType":5126,
			"count":24,
			"type":"VEC2"
		},
		{
			"bufferView":44,
			"componentType":5126,
			"count":226,
			"max":[
				3.5,
				4.099999904632568,
				0
			],
			"min":[
				-3.5,
				0,
				-4.5
			],
			"type":"VEC3"
		},
		{
			"bufferView":45,
			"componentType":5126,
			"count":226,
			"type":"VEC3"
		},
		{
			"bufferView":46,
			"componentType":5126,
			"count":226,
			"type":"VEC2"
		},
		{
			"bufferView":47,
			"componentType":5123,
			"count":336,
			"type":"SCALAR"
		},
		{
			"bufferView":48,
			"componentType":5126,
			"count":32,
			"max":[
				3.509999990463257,
				0.699999988079071,
				0.012000000104308128
			],
			"min":[
				-3.509999990463257,
				0,
				0
			],
			"type":"VEC3"
		},
		{
			"bufferView":49,
			"componentType":5126,
			"count":32,
			"type":"VEC3"
		},
		{
			"bufferView":50,
			"componentType":5126,
			"count":32,
			"type":"VEC2"
		},
		{
			"bufferView":51,
			"componentType":5123,
			"count":48,
			"type":"SCALAR"
		}
	],
	"bufferViews":[
		{
			"buffer":0,
			"byteLength":2592,
			"byteOffset":0,
			"target":34962
		},
		{
			"buffer":0,
			"byteLength":2592,
			"byteOffset":2592,
			"target":34962
		},
		{
			"buffer":0,
			"byteLength":1728,
			"byteOffset":5184,
			"target":34962
		},
		{
			"buffer":0,
			"byteLength":648,
			"byteOffset":6912,
			"target":34963
		},
		{
			"buffer":0,
			"byteLength":192,
			"byteOffset":7560,
			"target":34962
		},
		{
			"buffer":0,
			"byteLength":192,
			"byteOffset":7752,
			"target":34962
		},
		{
			"buffer":0,
			"byteLength":128,
			"byteOffset":7944,
			"target":34962
		},
		{
			"buffer":0,
			"byteLength":48,
			"byteOffset":8072,
			"target":34963
		},
		{
			"buffer":0,
			"byteLength":1152,
			"byteOffset":8120,
			"target":34962
		},
		{
			"buffer":0,
			"byteLength":1152,
			"byteOffset":9272,
			"target":34962
		},
		{
			"buffer":0,
			"byteLength":768,
			"byteOffset":10424,
			"target":34962
		},
		{
			"buffer":0,
			"byteLength":288,
			"byteOffset":11192,
			"target":34963
		},
		{
			"buffer":0,
			"byteLength":48,
			"byteOffset":11480,
			"target":34962
		},
		{
			"buffer":0,
			"byteLength":48,
			"byteOffset":11528,
			"target":34962
		},
		{
			"buffer":0,
			"byteLength":32,
			"byteOffset":11576,
			"target":34962
		},
		{
			"buffer":0,
			"byteLength":12,
			"byteOffset":11608,
			"target":34963
		},
		{
			"buffer":0,
			"byteLength":48,
			"byteOffset":11620,
			"target":34962
		},
		{
			"buffer":0,
			"byteLength":48,
			"byteOffset":11668,
			"target":34962
		},
		{
			"buffer":0,
			"byteLength":32,
			"byteOffset":11716,
			"target":34962
		},
		{
			"buffer":0,
			"byteLength":768,
			"byteOffset":11748,
			"target":34962
		},
		{
			"buffer":0,
			"byteLength":768,
			"byteOffset":12516,
			"target":34962
		},
		{
			"buffer":0,
			"byteLength":512,
			"byteOffset":13284,
			"target":34962
		},
		{
			"buffer":0,
			"byteLength":192,
			"byteOffset":13796,
			"target":34963
		},
		{
			"buffer":0,
			"byteLength":288,
			"byteOffset":13988,
			"target":34962
		},
		{
			"buffer":0,
			"byteLength":288,
			"byteOffset":14276,
			"target":34962
		},
		{
			"buffer":0,
			"byteLength":192,
			"byteOffset":14564,
			"target":34962
		},
		{
			"buffer":0,
			"byteLength":72,
			"byteOffset":14756,
			"target":34963
		},
		{
			"buffer":0,
			"byteLength":96,
			"byteOffset":14828,
			"target":34962
		},
		{
			"buffer":0,
			"byteLength":96,
			"byteOffset":14924,
			"target":34962
		},
		{
			"buffer":0,
			"byteLength":64,
			"byteOffset":15020,
			"target":34962
		},
		{
			"buffer":0,
			"byteLength":24,
			"byteOffset":15084,
			"target":34963
		},
		{
			"buffer":0,
			"byteLength":96,
			"byteOffset":15108,
			"target":34962
		},
		{
			"buffer":0,
			"byteLength":96,
			"byteOffset":15204,
			"target":34962
		},
		{
			"buffer":0,
			"byteLength":64,
			"byteOffset":15300,
			"target":34962
		},
		{
			"buffer":0,
			"byteLength":288,
			"byteOffset":15364,
			"target":34962
		},
		{
			"buffer":0,
			"byteLength":288,
			"byteOffset":15652,
			"target":34962
		},
		{
			"buffer":0,
			"byteLength":192,
			"byteOffset":15940,
			"target":34962
		},
		{
			"buffer":0,
			"byteLength":1248,
			"byteOffset":16132,
			"target":34962
		},
		{
			"buffer":0,
			"byteLength":1248,
			"byteOffset":17380,
			"target":34962
		},
		{
			"buffer":0,
			"byteLength":832,
			"byteOffset":18628,
			"target":34962
		},
		{
			"buffer":0,
			"byteLength":312,
			"byteOffset":19460,
			"target":34963
		},
		{
			"buffer":0,
			"byteLength":288,
			"byteOffset":19772,
			"target":34962
		},
		{
			"buffer":0,
			"byteLength":288,
			"byteOffset":20060,
			"target":34962
		},
		{
			"buffer":0,
			"byteLength":192,
			"byteOffset":20348,
			"target":34962
		},
		{
			"buffer":0,
			"byteLength":2712,
			"byteOffset":20540,
			"target":34962
		},
		{
			"buffer":0,
			"byteLength":2712,
			"byteOffset":23252,
			"target":34962
		},
		{
			"buffer":0,
			"byteLength":1808,
			"byteOffset":25964,
			"target":34962
		},
		{
			"buffer":0,
			"byteLength":672,
			"byteOffset":27772,
			"target":34963
		},
		{
			"buffer":0,
			"byteLength":384,
			"byteOffset":28444,
			"target":34962
		},
		{
			"buffer":0,
			"byteLength":384,
			"byteOffset":28828,
			"target":34962
		},
		{
			"buffer":0,
			"byteLength":256,
			"byteOffset":29212,
			"target":34962
		},
		{
			"buffer":0,
			"byteLength":96,
			"byteOffset":29468,
			"target":34963
		}
	],
	"samplers":[
		{
			"magFilter":9729,
			"minFilter":9987
		}
	],
	"buffers":[
		{
			"byteLength":29564,
			"uri":"casa_adobe.bin"
		}
	]
}
