{
	"asset":{
		"copyright":"Equipo Camino de Cempas\u00fachil - FI UNAM",
		"generator":"Khronos glTF Blender I/O v5.2.40",
		"version":"2.0"
	},
	"extensionsUsed":[
		"KHR_materials_emissive_strength"
	],
	"scene":0,
	"scenes":[
		{
			"name":"Scene",
			"nodes":[
				3
			]
		}
	],
	"nodes":[
		{
			"mesh":0,
			"name":"llama",
			"translation":[
				0,
				0.30799999833106995,
				0
			]
		},
		{
			"children":[
				0
			],
			"mesh":1,
			"name":"vela",
			"translation":[
				0,
				0.0860000029206276,
				0
			]
		},
		{
			"children":[
				1
			],
			"mesh":2,
			"name":"candelero"
		},
		{
			"children":[
				2
			],
			"name":"cirio"
		}
	],
	"materials":[
		{
			"emissiveFactor":[
				1,
				0.4507857859134674,
				0.06301001459360123
			],
			"extensions":{
				"KHR_materials_emissive_strength":{
					"emissiveStrength":4
				}
			},
			"name":"llama",
			"pbrMetallicRoughness":{
				"baseColorFactor":[
					1,
					0.5520114302635193,
					0.14702726900577545,
					1
				],
				"metallicFactor":0,
				"roughnessFactor":0.800000011920929
			}
		},
		{
			"name":"cera_cirio",
			"pbrMetallicRoughness":{
				"baseColorTexture":{
					"index":0
				},
				"metallicFactor":0,
				"roughnessFactor":0.550000011920929
			}
		},
		{
			"name":"mecha",
			"pbrMetallicRoughness":{
				"baseColorFactor":[
					0.024157632142305374,
					0.015208514407277107,
					0.009134058840572834,
					1
				],
				"metallicFactor":0,
				"roughnessFactor":0.8999999761581421
			}
		},
		{
			"name":"barro",
			"pbrMetallicRoughness":{
				"baseColorTexture":{
					"index":1
				},
				"metallicFactor":0,
				"roughnessFactor":0.8500000238418579
			}
		}
	],
	"meshes":[
		{
			"name":"llama",
			"primitives":[
				{
					"attributes":{
						"POSITION":0,
						"NORMAL":1,
						"TEXCOORD_0":2
					},
					"indices":3,
					"material":0
				}
			]
		},
		{
			"name":"vela",
			"primitives":[
				{
					"attributes":{
						"POSITION":4,
						"NORMAL":5,
						"TEXCOORD_0":6
					},
					"indices":7,
					"material":1
				},
				{
					"attributes":{
						"POSITION":8,
						"NORMAL":9,
						"TEXCOORD_0":10
					},
					"indices":11,
					"material":2
				}
			]
		},
		{
			"name":"candelero",
			"primitives":[
				{
					"attributes":{
						"POSITION":12,
						"NORMAL":13,
						"TEXCOORD_0":14
					},
					"indices":15,
					"material":3
				}
			]
		}
	],
	"textures":[
		{
			"sampler":0,
			"source":0
		},
		{
			"sampler":0,
			"source":1
		}
	],
	"images":[
		{
			"mimeType":"image/png",
			"name":"cera.png",
			"uri":"../../textures/cera.png"
		},
		{
			"mimeType":"image/png",
			"name":"barro.png",
			"uri":"../../textures/barro.png"
		}
	],
	"accessors":[
		{
			"bufferView":0,
			"componentType":5126,
			"count":40,
			"max":[
				0.008660254068672657,
				0.041999999433755875,
				0.009999999776482582
			],
			"min":[
				-0.008660254068672657,
				0,
				-0.009999999776482582
			],
			"type":"VEC3"
		},
		{
			"bufferView":1,
			"componentType":5126,
			"count":40,
			"type":"VEC3"
		},
		{
			"bufferView":2,
			"componentType":5126,
			"count":40,
			"type":"VEC2"
		},
		{
			"bufferView":3,
			"componentType":5123,
			"count":144,
			"type":"SCALAR"
		},
		{
			"bufferView":4,
			"componentType":5126,
			"count":43,
			"max":[
				0.020923243835568428,
				0.30399999022483826,
				0.02199999988079071
			],
			"min":[
				-0.020923243835568428,
				0,
				-0.02199999988079071
			],
			"type":"VEC3"
		},
		{
			"bufferView":5,
			"componentType":5126,
			"count":43,
			"type":"VEC3"
		},
		{
			"bufferView":6,
			"componentType":5126,
			"count":43,
			"type":"VEC2"
		},
		{
			"bufferView":7,
			"componentType":5123,
			"count":150,
			"type":"SCALAR"
		},
		{
			"bufferView":8,
			"componentType":5126,
			"count":20,
			"max":[
				0.0013000000035390258,
				0.31200000643730164,
				0.0013000000035390258
			],
			"min":[
				-0.0013000000035390258,
				0.30000001192092896,
				-0.0013000000035390258
			],
			"type":"VEC3"
		},
		{
			"bufferView":9,
			"componentType":5126,
			"count":20,
			"type":"VEC3"
		},
		{
			"bufferView":10,
			"componentType":5126,
			"count":20,
			"type":"VEC2"
		},
		{
			"bufferView":11,
			"componentType":5123,
			"count":30,
			"type":"SCALAR"
		},
		{
			"bufferView":12,
			"componentType":5126,
			"count":168,
			"max":[
				0.07599999755620956,
				0.09799999743700027,
				0.07599999755620956
			],
			"min":[
				-0.07599999755620956,
				0,
				-0.07599999755620956
			],
			"type":"VEC3"
		},
		{
			"bufferView":13,
			"componentType":5126,
			"count":168,
			"type":"VEC3"
		},
		{
			"bufferView":14,
			"componentType":5126,
			"count":168,
			"type":"VEC2"
		},
		{
			"bufferView":15,
			"componentType":5123,
			"count":828,
			"type":"SCALAR"
		}
	],
	"bufferViews":[
		{
			"buffer":0,
			"byteLength":480,
			"byteOffset":0,
			"target":34962
		},
		{
			"buffer":0,
			"byteLength":480,
			"byteOffset":480,
			"target":34962
		},
		{
			"buffer":0,
			"byteLength":320,
			"byteOffset":960,
			"target":34962
		},
		{
			"buffer":0,
			"byteLength":288,
			"byteOffset":1280,
			"target":34963
		},
		{
			"buffer":0,
			"byteLength":516,
			"byteOffset":1568,
			"target":34962
		},
		{
			"buffer":0,
			"byteLength":516,
			"byteOffset":2084,
			"target":34962
		},
		{
			"buffer":0,
			"byteLength":344,
			"byteOffset":2600,
			"target":34962
		},
		{
			"buffer":0,
			"byteLength":300,
			"byteOffset":2944,
			"target":34963
		},
		{
			"buffer":0,
			"byteLength":240,
			"byteOffset":3244,
			"target":34962
		},
		{
			"buffer":0,
			"byteLength":240,
			"byteOffset":3484,
			"target":34962
		},
		{
			"buffer":0,
			"byteLength":160,
			"byteOffset":3724,
			"target":34962
		},
		{
			"buffer":0,
			"byteLength":60,
			"byteOffset":3884,
			"target":34963
		},
		{
			"buffer":0,
			"byteLength":2016,
			"byteOffset":3944,
			"target":34962
		},
		{
			"buffer":0,
			"byteLength":2016,
			"byteOffset":5960,
			"target":34962
		},
		{
			"buffer":0,
			"byteLength":1344,
			"byteOffset":7976,
			"target":34962
		},
		{
			"buffer":0,
			"byteLength":1656,
			"byteOffset":9320,
			"target":34963
		}
	],
	"samplers":[
		{
			"magFilter":9729,
			"minFilter":9987
		}
	],
	"buffers":[
		{
			"byteLength":10976,
			"uri":"cirio.bin"
		}
	]
}
