{
	"asset":{
		"copyright":"Equipo Camino de Cempas\u00fachil - FI UNAM",
		"generator":"Khronos glTF Blender I/O v5.2.40",
		"version":"2.0"
	},
	"scene":0,
	"scenes":[
		{
			"name":"Scene",
			"nodes":[
				2
			]
		}
	],
	"nodes":[
		{
			"mesh":0,
			"name":"reja_derecha",
			"translation":[
				1.5,
				0,
				0
			]
		},
		{
			"mesh":1,
			"name":"reja_izquierda",
			"translation":[
				-1.5,
				0,
				0
			]
		},
		{
			"children":[
				0,
				1
			],
			"mesh":2,
			"name":"entrada_panteon"
		}
	],
	"materials":[
		{
			"name":"hierro",
			"pbrMetallicRoughness":{
				"baseColorFactor":[
					0.016807375475764275,
					0.016807375475764275,
					0.019382361322641373,
					1
				],
				"metallicFactor":0.75,
				"roughnessFactor":0.44999998807907104
			}
		},
		{
			"name":"cal",
			"pbrMetallicRoughness":{
				"baseColorTexture":{
					"index":0
				},
				"metallicFactor":0,
				"roughnessFactor":0.949999988079071
			}
		},
		{
			"name":"aplanado_rojo",
			"pbrMetallicRoughness":{
				"baseColorTexture":{
					"index":1
				},
				"metallicFactor":0,
				"roughnessFactor":0.8999999761581421
			}
		},
		{
			"name":"letrero_panteon",
			"pbrMetallicRoughness":{
				"baseColorTexture":{
					"index":2
				},
				"metallicFactor":0,
				"roughnessFactor":0.800000011920929
			}
		}
	],
	"meshes":[
		{
			"name":"reja_derecha",
			"primitives":[
				{
					"attributes":{
						"POSITION":0,
						"NORMAL":1,
						"TEXCOORD_0":2
					},
					"indices":3,
					"material":0
				}
			]
		},
		{
			"name":"reja_izquierda",
			"primitives":[
				{
					"attributes":{
						"POSITION":4,
						"NORMAL":5,
						"TEXCOORD_0":6
					},
					"indices":3,
					"material":0
				}
			]
		},
		{
			"name":"entrada_panteon",
			"primitives":[
				{
					"attributes":{
						"POSITION":7,
						"NORMAL":8,
						"TEXCOORD_0":9
					},
					"indices":10,
					"material":1
				},
				{
					"attributes":{
						"POSITION":11,
						"NORMAL":12,
						"TEXCOORD_0":13
					},
					"indices":14,
					"material":2
				},
				{
					"attributes":{
						"POSITION":15,
						"NORMAL":16,
						"TEXCOORD_0":17
					},
					"indices":18,
					"material":3
				},
				{
					"attributes":{
						"POSITION":19,
						"NORMAL":20,
						"TEXCOORD_0":21
					},
					"indices":22,
					"material":0
				}
			]
		}
	],
	"textures":[
		{
			"sampler":0,
			"source":0
		},
		{
			"sampler":0,
			"source":1
		},
		{
			"sampler":0,
			"source":2
		}
	],
	"images":[
		{
			"mimeType":"image/jpeg",
			"name":"cal.jpg",
			"uri":"../../textures/cal.jpg"
		},
		{
			"mimeType":"image/jpeg",
			"name":"aplanado_rojo.jpg",
			"uri":"../../textures/aplanado_rojo.jpg"
		},
		{
			"mimeType":"image/png",
			"name":"letrero_panteon.png",
			"uri":"../../textures/letrero_panteon.png"
		}
	],
	"accessors":[
		{
			"bufferView":0,
			"componentType":5126,
			"count":400,
			"max":[
				0.03999999910593033,
				2.180000066757202,
				0.02199999988079071
			],
			"min":[
				-1.4900000095367432,
				0.029999999329447746,
				-0.02199999988079071
			],
			"type":"VEC3"
		},
		{
			"bufferView":1,
			"componentType":5126,
			"count":400,
			"type":"VEC3"
		},
		{
			"bufferView":2,
			"componentType":5126,
			"count":400,
			"type":"VEC2"
		},
		{
			"bufferView":3,
			"componentType":5123,
			"count":540,
			"type":"SCALAR"
		},
		{
			"bufferView":4,
			"componentType":5126,
			"count":400,
			"max":[
				1.4900000095367432,
				2.180000066757202,
				0.02199999988079071
			],
			"min":[
				0,
				0.029999999329447746,
				-0.02199999988079071
			],
			"type":"VEC3"
		},
		{
			"bufferView":5,
			"componentType":5126,
			"count":400,
			"type":"VEC3"
		},
		{
			"bufferView":6,
			"componentType":5126,
			"count":400,
			"type":"VEC2"
		},
		{
			"bufferView":7,
			"componentType":5126,
			"count":387,
			"max":[
				2.319999933242798,
				5.130000114440918,
				0.4699999988079071
			],
			"min":[
				-2.319999933242798,
				0.6000000238418579,
				-0.4699999988079071
			],
			"type":"VEC3"
		},
		{
			"bufferView":8,
			"componentType":5126,
			"count":387,
			"type":"VEC3"
		},
		{
			"bufferView":9,
			"componentType":5126,
			"count":387,
			"type":"VEC2"
		},
		{
			"bufferView":10,
			"componentType":5123,
			"count":606,
			"type":"SCALAR"
		},
		{
			"bufferView":11,
			"componentType":5126,
			"count":40,
			"max":[
				2.25,
				0.6000000238418579,
				0.4000000059604645
			],
			"min":[
				-2.25,
				0,
				-0.4000000059604645
			],
			"type":"VEC3"
		},
		{
			"bufferView":12,
			"componentType":5126,
			"count":40,
			"type":"VEC3"
		},
		{
			"bufferView":13,
			"componentType":5126,
			"count":40,
			"type":"VEC2"
		},
		{
			"bufferView":14,
			"componentType":5123,
			"count":60,
			"type":"SCALAR"
		},
		{
			"bufferView":15,
			"componentType":5126,
			"count":4,
			"max":[
				1.100000023841858,
				4.96999979019165,
				0.20499999821186066
			],
			"min":[
				-1.100000023841858,
				4.420000076293945,
				0.20499999821186066
			],
			"type":"VEC3"
		},
		{
			"bufferView":16,
			"componentType":5126,
			"count":4,
			"type":"VEC3"
		},
		{
			"bufferView":17,
			"componentType":5126,
			"count":4,
			"type":"VEC2"
		},
		{
			"bufferView":18,
			"componentType":5123,
			"count":6,
			"type":"SCALAR"
		},
		{
			"bufferView":19,
			"componentType":5126,
			"count":44,
			"max":[
				0.25999999046325684,
				5.880000114440918,
				0.03999999910593033
			],
			"min":[
				-0.25999999046325684,
				5.130000114440918,
				-0.03999999910593033
			],
			"type":"VEC3"
		},
		{
			"bufferView":20,
			"componentType":5126,
			"count":44,
			"type":"VEC3"
		},
		{
			"bufferView":21,
			"componentType":5126,
			"count":44,
			"type":"VEC2"
		},
		{
			"bufferView":22,
			"componentType":5123,
			"count":66,
			"type":"SCALAR"
		}
	],
	"bufferViews":[
		{
			"buffer":0,
			"byteLength":4800,
			"byteOffset":0,
			"target":34962
		},
		{
			"buffer":0,
			"byteLength":4800,
			"byteOffset":4800,
			"target":34962
		},
		{
			"buffer":0,
			"byteLength":3200,
			"byteOffset":9600,
			"target":34962
		},
		{
			"buffer":0,
			"byteLength":1080,
			"byteOffset":12800,
			"target":34963
		},
		{
			"buffer":0,
			"byteLength":4800,
			"byteOffset":13880,
			"target":34962
		},
		{
			"buffer":0,
			"byteLength":4800,
			"byteOffset":18680,
			"target":34962
		},
		{
			"buffer":0,
			"byteLength":3200,
			"byteOffset":23480,
			"target":34962
		},
		{
			"buffer":0,
			"byteLength":4644,
			"byteOffset":26680,
			"target":34962
		},
		{
			"buffer":0,
			"byteLength":4644,
			"byteOffset":31324,
			"target":34962
		},
		{
			"buffer":0,
			"byteLength":3096,
			"byteOffset":35968,
			"target":34962
		},
		{
			"buffer":0,
			"byteLength":1212,
			"byteOffset":39064,
			"target":34963
		},
		{
			"buffer":0,
			"byteLength":480,
			"byteOffset":40276,
			"target":34962
		},
		{
			"buffer":0,
			"byteLength":480,
			"byteOffset":40756,
			"target":34962
		},
		{
			"buffer":0,
			"byteLength":320,
			"byteOffset":41236,
			"target":34962
		},
		{
			"buffer":0,
			"byteLength":120,
			"byteOffset":41556,
			"target":34963
		},
		{
			"buffer":0,
			"byteLength":48,
			"byteOffset":41676,
			"target":34962
		},
		{
			"buffer":0,
			"byteLength":48,
			"byteOffset":41724,
			"target":34962
		},
		{
			"buffer":0,
			"byteLength":32,
			"byteOffset":41772,
			"target":34962
		},
		{
			"buffer":0,
			"byteLength":12,
			"byteOffset":41804,
			"target":34963
		},
		{
			"buffer":0,
			"byteLength":528,
			"byteOffset":41816,
			"target":34962
		},
		{
			"buffer":0,
			"byteLength":528,
			"byteOffset":42344,
			"target":34962
		},
		{
			"buffer":0,
			"byteLength":352,
			"byteOffset":42872,
			"target":34962
		},
		{
			"buffer":0,
			"byteLength":132,
			"byteOffset":43224,
			"target":34963
		}
	],
	"samplers":[
		{
			"magFilter":9729,
			"minFilter":9987
		}
	],
	"buffers":[
		{
			"byteLength":43356,
			"uri":"entrada_panteon.bin"
		}
	]
}
