{
	"asset":{
		"copyright":"Equipo Camino de Cempas\u00fachil - FI UNAM",
		"generator":"Khronos glTF Blender I/O v5.2.40",
		"version":"2.0"
	},
	"extensionsUsed":[
		"KHR_materials_emissive_strength"
	],
	"scene":0,
	"scenes":[
		{
			"name":"Scene",
			"nodes":[
				3
			]
		}
	],
	"nodes":[
		{
			"mesh":0,
			"name":"llama",
			"translation":[
				0,
				-0.2969999313354492,
				0
			]
		},
		{
			"children":[
				0
			],
			"mesh":1,
			"name":"lampara",
			"translation":[
				0.49000000953674316,
				-0.029999971389770508,
				0
			]
		},
		{
			"children":[
				1
			],
			"mesh":2,
			"name":"brazo",
			"translation":[
				0.05000000074505806,
				2.4000000953674316,
				0
			]
		},
		{
			"children":[
				2
			],
			"mesh":3,
			"name":"farol"
		}
	],
	"materials":[
		{
			"emissiveFactor":[
				1,
				0.4507857859134674,
				0.06301001459360123
			],
			"extensions":{
				"KHR_materials_emissive_strength":{
					"emissiveStrength":4
				}
			},
			"name":"llama",
			"pbrMetallicRoughness":{
				"baseColorFactor":[
					1,
					0.5520114302635193,
					0.14702726900577545,
					1
				],
				"metallicFactor":0,
				"roughnessFactor":0.800000011920929
			}
		},
		{
			"name":"hojalata",
			"pbrMetallicRoughness":{
				"baseColorTexture":{
					"index":0
				},
				"metallicFactor":0.8500000238418579,
				"roughnessFactor":0.3499999940395355
			}
		},
		{
			"emissiveFactor":[
				0.3499999940395355,
				0.15974385913365463,
				0.035784605653633283
			],
			"name":"vidrio_colores",
			"pbrMetallicRoughness":{
				"baseColorTexture":{
					"index":1
				},
				"metallicFactor":0,
				"roughnessFactor":0.20000000298023224
			}
		},
		{
			"name":"cera",
			"pbrMetallicRoughness":{
				"baseColorFactor":[
					0.8962693810462952,
					0.8227857351303101,
					0.6514056324958801,
					1
				],
				"metallicFactor":0,
				"roughnessFactor":0.6000000238418579
			}
		},
		{
			"name":"madera_oscura",
			"pbrMetallicRoughness":{
				"baseColorTexture":{
					"index":2
				},
				"metallicFactor":0,
				"roughnessFactor":0.800000011920929
			}
		},
		{
			"name":"cal",
			"pbrMetallicRoughness":{
				"baseColorTexture":{
					"index":3
				},
				"metallicFactor":0,
				"roughnessFactor":0.949999988079071
			}
		}
	],
	"meshes":[
		{
			"name":"llama",
			"primitives":[
				{
					"attributes":{
						"POSITION":0,
						"NORMAL":1,
						"TEXCOORD_0":2
					},
					"indices":3,
					"material":0
				}
			]
		},
		{
			"name":"lampara",
			"primitives":[
				{
					"attributes":{
						"POSITION":4,
						"NORMAL":5,
						"TEXCOORD_0":6
					},
					"indices":7,
					"material":1
				},
				{
					"attributes":{
						"POSITION":8,
						"NORMAL":9,
						"TEXCOORD_0":10
					},
					"indices":11,
					"material":2
				},
				{
					"attributes":{
						"POSITION":12,
						"NORMAL":13,
						"TEXCOORD_0":14
					},
					"indices":15,
					"material":3
				}
			]
		},
		{
			"name":"brazo",
			"primitives":[
				{
					"attributes":{
						"POSITION":16,
						"NORMAL":17,
						"TEXCOORD_0":18
					},
					"indices":19,
					"material":4
				}
			]
		},
		{
			"name":"farol",
			"primitives":[
				{
					"attributes":{
						"POSITION":20,
						"NORMAL":21,
						"TEXCOORD_0":22
					},
					"indices":23,
					"material":4
				},
				{
					"attributes":{
						"POSITION":24,
						"NORMAL":25,
						"TEXCOORD_0":26
					},
					"indices":27,
					"material":5
				}
			]
		}
	],
	"textures":[
		{
			"sampler":0,
			"source":0
		},
		{
			"sampler":0,
			"source":1
		},
		{
			"sampler":0,
			"source":2
		},
		{
			"sampler":0,
			"source":3
		}
	],
	"images":[
		{
			"mimeType":"image/png",
			"name":"hojalata.png",
			"uri":"../../textures/hojalata.png"
		},
		{
			"mimeType":"image/png",
			"name":"vidrio_colores.png",
			"uri":"../../textures/vidrio_colores.png"
		},
		{
			"mimeType":"image/jpeg",
			"name":"madera_oscura.jpg",
			"uri":"../../textures/madera_oscura.jpg"
		},
		{
			"mimeType":"image/jpeg",
			"name":"cal.jpg",
			"uri":"../../textures/cal.jpg"
		}
	],
	"accessors":[
		{
			"bufferView":0,
			"componentType":5126,
			"count":40,
			"max":[
				0.007794228848069906,
				0.03500000014901161,
				0.008999999612569809
			],
			"min":[
				-0.007794228848069906,
				0,
				-0.008999999612569809
			],
			"type":"VEC3"
		},
		{
			"bufferView":1,
			"componentType":5126,
			"count":40,
			"type":"VEC3"
		},
		{
			"bufferView":2,
			"componentType":5126,
			"count":40,
			"type":"VEC2"
		},
		{
			"bufferView":3,
			"componentType":5123,
			"count":144,
			"type":"SCALAR"
		},
		{
			"bufferView":4,
			"componentType":5126,
			"count":232,
			"max":[
				0.10825317353010178,
				0,
				0.125
			],
			"min":[
				-0.10825317353010178,
				-0.5,
				-0.125
			],
			"type":"VEC3"
		},
		{
			"bufferView":5,
			"componentType":5126,
			"count":232,
			"type":"VEC3"
		},
		{
			"bufferView":6,
			"componentType":5126,
			"count":232,
			"type":"VEC2"
		},
		{
			"bufferView":7,
			"componentType":5123,
			"count":360,
			"type":"SCALAR"
		},
		{
			"bufferView":8,
			"componentType":5126,
			"count":24,
			"max":[
				0.08660253882408142,
				-0.14499999582767487,
				0.10000000149011612
			],
			"min":[
				-0.08660253882408142,
				-0.3799999952316284,
				-0.10000000149011612
			],
			"type":"VEC3"
		},
		{
			"bufferView":9,
			"componentType":5126,
			"count":24,
			"type":"VEC3"
		},
		{
			"bufferView":10,
			"componentType":5126,
			"count":24,
			"type":"VEC2"
		},
		{
			"bufferView":11,
			"componentType":5123,
			"count":36,
			"type":"SCALAR"
		},
		{
			"bufferView":12,
			"componentType":5126,
			"count":50,
			"max":[
				0.013856406323611736,
				-0.30000001192092896,
				0.01600000075995922
			],
			"min":[
				-0.013856406323611736,
				-0.39500001072883606,
				-0.01600000075995922
			],
			"type":"VEC3"
		},
		{
			"bufferView":13,
			"componentType":5126,
			"count":50,
			"type":"VEC3"
		},
		{
			"bufferView":14,
			"componentType":5126,
			"count":50,
			"type":"VEC2"
		},
		{
			"bufferView":15,
			"componentType":5123,
			"count":72,
			"type":"SCALAR"
		},
		{
			"bufferView":16,
			"componentType":5126,
			"count":48,
			"max":[
				0.550000011920929,
				0.029999999329447746,
				0.029999999329447746
			],
			"min":[
				-0.015556350350379944,
				-0.3155563473701477,
				-0.029999999329447746
			],
			"type":"VEC3"
		},
		{
			"bufferView":17,
			"componentType":5126,
			"count":48,
			"type":"VEC3"
		},
		{
			"bufferView":18,
			"componentType":5126,
			"count":48,
			"type":"VEC2"
		},
		{
			"bufferView":19,
			"componentType":5123,
			"count":72,
			"type":"SCALAR"
		},
		{
			"bufferView":20,
			"componentType":5126,
			"count":44,
			"max":[
				0.07000000029802322,
				2.549999952316284,
				0.07000000029802322
			],
			"min":[
				-0.07000000029802322,
				0.3499999940395355,
				-0.07000000029802322
			],
			"type":"VEC3"
		},
		{
			"bufferView":21,
			"componentType":5126,
			"count":44,
			"type":"VEC3"
		},
		{
			"bufferView":22,
			"componentType":5126,
			"count":44,
			"type":"VEC2"
		},
		{
			"bufferView":23,
			"componentType":5123,
			"count":66,
			"type":"SCALAR"
		},
		{
			"bufferView":24,
			"componentType":5126,
			"count":20,
			"max":[
				0.15000000596046448,
				0.3499999940395355,
				0.15000000596046448
			],
			"min":[
				-0.15000000596046448,
				0,
				-0.15000000596046448
			],
			"type":"VEC3"
		},
		{
			"bufferView":25,
			"componentType":5126,
			"count":20,
			"type":"VEC3"
		},
		{
			"bufferView":26,
			"componentType":5126,
			"count":20,
			"type":"VEC2"
		},
		{
			"bufferView":27,
			"componentType":5123,
			"count":30,
			"type":"SCALAR"
		}
	],
	"bufferViews":[
		{
			"buffer":0,
			"byteLength":480,
			"byteOffset":0,
			"target":34962
		},
		{
			"buffer":0,
			"byteLength":480,
			"byteOffset":480,
			"target":34962
		},
		{
			"buffer":0,
			"byteLength":320,
			"byteOffset":960,
			"target":34962
		},
		{
			"buffer":0,
			"byteLength":288,
			"byteOffset":1280,
			"target":34963
		},
		{
			"buffer":0,
			"byteLength":2784,
			"byteOffset":1568,
			"target":34962
		},
		{
			"buffer":0,
			"byteLength":2784,
			"byteOffset":4352,
			"target":34962
		},
		{
			"buffer":0,
			"byteLength":1856,
			"byteOffset":7136,
			"target":34962
		},
		{
			"buffer":0,
			"byteLength":720,
			"byteOffset":8992,
			"target":34963
		},
		{
			"buffer":0,
			"byteLength":288,
			"byteOffset":9712,
			"target":34962
		},
		{
			"buffer":0,
			"byteLength":288,
			"byteOffset":10000,
			"target":34962
		},
		{
			"buffer":0,
			"byteLength":192,
			"byteOffset":10288,
			"target":34962
		},
		{
			"buffer":0,
			"byteLength":72,
			"byteOffset":10480,
			"target":34963
		},
		{
			"buffer":0,
			"byteLength":600,
			"byteOffset":10552,
			"target":34962
		},
		{
			"buffer":0,
			"byteLength":600,
			"byteOffset":11152,
			"target":34962
		},
		{
			"buffer":0,
			"byteLength":400,
			"byteOffset":11752,
			"target":34962
		},
		{
			"buffer":0,
			"byteLength":144,
			"byteOffset":12152,
			"target":34963
		},
		{
			"buffer":0,
			"byteLength":576,
			"byteOffset":12296,
			"target":34962
		},
		{
			"buffer":0,
			"byteLength":576,
			"byteOffset":12872,
			"target":34962
		},
		{
			"buffer":0,
			"byteLength":384,
			"byteOffset":13448,
			"target":34962
		},
		{
			"buffer":0,
			"byteLength":144,
			"byteOffset":13832,
			"target":34963
		},
		{
			"buffer":0,
			"byteLength":528,
			"byteOffset":13976,
			"target":34962
		},
		{
			"buffer":0,
			"byteLength":528,
			"byteOffset":14504,
			"target":34962
		},
		{
			"buffer":0,
			"byteLength":352,
			"byteOffset":15032,
			"target":34962
		},
		{
			"buffer":0,
			"byteLength":132,
			"byteOffset":15384,
			"target":34963
		},
		{
			"buffer":0,
			"byteLength":240,
			"byteOffset":15516,
			"target":34962
		},
		{
			"buffer":0,
			"byteLength":240,
			"byteOffset":15756,
			"target":34962
		},
		{
			"buffer":0,
			"byteLength":160,
			"byteOffset":15996,
			"target":34962
		},
		{
			"buffer":0,
			"byteLength":60,
			"byteOffset":16156,
			"target":34963
		}
	],
	"samplers":[
		{
			"magFilter":9729,
			"minFilter":9987
		}
	],
	"buffers":[
		{
			"byteLength":16216,
			"uri":"farol.bin"
		}
	]
}
