{
	"asset":{
		"copyright":"Equipo Camino de Cempas\u00fachil - FI UNAM",
		"generator":"Khronos glTF Blender I/O v5.2.40",
		"version":"2.0"
	},
	"scene":0,
	"scenes":[
		{
			"name":"Scene",
			"nodes":[
				2
			]
		}
	],
	"nodes":[
		{
			"mesh":0,
			"name":"cabeza",
			"translation":[
				0.00646797101944685,
				0.2199999988079071,
				0
			]
		},
		{
			"mesh":1,
			"name":"tallo"
		},
		{
			"children":[
				0,
				1
			],
			"name":"flor_cempasuchil"
		}
	],
	"materials":[
		{
			"doubleSided":true,
			"name":"cempasuchil_petalo",
			"pbrMetallicRoughness":{
				"baseColorTexture":{
					"index":0
				},
				"metallicFactor":0,
				"roughnessFactor":0.6499999761581421
			}
		},
		{
			"doubleSided":true,
			"name":"cempasuchil_verde",
			"pbrMetallicRoughness":{
				"baseColorFactor":[
					0.04970656707882881,
					0.1946178376674652,
					0.017641954123973846,
					1
				],
				"metallicFactor":0,
				"roughnessFactor":0.699999988079071
			}
		}
	],
	"meshes":[
		{
			"name":"cabeza",
			"primitives":[
				{
					"attributes":{
						"POSITION":0,
						"NORMAL":1,
						"TEXCOORD_0":2
					},
					"indices":3,
					"material":0
				}
			]
		},
		{
			"name":"tallo",
			"primitives":[
				{
					"attributes":{
						"POSITION":4,
						"NORMAL":5,
						"TEXCOORD_0":6
					},
					"indices":7,
					"material":1
				}
			]
		}
	],
	"textures":[
		{
			"sampler":0,
			"source":0
		}
	],
	"images":[
		{
			"mimeType":"image/png",
			"name":"petalo_cempasuchil.png",
			"uri":"../../textures/petalo_cempasuchil.png"
		}
	],
	"accessors":[
		{
			"bufferView":0,
			"componentType":5126,
			"count":254,
			"max":[
				0.06638123840093613,
				0.06462514400482178,
				0.06695106625556946
			],
			"min":[
				-0.06649833917617798,
				-0.008709214627742767,
				-0.0659281313419342
			],
			"type":"VEC3"
		},
		{
			"bufferView":1,
			"componentType":5126,
			"count":254,
			"type":"VEC3"
		},
		{
			"bufferView":2,
			"componentType":5126,
			"count":254,
			"type":"VEC2"
		},
		{
			"bufferView":3,
			"componentType":5123,
			"count":522,
			"type":"SCALAR"
		},
		{
			"bufferView":4,
			"componentType":5126,
			"count":71,
			"max":[
				0.06628410518169403,
				0.2240000069141388,
				0.02026292495429516
			],
			"min":[
				-0.057739872485399246,
				-0.00031718460377305746,
				-0.02189594879746437
			],
			"type":"VEC3"
		},
		{
			"bufferView":5,
			"componentType":5126,
			"count":71,
			"type":"VEC3"
		},
		{
			"bufferView":6,
			"componentType":5126,
			"count":71,
			"type":"VEC2"
		},
		{
			"bufferView":7,
			"componentType":5123,
			"count":234,
			"type":"SCALAR"
		}
	],
	"bufferViews":[
		{
			"buffer":0,
			"byteLength":3048,
			"byteOffset":0,
			"target":34962
		},
		{
			"buffer":0,
			"byteLength":3048,
			"byteOffset":3048,
			"target":34962
		},
		{
			"buffer":0,
			"byteLength":2032,
			"byteOffset":6096,
			"target":34962
		},
		{
			"buffer":0,
			"byteLength":1044,
			"byteOffset":8128,
			"target":34963
		},
		{
			"buffer":0,
			"byteLength":852,
			"byteOffset":9172,
			"target":34962
		},
		{
			"buffer":0,
			"byteLength":852,
			"byteOffset":10024,
			"target":34962
		},
		{
			"buffer":0,
			"byteLength":568,
			"byteOffset":10876,
			"target":34962
		},
		{
			"buffer":0,
			"byteLength":468,
			"byteOffset":11444,
			"target":34963
		}
	],
	"samplers":[
		{
			"magFilter":9729,
			"minFilter":9987
		}
	],
	"buffers":[
		{
			"byteLength":11912,
			"uri":"flor_cempasuchil.bin"
		}
	]
}
