{
	"asset":{
		"copyright":"Equipo Camino de Cempas\u00fachil - FI UNAM",
		"generator":"Khronos glTF Blender I/O v5.2.40",
		"version":"2.0"
	},
	"scene":0,
	"scenes":[
		{
			"name":"Scene",
			"nodes":[
				2
			]
		}
	],
	"nodes":[
		{
			"mesh":0,
			"name":"ala_derecha",
			"rotation":[
				0,
				0,
				-0.15643447637557983,
				0.987688422203064
			]
		},
		{
			"mesh":1,
			"name":"ala_izquierda",
			"rotation":[
				0,
				0,
				0.15643447637557983,
				0.987688422203064
			]
		},
		{
			"children":[
				0,
				1
			],
			"mesh":2,
			"name":"mariposa_monarca"
		}
	],
	"materials":[
		{
			"alphaMode":"MASK",
			"doubleSided":true,
			"name":"mariposa_alas",
			"pbrMetallicRoughness":{
				"baseColorTexture":{
					"index":0
				},
				"metallicFactor":0,
				"roughnessFactor":0.6000000238418579
			}
		},
		{
			"name":"mariposa_cuerpo",
			"pbrMetallicRoughness":{
				"baseColorFactor":[
					0.012983032502233982,
					0.01032982300966978,
					0.009134058840572834,
					1
				],
				"metallicFactor":0,
				"roughnessFactor":0.699999988079071
			}
		}
	],
	"meshes":[
		{
			"name":"ala_derecha",
			"primitives":[
				{
					"attributes":{
						"POSITION":0,
						"NORMAL":1,
						"TEXCOORD_0":2
					},
					"indices":3,
					"material":0
				}
			]
		},
		{
			"name":"ala_izquierda",
			"primitives":[
				{
					"attributes":{
						"POSITION":4,
						"NORMAL":5,
						"TEXCOORD_0":6
					},
					"indices":3,
					"material":0
				}
			]
		},
		{
			"name":"mariposa_monarca",
			"primitives":[
				{
					"attributes":{
						"POSITION":7,
						"NORMAL":8,
						"TEXCOORD_0":9
					},
					"indices":10,
					"material":1
				}
			]
		}
	],
	"textures":[
		{
			"sampler":0,
			"source":0
		}
	],
	"images":[
		{
			"mimeType":"image/png",
			"name":"mariposa_monarca.png",
			"uri":"../../textures/mariposa_monarca.png"
		}
	],
	"accessors":[
		{
			"bufferView":0,
			"componentType":5126,
			"count":8,
			"max":[
				0.052000001072883606,
				0,
				0.023499999195337296
			],
			"min":[
				0,
				0,
				-0.017999999225139618
			],
			"type":"VEC3"
		},
		{
			"bufferView":1,
			"componentType":5126,
			"count":8,
			"type":"VEC3"
		},
		{
			"bufferView":2,
			"componentType":5126,
			"count":8,
			"type":"VEC2"
		},
		{
			"bufferView":3,
			"componentType":5123,
			"count":12,
			"type":"SCALAR"
		},
		{
			"bufferView":4,
			"componentType":5126,
			"count":8,
			"max":[
				0,
				0,
				0.023499999195337296
			],
			"min":[
				-0.052000001072883606,
				0,
				-0.017999999225139618
			],
			"type":"VEC3"
		},
		{
			"bufferView":5,
			"componentType":5126,
			"count":8,
			"type":"VEC3"
		},
		{
			"bufferView":6,
			"componentType":5126,
			"count":8,
			"type":"VEC2"
		},
		{
			"bufferView":7,
			"componentType":5126,
			"count":90,
			"max":[
				0.009844222106039524,
				0.009741922840476036,
				0.024000000208616257
			],
			"min":[
				-0.009501412510871887,
				-0.00419999985024333,
				-0.040401820093393326
			],
			"type":"VEC3"
		},
		{
			"bufferView":8,
			"componentType":5126,
			"count":90,
			"type":"VEC3"
		},
		{
			"bufferView":9,
			"componentType":5126,
			"count":90,
			"type":"VEC2"
		},
		{
			"bufferView":10,
			"componentType":5123,
			"count":300,
			"type":"SCALAR"
		}
	],
	"bufferViews":[
		{
			"buffer":0,
			"byteLength":96,
			"byteOffset":0,
			"target":34962
		},
		{
			"buffer":0,
			"byteLength":96,
			"byteOffset":96,
			"target":34962
		},
		{
			"buffer":0,
			"byteLength":64,
			"byteOffset":192,
			"target":34962
		},
		{
			"buffer":0,
			"byteLength":24,
			"byteOffset":256,
			"target":34963
		},
		{
			"buffer":0,
			"byteLength":96,
			"byteOffset":280,
			"target":34962
		},
		{
			"buffer":0,
			"byteLength":96,
			"byteOffset":376,
			"target":34962
		},
		{
			"buffer":0,
			"byteLength":64,
			"byteOffset":472,
			"target":34962
		},
		{
			"buffer":0,
			"byteLength":1080,
			"byteOffset":536,
			"target":34962
		},
		{
			"buffer":0,
			"byteLength":1080,
			"byteOffset":1616,
			"target":34962
		},
		{
			"buffer":0,
			"byteLength":720,
			"byteOffset":2696,
			"target":34962
		},
		{
			"buffer":0,
			"byteLength":600,
			"byteOffset":3416,
			"target":34963
		}
	],
	"samplers":[
		{
			"magFilter":9729,
			"minFilter":9987
		}
	],
	"buffers":[
		{
			"byteLength":4016,
			"uri":"mariposa_monarca.bin"
		}
	]
}
