{
	"asset":{
		"copyright":"Equipo Camino de Cempas\u00fachil - FI UNAM",
		"generator":"Khronos glTF Blender I/O v5.2.40",
		"version":"2.0"
	},
	"scene":0,
	"scenes":[
		{
			"name":"Scene",
			"nodes":[
				0
			]
		}
	],
	"nodes":[
		{
			"mesh":0,
			"name":"pan_de_muerto"
		}
	],
	"materials":[
		{
			"name":"pan",
			"pbrMetallicRoughness":{
				"baseColorTexture":{
					"index":0
				},
				"metallicFactor":0,
				"roughnessFactor":0.75
			}
		}
	],
	"meshes":[
		{
			"name":"pan_de_muerto",
			"primitives":[
				{
					"attributes":{
						"POSITION":0,
						"NORMAL":1,
						"TEXCOORD_0":2
					},
					"indices":3,
					"material":0
				}
			]
		}
	],
	"textures":[
		{
			"sampler":0,
			"source":0
		}
	],
	"images":[
		{
			"mimeType":"image/png",
			"name":"pan_de_muerto.png",
			"uri":"../../textures/pan_de_muerto.png"
		}
	],
	"accessors":[
		{
			"bufferView":0,
			"componentType":5126,
			"count":450,
			"max":[
				0.10334236174821854,
				0.1080000028014183,
				0.10599999874830246
			],
			"min":[
				-0.10334236174821854,
				0,
				-0.10599999874830246
			],
			"type":"VEC3"
		},
		{
			"bufferView":1,
			"componentType":5126,
			"count":450,
			"type":"VEC3"
		},
		{
			"bufferView":2,
			"componentType":5126,
			"count":450,
			"type":"VEC2"
		},
		{
			"bufferView":3,
			"componentType":5123,
			"count":1860,
			"type":"SCALAR"
		}
	],
	"bufferViews":[
		{
			"buffer":0,
			"byteLength":5400,
			"byteOffset":0,
			"target":34962
		},
		{
			"buffer":0,
			"byteLength":5400,
			"byteOffset":5400,
			"target":34962
		},
		{
			"buffer":0,
			"byteLength":3600,
			"byteOffset":10800,
			"target":34962
		},
		{
			"buffer":0,
			"byteLength":3720,
			"byteOffset":14400,
			"target":34963
		}
	],
	"samplers":[
		{
			"magFilter":9729,
			"minFilter":9987
		}
	],
	"buffers":[
		{
			"byteLength":18120,
			"uri":"pan_de_muerto.bin"
		}
	]
}
