{
	"asset":{
		"copyright":"Equipo Camino de Cempas\u00fachil - FI UNAM",
		"generator":"Khronos glTF Blender I/O v5.2.40",
		"version":"2.0"
	},
	"scene":0,
	"scenes":[
		{
			"name":"Scene",
			"nodes":[
				8
			]
		}
	],
	"nodes":[
		{
			"mesh":0,
			"name":"bandera_1",
			"rotation":[
				0,
				0,
				0.051724959164857864,
				0.9986613988876343
			],
			"translation":[
				-1.3125,
				-0.04618750140070915,
				0
			]
		},
		{
			"mesh":1,
			"name":"bandera_2",
			"rotation":[
				0,
				0,
				0.03721389174461365,
				0.9993073344230652
			],
			"translation":[
				-0.9375,
				-0.11368750035762787,
				0
			]
		},
		{
			"mesh":2,
			"name":"bandera_3",
			"rotation":[
				0,
				0,
				0.02243766374886036,
				0.9997483491897583
			],
			"translation":[
				-0.5625,
				-0.1586875021457672,
				0
			]
		},
		{
			"mesh":3,
			"name":"bandera_4",
			"rotation":[
				0,
				0,
				0.007497682236135006,
				0.9999719858169556
			],
			"translation":[
				-0.1875,
				-0.1811874955892563,
				0
			]
		},
		{
			"mesh":4,
			"name":"bandera_5",
			"rotation":[
				0,
				0,
				-0.007497682236135006,
				0.9999719858169556
			],
			"translation":[
				0.1875,
				-0.1811874955892563,
				0
			]
		},
		{
			"mesh":5,
			"name":"bandera_6",
			"rotation":[
				0,
				0,
				-0.02243766374886036,
				0.9997483491897583
			],
			"translation":[
				0.5625,
				-0.1586875021457672,
				0
			]
		},
		{
			"mesh":6,
			"name":"bandera_7",
			"rotation":[
				0,
				0,
				-0.03721389174461365,
				0.9993073344230652
			],
			"translation":[
				0.9375,
				-0.11368750035762787,
				0
			]
		},
		{
			"mesh":7,
			"name":"bandera_8",
			"rotation":[
				0,
				0,
				-0.051724959164857864,
				0.9986613988876343
			],
			"translation":[
				1.3125,
				-0.04618750140070915,
				0
			]
		},
		{
			"children":[
				0,
				1,
				2,
				3,
				4,
				5,
				6,
				7
			],
			"mesh":8,
			"name":"papel_picado"
		}
	],
	"materials":[
		{
			"alphaMode":"MASK",
			"doubleSided":true,
			"name":"papel_rosa",
			"pbrMetallicRoughness":{
				"baseColorFactor":[
					0.7758222222328186,
					0,
					0.2015562504529953,
					1
				],
				"baseColorTexture":{
					"index":0
				},
				"metallicFactor":0,
				"roughnessFactor":0.8999999761581421
			}
		},
		{
			"alphaMode":"MASK",
			"doubleSided":true,
			"name":"papel_naranja",
			"pbrMetallicRoughness":{
				"baseColorFactor":[
					1,
					0.21223075687885284,
					0,
					1
				],
				"baseColorTexture":{
					"index":1
				},
				"metallicFactor":0,
				"roughnessFactor":0.8999999761581421
			}
		},
		{
			"alphaMode":"MASK",
			"doubleSided":true,
			"name":"papel_morado",
			"pbrMetallicRoughness":{
				"baseColorFactor":[
					0.19806931912899017,
					0.02518685907125473,
					0.520995557308197,
					1
				],
				"baseColorTexture":{
					"index":2
				},
				"metallicFactor":0,
				"roughnessFactor":0.8999999761581421
			}
		},
		{
			"alphaMode":"MASK",
			"doubleSided":true,
			"name":"papel_verde",
			"pbrMetallicRoughness":{
				"baseColorFactor":[
					0.024157632142305374,
					0.2917706370353699,
					0.06480326503515244,
					1
				],
				"baseColorTexture":{
					"index":3
				},
				"metallicFactor":0,
				"roughnessFactor":0.8999999761581421
			}
		},
		{
			"alphaMode":"MASK",
			"doubleSided":true,
			"name":"papel_amarillo",
			"pbrMetallicRoughness":{
				"baseColorFactor":[
					1,
					0.5457244515419006,
					0,
					1
				],
				"baseColorTexture":{
					"index":4
				},
				"metallicFactor":0,
				"roughnessFactor":0.8999999761581421
			}
		},
		{
			"alphaMode":"MASK",
			"doubleSided":true,
			"name":"papel_azul",
			"pbrMetallicRoughness":{
				"baseColorFactor":[
					0.012983032502233982,
					0.15896083414554596,
					0.6938717365264893,
					1
				],
				"baseColorTexture":{
					"index":5
				},
				"metallicFactor":0,
				"roughnessFactor":0.8999999761581421
			}
		},
		{
			"name":"cordel",
			"pbrMetallicRoughness":{
				"baseColorFactor":[
					0.68668532371521,
					0.5840784311294556,
					0.366252601146698,
					1
				],
				"metallicFactor":0,
				"roughnessFactor":0.8999999761581421
			}
		}
	],
	"meshes":[
		{
			"name":"bandera_1",
			"primitives":[
				{
					"attributes":{
						"POSITION":0,
						"NORMAL":1,
						"TEXCOORD_0":2
					},
					"indices":3,
					"material":0
				}
			]
		},
		{
			"name":"bandera_2",
			"primitives":[
				{
					"attributes":{
						"POSITION":4,
						"NORMAL":5,
						"TEXCOORD_0":6
					},
					"indices":3,
					"material":1
				}
			]
		},
		{
			"name":"bandera_3",
			"primitives":[
				{
					"attributes":{
						"POSITION":7,
						"NORMAL":8,
						"TEXCOORD_0":9
					},
					"indices":3,
					"material":2
				}
			]
		},
		{
			"name":"bandera_4",
			"primitives":[
				{
					"attributes":{
						"POSITION":10,
						"NORMAL":11,
						"TEXCOORD_0":12
					},
					"indices":3,
					"material":3
				}
			]
		},
		{
			"name":"bandera_5",
			"primitives":[
				{
					"attributes":{
						"POSITION":13,
						"NORMAL":14,
						"TEXCOORD_0":15
					},
					"indices":3,
					"material":4
				}
			]
		},
		{
			"name":"bandera_6",
			"primitives":[
				{
					"attributes":{
						"POSITION":16,
						"NORMAL":17,
						"TEXCOORD_0":18
					},
					"indices":3,
					"material":5
				}
			]
		},
		{
			"name":"bandera_7",
			"primitives":[
				{
					"attributes":{
						"POSITION":19,
						"NORMAL":20,
						"TEXCOORD_0":21
					},
					"indices":3,
					"material":0
				}
			]
		},
		{
			"name":"bandera_8",
			"primitives":[
				{
					"attributes":{
						"POSITION":22,
						"NORMAL":23,
						"TEXCOORD_0":24
					},
					"indices":3,
					"material":1
				}
			]
		},
		{
			"name":"papel_picado",
			"primitives":[
				{
					"attributes":{
						"POSITION":25,
						"NORMAL":26,
						"TEXCOORD_0":27
					},
					"indices":28,
					"material":6
				}
			]
		}
	],
	"textures":[
		{
			"sampler":0,
			"source":0
		},
		{
			"sampler":0,
			"source":0
		},
		{
			"sampler":0,
			"source":0
		},
		{
			"sampler":0,
			"source":0
		},
		{
			"sampler":0,
			"source":0
		},
		{
			"sampler":0,
			"source":0
		}
	],
	"images":[
		{
			"mimeType":"image/png",
			"name":"papel_picado.png",
			"uri":"../../textures/papel_picado.png"
		}
	],
	"accessors":[
		{
			"bufferView":0,
			"componentType":5126,
			"count":8,
			"max":[
				0.14000000059604645,
				0,
				0.012000000104308128
			],
			"min":[
				-0.14000000059604645,
				-0.3400000035762787,
				0
			],
			"type":"VEC3"
		},
		{
			"bufferView":1,
			"componentType":5126,
			"count":8,
			"type":"VEC3"
		},
		{
			"bufferView":2,
			"componentType":5126,
			"count":8,
			"type":"VEC2"
		},
		{
			"bufferView":3,
			"componentType":5123,
			"count":12,
			"type":"SCALAR"
		},
		{
			"bufferView":4,
			"componentType":5126,
			"count":8,
			"max":[
				0.14000000059604645,
				0,
				0.012000000104308128
			],
			"min":[
				-0.14000000059604645,
				-0.3400000035762787,
				0
			],
			"type":"VEC3"
		},
		{
			"bufferView":5,
			"componentType":5126,
			"count":8,
			"type":"VEC3"
		},
		{
			"bufferView":6,
			"componentType":5126,
			"count":8,
			"type":"VEC2"
		},
		{
			"bufferView":7,
			"componentType":5126,
			"count":8,
			"max":[
				0.14000000059604645,
				0,
				0.012000000104308128
			],
			"min":[
				-0.14000000059604645,
				-0.3400000035762787,
				0
			],
			"type":"VEC3"
		},
		{
			"bufferView":8,
			"componentType":5126,
			"count":8,
			"type":"VEC3"
		},
		{
			"bufferView":9,
			"componentType":5126,
			"count":8,
			"type":"VEC2"
		},
		{
			"bufferView":10,
			"componentType":5126,
			"count":8,
			"max":[
				0.14000000059604645,
				0,
				0.012000000104308128
			],
			"min":[
				-0.14000000059604645,
				-0.3400000035762787,
				0
			],
			"type":"VEC3"
		},
		{
			"bufferView":11,
			"componentType":5126,
			"count":8,
			"type":"VEC3"
		},
		{
			"bufferView":12,
			"componentType":5126,
			"count":8,
			"type":"VEC2"
		},
		{
			"bufferView":13,
			"componentType":5126,
			"count":8,
			"max":[
				0.14000000059604645,
				0,
				0.012000000104308128
			],
			"min":[
				-0.14000000059604645,
				-0.3400000035762787,
				0
			],
			"type":"VEC3"
		},
		{
			"bufferView":14,
			"componentType":5126,
			"count":8,
			"type":"VEC3"
		},
		{
			"bufferView":15,
			"componentType":5126,
			"count":8,
			"type":"VEC2"
		},
		{
			"bufferView":16,
			"componentType":5126,
			"count":8,
			"max":[
				0.14000000059604645,
				0,
				0.012000000104308128
			],
			"min":[
				-0.14000000059604645,
				-0.3400000035762787,
				0
			],
			"type":"VEC3"
		},
		{
			"bufferView":17,
			"componentType":5126,
			"count":8,
			"type":"VEC3"
		},
		{
			"bufferView":18,
			"componentType":5126,
			"count":8,
			"type":"VEC2"
		},
		{
			"bufferView":19,
			"componentType":5126,
			"count":8,
			"max":[
				0.14000000059604645,
				0,
				0.012000000104308128
			],
			"min":[
				-0.14000000059604645,
				-0.3400000035762787,
				0
			],
			"type":"VEC3"
		},
		{
			"bufferView":20,
			"componentType":5126,
			"count":8,
			"type":"VEC3"
		},
		{
			"bufferView":21,
			"componentType":5126,
			"count":8,
			"type":"VEC2"
		},
		{
			"bufferView":22,
			"componentType":5126,
			"count":8,
			"max":[
				0.14000000059604645,
				0,
				0.012000000104308128
			],
			"min":[
				-0.14000000059604645,
				-0.3400000035762787,
				0
			],
			"type":"VEC3"
		},
		{
			"bufferView":23,
			"componentType":5126,
			"count":8,
			"type":"VEC3"
		},
		{
			"bufferView":24,
			"componentType":5126,
			"count":8,
			"type":"VEC2"
		},
		{
			"bufferView":25,
			"componentType":5126,
			"count":264,
			"max":[
				1.5006585121154785,
				0.0029268295038491488,
				0.003000000026077032
			],
			"min":[
				-1.5006585121154785,
				-0.18300001323223114,
				-0.003000000026077032
			],
			"type":"VEC3"
		},
		{
			"bufferView":26,
			"componentType":5126,
			"count":264,
			"type":"VEC3"
		},
		{
			"bufferView":27,
			"componentType":5126,
			"count":264,
			"type":"VEC2"
		},
		{
			"bufferView":28,
			"componentType":5123,
			"count":396,
			"type":"SCALAR"
		}
	],
	"bufferViews":[
		{
			"buffer":0,
			"byteLength":96,
			"byteOffset":0,
			"target":34962
		},
		{
			"buffer":0,
			"byteLength":96,
			"byteOffset":96,
			"target":34962
		},
		{
			"buffer":0,
			"byteLength":64,
			"byteOffset":192,
			"target":34962
		},
		{
			"buffer":0,
			"byteLength":24,
			"byteOffset":256,
			"target":34963
		},
		{
			"buffer":0,
			"byteLength":96,
			"byteOffset":280,
			"target":34962
		},
		{
			"buffer":0,
			"byteLength":96,
			"byteOffset":376,
			"target":34962
		},
		{
			"buffer":0,
			"byteLength":64,
			"byteOffset":472,
			"target":34962
		},
		{
			"buffer":0,
			"byteLength":96,
			"byteOffset":536,
			"target":34962
		},
		{
			"buffer":0,
			"byteLength":96,
			"byteOffset":632,
			"target":34962
		},
		{
			"buffer":0,
			"byteLength":64,
			"byteOffset":728,
			"target":34962
		},
		{
			"buffer":0,
			"byteLength":96,
			"byteOffset":792,
			"target":34962
		},
		{
			"buffer":0,
			"byteLength":96,
			"byteOffset":888,
			"target":34962
		},
		{
			"buffer":0,
			"byteLength":64,
			"byteOffset":984,
			"target":34962
		},
		{
			"buffer":0,
			"byteLength":96,
			"byteOffset":1048,
			"target":34962
		},
		{
			"buffer":0,
			"byteLength":96,
			"byteOffset":1144,
			"target":34962
		},
		{
			"buffer":0,
			"byteLength":64,
			"byteOffset":1240,
			"target":34962
		},
		{
			"buffer":0,
			"byteLength":96,
			"byteOffset":1304,
			"target":34962
		},
		{
			"buffer":0,
			"byteLength":96,
			"byteOffset":1400,
			"target":34962
		},
		{
			"buffer":0,
			"byteLength":64,
			"byteOffset":1496,
			"target":34962
		},
		{
			"buffer":0,
			"byteLength":96,
			"byteOffset":1560,
			"target":34962
		},
		{
			"buffer":0,
			"byteLength":96,
			"byteOffset":1656,
			"target":34962
		},
		{
			"buffer":0,
			"byteLength":64,
			"byteOffset":1752,
			"target":34962
		},
		{
			"buffer":0,
			"byteLength":96,
			"byteOffset":1816,
			"target":34962
		},
		{
			"buffer":0,
			"byteLength":96,
			"byteOffset":1912,
			"target":34962
		},
		{
			"buffer":0,
			"byteLength":64,
			"byteOffset":2008,
			"target":34962
		},
		{
			"buffer":0,
			"byteLength":3168,
			"byteOffset":2072,
			"target":34962
		},
		{
			"buffer":0,
			"byteLength":3168,
			"byteOffset":5240,
			"target":34962
		},
		{
			"buffer":0,
			"byteLength":2112,
			"byteOffset":8408,
			"target":34962
		},
		{
			"buffer":0,
			"byteLength":792,
			"byteOffset":10520,
			"target":34963
		}
	],
	"samplers":[
		{
			"magFilter":9729,
			"minFilter":9987
		}
	],
	"buffers":[
		{
			"byteLength":11312,
			"uri":"papel_picado.bin"
		}
	]
}
