{
	"asset":{
		"copyright":"Equipo Camino de Cempas\u00fachil - FI UNAM",
		"generator":"Khronos glTF Blender I/O v5.2.40",
		"version":"2.0"
	},
	"scene":0,
	"scenes":[
		{
			"name":"Scene",
			"nodes":[
				3
			]
		}
	],
	"nodes":[
		{
			"mesh":0,
			"name":"foto"
		},
		{
			"children":[
				0
			],
			"mesh":1,
			"name":"marco",
			"rotation":[
				-0.10452848672866821,
				0,
				0,
				0.994521975517273
			]
		},
		{
			"mesh":2,
			"name":"pata",
			"rotation":[
				0.24192194640636444,
				0,
				0,
				0.9702957272529602
			],
			"translation":[
				0,
				0,
				-0.12999999523162842
			]
		},
		{
			"children":[
				1,
				2
			],
			"name":"portarretrato"
		}
	],
	"materials":[
		{
			"name":"foto",
			"pbrMetallicRoughness":{
				"baseColorTexture":{
					"index":0
				},
				"metallicFactor":0,
				"roughnessFactor":0.4000000059604645
			}
		},
		{
			"name":"hojalata_dorada",
			"pbrMetallicRoughness":{
				"baseColorFactor":[
					0.7454041838645935,
					0.43415364623069763,
					0.06847816705703735,
					1
				],
				"baseColorTexture":{
					"index":1
				},
				"metallicFactor":0.800000011920929,
				"roughnessFactor":0.3499999940395355
			}
		},
		{
			"name":"carton",
			"pbrMetallicRoughness":{
				"baseColorFactor":[
					0.14702726900577545,
					0.07818742096424103,
					0.03560131415724754,
					1
				],
				"metallicFactor":0,
				"roughnessFactor":0.949999988079071
			}
		}
	],
	"meshes":[
		{
			"name":"foto",
			"primitives":[
				{
					"attributes":{
						"POSITION":0,
						"NORMAL":1,
						"TEXCOORD_0":2
					},
					"indices":3,
					"material":0
				}
			]
		},
		{
			"name":"marco",
			"primitives":[
				{
					"attributes":{
						"POSITION":4,
						"NORMAL":5,
						"TEXCOORD_0":6
					},
					"indices":7,
					"material":1
				},
				{
					"attributes":{
						"POSITION":8,
						"NORMAL":9,
						"TEXCOORD_0":10
					},
					"indices":11,
					"material":2
				}
			]
		},
		{
			"name":"pata",
			"primitives":[
				{
					"attributes":{
						"POSITION":12,
						"NORMAL":13,
						"TEXCOORD_0":14
					},
					"indices":15,
					"material":2
				}
			]
		}
	],
	"textures":[
		{
			"sampler":0,
			"source":0
		},
		{
			"sampler":0,
			"source":1
		}
	],
	"images":[
		{
			"mimeType":"image/png",
			"name":"foto_retrato.png",
			"uri":"../../textures/foto_retrato.png"
		},
		{
			"mimeType":"image/png",
			"name":"hojalata.png",
			"uri":"../../textures/hojalata.png"
		}
	],
	"accessors":[
		{
			"bufferView":0,
			"componentType":5126,
			"count":4,
			"max":[
				0.07400000095367432,
				0.23399999737739563,
				-0.00989999994635582
			],
			"min":[
				-0.07400000095367432,
				0.026000000536441803,
				-0.00989999994635582
			],
			"type":"VEC3"
		},
		{
			"bufferView":1,
			"componentType":5126,
			"count":4,
			"type":"VEC3"
		},
		{
			"bufferView":2,
			"componentType":5126,
			"count":4,
			"type":"VEC2"
		},
		{
			"bufferView":3,
			"componentType":5123,
			"count":6,
			"type":"SCALAR"
		},
		{
			"bufferView":4,
			"componentType":5126,
			"count":80,
			"max":[
				0.10000000149011612,
				0.25999999046325684,
				0
			],
			"min":[
				-0.10000000149011612,
				0,
				-0.017999999225139618
			],
			"type":"VEC3"
		},
		{
			"bufferView":5,
			"componentType":5126,
			"count":80,
			"type":"VEC3"
		},
		{
			"bufferView":6,
			"componentType":5126,
			"count":80,
			"type":"VEC2"
		},
		{
			"bufferView":7,
			"componentType":5123,
			"count":120,
			"type":"SCALAR"
		},
		{
			"bufferView":8,
			"componentType":5126,
			"count":8,
			"max":[
				0.07400000095367432,
				0.23399999737739563,
				-0.01080000028014183
			],
			"min":[
				-0.07400000095367432,
				0.026000000536441803,
				-0.012799999676644802
			],
			"type":"VEC3"
		},
		{
			"bufferView":9,
			"componentType":5126,
			"count":8,
			"type":"VEC3"
		},
		{
			"bufferView":10,
			"componentType":5126,
			"count":8,
			"type":"VEC2"
		},
		{
			"bufferView":11,
			"componentType":5123,
			"count":12,
			"type":"SCALAR"
		},
		{
			"bufferView":12,
			"componentType":5126,
			"count":24,
			"max":[
				0.019999999552965164,
				0.20000000298023224,
				0
			],
			"min":[
				-0.019999999552965164,
				0,
				-0.006000000052154064
			],
			"type":"VEC3"
		},
		{
			"bufferView":13,
			"componentType":5126,
			"count":24,
			"type":"VEC3"
		},
		{
			"bufferView":14,
			"componentType":5126,
			"count":24,
			"type":"VEC2"
		},
		{
			"bufferView":15,
			"componentType":5123,
			"count":36,
			"type":"SCALAR"
		}
	],
	"bufferViews":[
		{
			"buffer":0,
			"byteLength":48,
			"byteOffset":0,
			"target":34962
		},
		{
			"buffer":0,
			"byteLength":48,
			"byteOffset":48,
			"target":34962
		},
		{
			"buffer":0,
			"byteLength":32,
			"byteOffset":96,
			"target":34962
		},
		{
			"buffer":0,
			"byteLength":12,
			"byteOffset":128,
			"target":34963
		},
		{
			"buffer":0,
			"byteLength":960,
			"byteOffset":140,
			"target":34962
		},
		{
			"buffer":0,
			"byteLength":960,
			"byteOffset":1100,
			"target":34962
		},
		{
			"buffer":0,
			"byteLength":640,
			"byteOffset":2060,
			"target":34962
		},
		{
			"buffer":0,
			"byteLength":240,
			"byteOffset":2700,
			"target":34963
		},
		{
			"buffer":0,
			"byteLength":96,
			"byteOffset":2940,
			"target":34962
		},
		{
			"buffer":0,
			"byteLength":96,
			"byteOffset":3036,
			"target":34962
		},
		{
			"buffer":0,
			"byteLength":64,
			"byteOffset":3132,
			"target":34962
		},
		{
			"buffer":0,
			"byteLength":24,
			"byteOffset":3196,
			"target":34963
		},
		{
			"buffer":0,
			"byteLength":288,
			"byteOffset":3220,
			"target":34962
		},
		{
			"buffer":0,
			"byteLength":288,
			"byteOffset":3508,
			"target":34962
		},
		{
			"buffer":0,
			"byteLength":192,
			"byteOffset":3796,
			"target":34962
		},
		{
			"buffer":0,
			"byteLength":72,
			"byteOffset":3988,
			"target":34963
		}
	],
	"samplers":[
		{
			"magFilter":9729,
			"minFilter":9987
		}
	],
	"buffers":[
		{
			"byteLength":4060,
			"uri":"portarretrato.bin"
		}
	]
}
