{
	"asset":{
		"generator":"Khronos glTF Blender I/O v5.2.40",
		"version":"2.0"
	},
	"scene":0,
	"scenes":[
		{
			"name":"Scene",
			"nodes":[
				7,
				8,
				9,
				10,
				11,
				15,
				16,
				17,
				18,
				26,
				30
			]
		}
	],
	"nodes":[
		{
			"mesh":0,
			"name":"SM_SkeletonCartoon",
			"translation":[
				-0.2671581208705902,
				12.56100845336914,
				84.39168548583984
			]
		},
		{
			"mesh":1,
			"name":"SM_SkeletonCartoon.002",
			"translation":[
				-0.2671584486961365,
				12.56100845336914,
				76.72676849365234
			]
		},
		{
			"mesh":2,
			"name":"SM_SkeletonCartoon.003",
			"translation":[
				-0.2671605050563812,
				5.4028825759887695,
				41.649742126464844
			]
		},
		{
			"mesh":3,
			"name":"SM_SkeletonCartoon.009",
			"translation":[
				-0.26716122031211853,
				-4.312702655792236,
				42.046600341796875
			]
		},
		{
			"mesh":4,
			"name":"SM_SkeletonCartoon.012",
			"translation":[
				-0.2671588659286499,
				-1.8235583305358887,
				92.17711639404297
			]
		},
		{
			"mesh":5,
			"name":"SM_SkeletonCartoon.014",
			"translation":[
				-0.26715928316116333,
				-1.8235665559768677,
				82.14678192138672
			]
		},
		{
			"mesh":6,
			"name":"SM_SkeletonCartoon.015",
			"translation":[
				-0.059029821306467056,
				-0.46954870223999023,
				70.40518951416016
			]
		},
		{
			"children":[
				0,
				1,
				2,
				3,
				4,
				5,
				6
			],
			"mesh":7,
			"name":"SM_SkeletonCartoon.001",
			"rotation":[
				0.5,
				-0.5,
				-0.5,
				0.5000000596046448
			],
			"scale":[
				0.009999999776482582,
				0.009999999776482582,
				0.009999999776482582
			],
			"translation":[
				-0.7272611856460571,
				1.6086595058441162,
				0.02826368622481823
			]
		},
		{
			"mesh":8,
			"name":"SM_SkeletonCartoon.005",
			"rotation":[
				0.7071068286895752,
				0,
				0,
				0.7071068286895752
			],
			"scale":[
				0.009999999776482582,
				0.009999999776482582,
				0.009999999776482582
			],
			"translation":[
				-0.00031691938056610525,
				1.4082154035568237,
				-0.014583912678062916
			]
		},
		{
			"mesh":9,
			"name":"SM_SkeletonCartoon.006",
			"rotation":[
				0.7071068286895752,
				0,
				0,
				0.7071068286895752
			],
			"scale":[
				0.009999999776482582,
				0.009999999776482582,
				0.009999999776482582
			],
			"translation":[
				0,
				1.8249520063400269,
				-0.26487311720848083
			]
		},
		{
			"mesh":10,
			"name":"SM_SkeletonCartoon.007",
			"rotation":[
				0.7071068286895752,
				0,
				0,
				0.7071068286895752
			],
			"scale":[
				0.009999999776482582,
				0.009999999776482582,
				0.009999999776482582
			],
			"translation":[
				0,
				0.9913205504417419,
				-0.27473145723342896
			]
		},
		{
			"mesh":11,
			"name":"SM_SkeletonCartoon.008",
			"rotation":[
				0.7071068286895752,
				0,
				0,
				0.7071068286895752
			],
			"scale":[
				0.009999999776482582,
				0.009999999776482582,
				0.009999999776482582
			],
			"translation":[
				0,
				2.2327141761779785,
				0.1565430909395218
			]
		},
		{
			"mesh":12,
			"name":"SM_SkeletonCartoon.004",
			"translation":[
				0.5699615478515625,
				-2.829531467796187e-06,
				30.579280853271484
			]
		},
		{
			"mesh":13,
			"name":"SM_SkeletonCartoon.011",
			"translation":[
				0.7050285339355469,
				13.930976867675781,
				17.229877471923828
			]
		},
		{
			"mesh":14,
			"name":"SM_SkeletonCartoon.017",
			"translation":[
				0.6609210968017578,
				10.70909595489502,
				50.791107177734375
			]
		},
		{
			"children":[
				12,
				13,
				14
			],
			"mesh":15,
			"name":"SM_SkeletonCartoon.010",
			"rotation":[
				0.7071068286895752,
				0,
				0,
				0.7071068286895752
			],
			"scale":[
				0.009999999776482582,
				0.009999999776482582,
				0.009999999776482582
			],
			"translation":[
				-0.23826074600219727,
				0.5626000165939331,
				-0.08223913609981537
			]
		},
		{
			"mesh":16,
			"name":"SM_SkeletonCartoon.013",
			"rotation":[
				0.7071068286895752,
				0,
				0,
				0.7071068286895752
			],
			"scale":[
				0.009999999776482582,
				0.009999999776482582,
				0.009999999776482582
			],
			"translation":[
				-0.2990659773349762,
				1.577263355255127,
				-0.28442487120628357
			]
		},
		{
			"mesh":17,
			"name":"SM_SkeletonCartoon.016",
			"rotation":[
				0.7071068286895752,
				0,
				0,
				0.7071068286895752
			],
			"scale":[
				0.009999999776482582,
				0.009999999776482582,
				0.009999999776482582
			],
			"translation":[
				0,
				0.8712384104728699,
				-0.060306161642074585
			]
		},
		{
			"mesh":18,
			"name":"SM_SkeletonCartoon.019",
			"rotation":[
				0.7071068286895752,
				0,
				0,
				0.7071068286895752
			],
			"scale":[
				0.009999999776482582,
				0.009999999776482582,
				0.009999999776482582
			],
			"translation":[
				0.2990659773349762,
				1.577263355255127,
				-0.28442487120628357
			]
		},
		{
			"mesh":19,
			"name":"SM_SkeletonCartoon.021",
			"translation":[
				0.26715928316116333,
				-1.8235665559768677,
				82.14678192138672
			]
		},
		{
			"mesh":20,
			"name":"SM_SkeletonCartoon.022",
			"translation":[
				0.059029821306467056,
				-0.46954870223999023,
				70.40518951416016
			]
		},
		{
			"mesh":21,
			"name":"SM_SkeletonCartoon.023",
			"translation":[
				0.2671581208705902,
				12.561007499694824,
				84.39167022705078
			]
		},
		{
			"mesh":22,
			"name":"SM_SkeletonCartoon.024",
			"translation":[
				0.26716122031211853,
				-4.312702655792236,
				42.046600341796875
			]
		},
		{
			"mesh":23,
			"name":"SM_SkeletonCartoon.027",
			"translation":[
				0.2671588659286499,
				-1.8235583305358887,
				92.17711639404297
			]
		},
		{
			"mesh":24,
			"name":"SM_SkeletonCartoon.028",
			"translation":[
				0.2671584486961365,
				12.56100845336914,
				76.72676849365234
			]
		},
		{
			"mesh":25,
			"name":"SM_SkeletonCartoon.030",
			"translation":[
				0.2671605050563812,
				5.4028825759887695,
				41.649742126464844
			]
		},
		{
			"children":[
				19,
				20,
				21,
				22,
				23,
				24,
				25
			],
			"mesh":26,
			"name":"SM_SkeletonCartoon.025",
			"rotation":[
				0.5,
				0.5,
				0.5,
				0.5000000596046448
			],
			"scale":[
				0.009999999776482582,
				0.009999999776482582,
				0.009999999776482582
			],
			"translation":[
				0.7272611856460571,
				1.6086595058441162,
				0.02826368622481823
			]
		},
		{
			"mesh":27,
			"name":"SM_SkeletonCartoon.018",
			"translation":[
				-0.6609210968017578,
				10.70909595489502,
				50.791107177734375
			]
		},
		{
			"mesh":28,
			"name":"SM_SkeletonCartoon.020",
			"translation":[
				-0.7050285339355469,
				13.930976867675781,
				17.229877471923828
			]
		},
		{
			"mesh":29,
			"name":"SM_SkeletonCartoon.029",
			"translation":[
				-0.5699615478515625,
				-2.829531467796187e-06,
				30.579280853271484
			]
		},
		{
			"children":[
				27,
				28,
				29
			],
			"mesh":30,
			"name":"SM_SkeletonCartoon.026",
			"rotation":[
				0.7071068286895752,
				0,
				0,
				0.7071068286895752
			],
			"scale":[
				0.009999999776482582,
				0.009999999776482582,
				0.009999999776482582
			],
			"translation":[
				0.23826074600219727,
				0.5626000165939331,
				-0.08223913609981537
			]
		}
	],
	"materials":[
		{
			"doubleSided":true,
			"name":"SkeletonCartoon_M",
			"pbrMetallicRoughness":{
				"metallicFactor":0,
				"roughnessFactor":0.5
			}
		}
	],
	"meshes":[
		{
			"name":"Mesh",
			"primitives":[
				{
					"attributes":{
						"POSITION":0,
						"NORMAL":1,
						"TEXCOORD_0":2
					},
					"indices":3,
					"material":0
				}
			]
		},
		{
			"name":"Mesh.002",
			"primitives":[
				{
					"attributes":{
						"POSITION":4,
						"NORMAL":5,
						"TEXCOORD_0":6
					},
					"indices":7,
					"material":0
				}
			]
		},
		{
			"name":"Mesh.003",
			"primitives":[
				{
					"attributes":{
						"POSITION":8,
						"NORMAL":9,
						"TEXCOORD_0":10
					},
					"indices":11,
					"material":0
				}
			]
		},
		{
			"name":"Mesh.009",
			"primitives":[
				{
					"attributes":{
						"POSITION":12,
						"NORMAL":13,
						"TEXCOORD_0":14
					},
					"indices":11,
					"material":0
				}
			]
		},
		{
			"name":"Mesh.012",
			"primitives":[
				{
					"attributes":{
						"POSITION":15,
						"NORMAL":16,
						"TEXCOORD_0":17
					},
					"indices":18,
					"material":0
				}
			]
		},
		{
			"name":"Mesh.014",
			"primitives":[
				{
					"attributes":{
						"POSITION":19,
						"NORMAL":20,
						"TEXCOORD_0":21
					},
					"indices":22,
					"material":0
				}
			]
		},
		{
			"name":"Mesh.015",
			"primitives":[
				{
					"attributes":{
						"POSITION":23,
						"NORMAL":24,
						"TEXCOORD_0":25
					},
					"indices":26,
					"material":0
				}
			]
		},
		{
			"name":"Mesh.001",
			"primitives":[
				{
					"attributes":{
						"POSITION":27,
						"NORMAL":28,
						"TEXCOORD_0":29
					},
					"indices":30,
					"material":0
				}
			]
		},
		{
			"name":"Mesh.005",
			"primitives":[
				{
					"attributes":{
						"POSITION":31,
						"NORMAL":32,
						"TEXCOORD_0":33
					},
					"indices":34,
					"material":0
				}
			]
		},
		{
			"name":"Mesh.006",
			"primitives":[
				{
					"attributes":{
						"POSITION":35,
						"NORMAL":36,
						"TEXCOORD_0":37
					},
					"indices":38,
					"material":0
				}
			]
		},
		{
			"name":"Mesh.007",
			"primitives":[
				{
					"attributes":{
						"POSITION":39,
						"NORMAL":40,
						"TEXCOORD_0":41
					},
					"indices":38,
					"material":0
				}
			]
		},
		{
			"name":"Mesh.008",
			"primitives":[
				{
					"attributes":{
						"POSITION":42,
						"NORMAL":43,
						"TEXCOORD_0":44
					},
					"indices":45,
					"material":0
				}
			]
		},
		{
			"name":"Mesh.004",
			"primitives":[
				{
					"attributes":{
						"POSITION":46,
						"NORMAL":47,
						"TEXCOORD_0":48
					},
					"indices":49,
					"material":0
				}
			]
		},
		{
			"name":"Mesh.011",
			"primitives":[
				{
					"attributes":{
						"POSITION":50,
						"NORMAL":51,
						"TEXCOORD_0":52
					},
					"indices":53,
					"material":0
				}
			]
		},
		{
			"name":"Mesh.017",
			"primitives":[
				{
					"attributes":{
						"POSITION":54,
						"NORMAL":55,
						"TEXCOORD_0":56
					},
					"indices":57,
					"material":0
				}
			]
		},
		{
			"name":"Mesh.010",
			"primitives":[
				{
					"attributes":{
						"POSITION":58,
						"NORMAL":59,
						"TEXCOORD_0":60
					},
					"indices":11,
					"material":0
				}
			]
		},
		{
			"name":"Mesh.013",
			"primitives":[
				{
					"attributes":{
						"POSITION":61,
						"NORMAL":62,
						"TEXCOORD_0":63
					},
					"indices":64,
					"material":0
				}
			]
		},
		{
			"name":"Mesh.016",
			"primitives":[
				{
					"attributes":{
						"POSITION":65,
						"NORMAL":66,
						"TEXCOORD_0":67
					},
					"indices":68,
					"material":0
				}
			]
		},
		{
			"name":"Mesh.019",
			"primitives":[
				{
					"attributes":{
						"POSITION":69,
						"NORMAL":70,
						"TEXCOORD_0":71
					},
					"indices":72,
					"material":0
				}
			]
		},
		{
			"name":"Mesh.021",
			"primitives":[
				{
					"attributes":{
						"POSITION":73,
						"NORMAL":74,
						"TEXCOORD_0":75
					},
					"indices":76,
					"material":0
				}
			]
		},
		{
			"name":"Mesh.022",
			"primitives":[
				{
					"attributes":{
						"POSITION":77,
						"NORMAL":78,
						"TEXCOORD_0":79
					},
					"indices":80,
					"material":0
				}
			]
		},
		{
			"name":"Mesh.023",
			"primitives":[
				{
					"attributes":{
						"POSITION":81,
						"NORMAL":82,
						"TEXCOORD_0":83
					},
					"indices":84,
					"material":0
				}
			]
		},
		{
			"name":"Mesh.024",
			"primitives":[
				{
					"attributes":{
						"POSITION":85,
						"NORMAL":86,
						"TEXCOORD_0":87
					},
					"indices":88,
					"material":0
				}
			]
		},
		{
			"name":"Mesh.027",
			"primitives":[
				{
					"attributes":{
						"POSITION":89,
						"NORMAL":90,
						"TEXCOORD_0":91
					},
					"indices":92,
					"material":0
				}
			]
		},
		{
			"name":"Mesh.028",
			"primitives":[
				{
					"attributes":{
						"POSITION":93,
						"NORMAL":94,
						"TEXCOORD_0":95
					},
					"indices":84,
					"material":0
				}
			]
		},
		{
			"name":"Mesh.030",
			"primitives":[
				{
					"attributes":{
						"POSITION":96,
						"NORMAL":97,
						"TEXCOORD_0":98
					},
					"indices":88,
					"material":0
				}
			]
		},
		{
			"name":"Mesh.025",
			"primitives":[
				{
					"attributes":{
						"POSITION":99,
						"NORMAL":100,
						"TEXCOORD_0":101
					},
					"indices":102,
					"material":0
				}
			]
		},
		{
			"name":"Mesh.018",
			"primitives":[
				{
					"attributes":{
						"POSITION":103,
						"NORMAL":104,
						"TEXCOORD_0":105
					},
					"indices":106,
					"material":0
				}
			]
		},
		{
			"name":"Mesh.020",
			"primitives":[
				{
					"attributes":{
						"POSITION":107,
						"NORMAL":108,
						"TEXCOORD_0":109
					},
					"indices":110,
					"material":0
				}
			]
		},
		{
			"name":"Mesh.029",
			"primitives":[
				{
					"attributes":{
						"POSITION":111,
						"NORMAL":112,
						"TEXCOORD_0":113
					},
					"indices":114,
					"material":0
				}
			]
		},
		{
			"name":"Mesh.026",
			"primitives":[
				{
					"attributes":{
						"POSITION":115,
						"NORMAL":116,
						"TEXCOORD_0":117
					},
					"indices":88,
					"material":0
				}
			]
		}
	],
	"accessors":[
		{
			"bufferView":0,
			"componentType":5126,
			"count":50,
			"max":[
				3.397796630859375,
				3.397798538208008,
				3.5432891845703125
			],
			"min":[
				-3.397808074951172,
				-3.3978028297424316,
				-3.690998077392578
			],
			"type":"VEC3"
		},
		{
			"bufferView":1,
			"componentType":5126,
			"count":50,
			"type":"VEC3"
		},
		{
			"bufferView":2,
			"componentType":5126,
			"count":50,
			"type":"VEC2"
		},
		{
			"bufferView":3,
			"componentType":5123,
			"count":288,
			"type":"SCALAR"
		},
		{
			"bufferView":4,
			"componentType":5126,
			"count":50,
			"max":[
				4.073333740234375,
				4.0733418464660645,
				4.247753143310547
			],
			"min":[
				-4.073329925537109,
				-4.073339462280273,
				-4.4248046875
			],
			"type":"VEC3"
		},
		{
			"bufferView":5,
			"componentType":5126,
			"count":50,
			"type":"VEC3"
		},
		{
			"bufferView":6,
			"componentType":5126,
			"count":50,
			"type":"VEC2"
		},
		{
			"bufferView":7,
			"componentType":5123,
			"count":288,
			"type":"SCALAR"
		},
		{
			"bufferView":8,
			"componentType":5126,
			"count":82,
			"max":[
				5.119403839111328,
				5.38287878036499,
				20.268218994140625
			],
			"min":[
				-5.119380950927734,
				-4.8548383712768555,
				-21.174362182617188
			],
			"type":"VEC3"
		},
		{
			"bufferView":9,
			"componentType":5126,
			"count":82,
			"type":"VEC3"
		},
		{
			"bufferView":10,
			"componentType":5126,
			"count":82,
			"type":"VEC2"
		},
		{
			"bufferView":11,
			"componentType":5123,
			"count":480,
			"type":"SCALAR"
		},
		{
			"bufferView":12,
			"componentType":5126,
			"count":82,
			"max":[
				6.806163787841797,
				6.5158281326293945,
				21.158416748046875
			],
			"min":[
				-6.806148529052734,
				-7.538244247436523,
				-22.124305725097656
			],
			"type":"VEC3"
		},
		{
			"bufferView":13,
			"componentType":5126,
			"count":82,
			"type":"VEC3"
		},
		{
			"bufferView":14,
			"componentType":5126,
			"count":82,
			"type":"VEC2"
		},
		{
			"bufferView":15,
			"componentType":5126,
			"count":42,
			"max":[
				3.1536331176757812,
				8.831698417663574,
				4.737876892089844
			],
			"min":[
				-3.153636932373047,
				-8.831686973571777,
				-5.358600616455078
			],
			"type":"VEC3"
		},
		{
			"bufferView":16,
			"componentType":5126,
			"count":42,
			"type":"VEC3"
		},
		{
			"bufferView":17,
			"componentType":5126,
			"count":42,
			"type":"VEC2"
		},
		{
			"bufferView":18,
			"componentType":5123,
			"count":240,
			"type":"SCALAR"
		},
		{
			"bufferView":19,
			"componentType":5126,
			"count":42,
			"max":[
				3.7806129455566406,
				10.656768798828125,
				5.589733123779297
			],
			"min":[
				-3.7806358337402344,
				-10.656758308410645,
				-5.533237457275391
			],
			"type":"VEC3"
		},
		{
			"bufferView":20,
			"componentType":5126,
			"count":42,
			"type":"VEC3"
		},
		{
			"bufferView":21,
			"componentType":5126,
			"count":42,
			"type":"VEC2"
		},
		{
			"bufferView":22,
			"componentType":5123,
			"count":240,
			"type":"SCALAR"
		},
		{
			"bufferView":23,
			"componentType":5126,
			"count":42,
			"max":[
				7.459873199462891,
				13.895163536071777,
				7.634876251220703
			],
			"min":[
				-7.4598846435546875,
				-12.968255996704102,
				-10.253677368164062
			],
			"type":"VEC3"
		},
		{
			"bufferView":24,
			"componentType":5126,
			"count":42,
			"type":"VEC3"
		},
		{
			"bufferView":25,
			"componentType":5126,
			"count":42,
			"type":"VEC2"
		},
		{
			"bufferView":26,
			"componentType":5123,
			"count":240,
			"type":"SCALAR"
		},
		{
			"bufferView":27,
			"componentType":5126,
			"count":98,
			"max":[
				10.162322998046875,
				10.162333488464355,
				22.400413513183594
			],
			"min":[
				-10.162345886230469,
				-10.16232681274414,
				-26.574920654296875
			],
			"type":"VEC3"
		},
		{
			"bufferView":28,
			"componentType":5126,
			"count":98,
			"type":"VEC3"
		},
		{
			"bufferView":29,
			"componentType":5126,
			"count":98,
			"type":"VEC2"
		},
		{
			"bufferView":30,
			"componentType":5123,
			"count":576,
			"type":"SCALAR"
		},
		{
			"bufferView":31,
			"componentType":5126,
			"count":500,
			"max":[
				45.041961669921875,
				34.56362533569336,
				35.15657043457031
			],
			"min":[
				-44.97857666015625,
				-37.512516021728516,
				-33.53321838378906
			],
			"type":"VEC3"
		},
		{
			"bufferView":32,
			"componentType":5126,
			"count":500,
			"type":"VEC3"
		},
		{
			"bufferView":33,
			"componentType":5126,
			"count":500,
			"type":"VEC2"
		},
		{
			"bufferView":34,
			"componentType":5123,
			"count":3072,
			"type":"SCALAR"
		},
		{
			"bufferView":35,
			"componentType":5126,
			"count":50,
			"max":[
				8.946954727172852,
				8.946952819824219,
				8.349395751953125
			],
			"min":[
				-8.946953773498535,
				-8.94696044921875,
				-8.924911499023438
			],
			"type":"VEC3"
		},
		{
			"bufferView":36,
			"componentType":5126,
			"count":50,
			"type":"VEC3"
		},
		{
			"bufferView":37,
			"componentType":5126,
			"count":50,
			"type":"VEC2"
		},
		{
			"bufferView":38,
			"componentType":5123,
			"count":288,
			"type":"SCALAR"
		},
		{
			"bufferView":39,
			"componentType":5126,
			"count":50,
			"max":[
				8.946954727172852,
				8.946952819824219,
				8.349449157714844
			],
			"min":[
				-8.946953773498535,
				-8.946962356567383,
				-8.924850463867188
			],
			"type":"VEC3"
		},
		{
			"bufferView":40,
			"componentType":5126,
			"count":50,
			"type":"VEC3"
		},
		{
			"bufferView":41,
			"componentType":5126,
			"count":50,
			"type":"VEC2"
		},
		{
			"bufferView":42,
			"componentType":5126,
			"count":388,
			"max":[
				62.092491149902344,
				39.52741622924805,
				51.57415771484375
			],
			"min":[
				-62.092491149902344,
				-70.83607482910156,
				-74.58251953125
			],
			"type":"VEC3"
		},
		{
			"bufferView":43,
			"componentType":5126,
			"count":388,
			"type":"VEC3"
		},
		{
			"bufferView":44,
			"componentType":5126,
			"count":388,
			"type":"VEC2"
		},
		{
			"bufferView":45,
			"componentType":5123,
			"count":2172,
			"type":"SCALAR"
		},
		{
			"bufferView":46,
			"componentType":5126,
			"count":90,
			"max":[
				11.598982810974121,
				11.598991394042969,
				16.15401840209961
			],
			"min":[
				-11.598997116088867,
				-11.598989486694336,
				-14.738252639770508
			],
			"type":"VEC3"
		},
		{
			"bufferView":47,
			"componentType":5126,
			"count":90,
			"type":"VEC3"
		},
		{
			"bufferView":48,
			"componentType":5126,
			"count":90,
			"type":"VEC2"
		},
		{
			"bufferView":49,
			"componentType":5123,
			"count":528,
			"type":"SCALAR"
		},
		{
			"bufferView":50,
			"componentType":5126,
			"count":26,
			"max":[
				7.201679229736328,
				3.86735200881958,
				6.326362609863281
			],
			"min":[
				-7.201683044433594,
				-3.5124588012695312,
				-6.326362609863281
			],
			"type":"VEC3"
		},
		{
			"bufferView":51,
			"componentType":5126,
			"count":26,
			"type":"VEC3"
		},
		{
			"bufferView":52,
			"componentType":5126,
			"count":26,
			"type":"VEC2"
		},
		{
			"bufferView":53,
			"componentType":5123,
			"count":144,
			"type":"SCALAR"
		},
		{
			"bufferView":54,
			"componentType":5126,
			"count":148,
			"max":[
				15.41949462890625,
				20.621654510498047,
				5.4688873291015625
			],
			"min":[
				-16.595252990722656,
				-26.167034149169922,
				-6.095874786376953
			],
			"type":"VEC3"
		},
		{
			"bufferView":55,
			"componentType":5126,
			"count":148,
			"type":"VEC3"
		},
		{
			"bufferView":56,
			"componentType":5126,
			"count":148,
			"type":"VEC2"
		},
		{
			"bufferView":57,
			"componentType":5123,
			"count":612,
			"type":"SCALAR"
		},
		{
			"bufferView":58,
			"componentType":5126,
			"count":82,
			"max":[
				14.150949478149414,
				14.150970458984375,
				17.618846893310547
			],
			"min":[
				-14.150995254516602,
				-14.150972366333008,
				-18.149620056152344
			],
			"type":"VEC3"
		},
		{
			"bufferView":59,
			"componentType":5126,
			"count":82,
			"type":"VEC3"
		},
		{
			"bufferView":60,
			"componentType":5126,
			"count":82,
			"type":"VEC2"
		},
		{
			"bufferView":61,
			"componentType":5126,
			"count":66,
			"max":[
				25.308460235595703,
				14.150111198425293,
				18.935928344726562
			],
			"min":[
				-22.880054473876953,
				-14.159553527832031,
				-17.989700317382812
			],
			"type":"VEC3"
		},
		{
			"bufferView":62,
			"componentType":5126,
			"count":66,
			"type":"VEC3"
		},
		{
			"bufferView":63,
			"componentType":5126,
			"count":66,
			"type":"VEC2"
		},
		{
			"bufferView":64,
			"componentType":5123,
			"count":384,
			"type":"SCALAR"
		},
		{
			"bufferView":65,
			"componentType":5126,
			"count":172,
			"max":[
				42.21321105957031,
				30.82170867919922,
				18.83782196044922
			],
			"min":[
				-42.21321105957031,
				-31.940628051757812,
				-15.407394409179688
			],
			"type":"VEC3"
		},
		{
			"bufferView":66,
			"componentType":5126,
			"count":172,
			"type":"VEC3"
		},
		{
			"bufferView":67,
			"componentType":5126,
			"count":172,
			"type":"VEC2"
		},
		{
			"bufferView":68,
			"componentType":5123,
			"count":1032,
			"type":"SCALAR"
		},
		{
			"bufferView":69,
			"componentType":5126,
			"count":66,
			"max":[
				22.880054473876953,
				14.150111198425293,
				18.935928344726562
			],
			"min":[
				-25.308460235595703,
				-14.159553527832031,
				-17.989700317382812
			],
			"type":"VEC3"
		},
		{
			"bufferView":70,
			"componentType":5126,
			"count":66,
			"type":"VEC3"
		},
		{
			"bufferView":71,
			"componentType":5126,
			"count":66,
			"type":"VEC2"
		},
		{
			"bufferView":72,
			"componentType":5123,
			"count":384,
			"type":"SCALAR"
		},
		{
			"bufferView":73,
			"componentType":5126,
			"count":42,
			"max":[
				3.7806358337402344,
				10.656768798828125,
				5.589733123779297
			],
			"min":[
				-3.7806129455566406,
				-10.656758308410645,
				-5.533237457275391
			],
			"type":"VEC3"
		},
		{
			"bufferView":74,
			"componentType":5126,
			"count":42,
			"type":"VEC3"
		},
		{
			"bufferView":75,
			"componentType":5126,
			"count":42,
			"type":"VEC2"
		},
		{
			"bufferView":76,
			"componentType":5123,
			"count":240,
			"type":"SCALAR"
		},
		{
			"bufferView":77,
			"componentType":5126,
			"count":42,
			"max":[
				7.4598846435546875,
				13.895163536071777,
				7.634876251220703
			],
			"min":[
				-7.459873199462891,
				-12.968255996704102,
				-10.253677368164062
			],
			"type":"VEC3"
		},
		{
			"bufferView":78,
			"componentType":5126,
			"count":42,
			"type":"VEC3"
		},
		{
			"bufferView":79,
			"componentType":5126,
			"count":42,
			"type":"VEC2"
		},
		{
			"bufferView":80,
			"componentType":5123,
			"count":240,
			"type":"SCALAR"
		},
		{
			"bufferView":81,
			"componentType":5126,
			"count":50,
			"max":[
				3.397808074951172,
				3.397799491882324,
				3.543304443359375
			],
			"min":[
				-3.397796630859375,
				-3.3978018760681152,
				-3.6909828186035156
			],
			"type":"VEC3"
		},
		{
			"bufferView":82,
			"componentType":5126,
			"count":50,
			"type":"VEC3"
		},
		{
			"bufferView":83,
			"componentType":5126,
			"count":50,
			"type":"VEC2"
		},
		{
			"bufferView":84,
			"componentType":5123,
			"count":288,
			"type":"SCALAR"
		},
		{
			"bufferView":85,
			"componentType":5126,
			"count":82,
			"max":[
				6.806148529052734,
				6.5158281326293945,
				21.158416748046875
			],
			"min":[
				-6.806163787841797,
				-7.538244247436523,
				-22.124305725097656
			],
			"type":"VEC3"
		},
		{
			"bufferView":86,
			"componentType":5126,
			"count":82,
			"type":"VEC3"
		},
		{
			"bufferView":87,
			"componentType":5126,
			"count":82,
			"type":"VEC2"
		},
		{
			"bufferView":88,
			"componentType":5123,
			"count":480,
			"type":"SCALAR"
		},
		{
			"bufferView":89,
			"componentType":5126,
			"count":42,
			"max":[
				3.153636932373047,
				8.831698417663574,
				4.737876892089844
			],
			"min":[
				-3.1536331176757812,
				-8.831686973571777,
				-5.358600616455078
			],
			"type":"VEC3"
		},
		{
			"bufferView":90,
			"componentType":5126,
			"count":42,
			"type":"VEC3"
		},
		{
			"bufferView":91,
			"componentType":5126,
			"count":42,
			"type":"VEC2"
		},
		{
			"bufferView":92,
			"componentType":5123,
			"count":240,
			"type":"SCALAR"
		},
		{
			"bufferView":93,
			"componentType":5126,
			"count":50,
			"max":[
				4.073329925537109,
				4.0733418464660645,
				4.247753143310547
			],
			"min":[
				-4.073333740234375,
				-4.073339462280273,
				-4.4248046875
			],
			"type":"VEC3"
		},
		{
			"bufferView":94,
			"componentType":5126,
			"count":50,
			"type":"VEC3"
		},
		{
			"bufferView":95,
			"componentType":5126,
			"count":50,
			"type":"VEC2"
		},
		{
			"bufferView":96,
			"componentType":5126,
			"count":82,
			"max":[
				5.119380950927734,
				5.38287878036499,
				20.268218994140625
			],
			"min":[
				-5.119403839111328,
				-4.8548383712768555,
				-21.174362182617188
			],
			"type":"VEC3"
		},
		{
			"bufferView":97,
			"componentType":5126,
			"count":82,
			"type":"VEC3"
		},
		{
			"bufferView":98,
			"componentType":5126,
			"count":82,
			"type":"VEC2"
		},
		{
			"bufferView":99,
			"componentType":5126,
			"count":98,
			"max":[
				10.162345886230469,
				10.162333488464355,
				22.400413513183594
			],
			"min":[
				-10.162322998046875,
				-10.16232681274414,
				-26.574920654296875
			],
			"type":"VEC3"
		},
		{
			"bufferView":100,
			"componentType":5126,
			"count":98,
			"type":"VEC3"
		},
		{
			"bufferView":101,
			"componentType":5126,
			"count":98,
			"type":"VEC2"
		},
		{
			"bufferView":102,
			"componentType":5123,
			"count":576,
			"type":"SCALAR"
		},
		{
			"bufferView":103,
			"componentType":5126,
			"count":148,
			"max":[
				16.595252990722656,
				20.621654510498047,
				5.4688873291015625
			],
			"min":[
				-15.41949462890625,
				-26.167034149169922,
				-6.095874786376953
			],
			"type":"VEC3"
		},
		{
			"bufferView":104,
			"componentType":5126,
			"count":148,
			"type":"VEC3"
		},
		{
			"bufferView":105,
			"componentType":5126,
			"count":148,
			"type":"VEC2"
		},
		{
			"bufferView":106,
			"componentType":5123,
			"count":612,
			"type":"SCALAR"
		},
		{
			"bufferView":107,
			"componentType":5126,
			"count":26,
			"max":[
				7.201683044433594,
				3.86735200881958,
				6.326362609863281
			],
			"min":[
				-7.201679229736328,
				-3.5124588012695312,
				-6.326362609863281
			],
			"type":"VEC3"
		},
		{
			"bufferView":108,
			"componentType":5126,
			"count":26,
			"type":"VEC3"
		},
		{
			"bufferView":109,
			"componentType":5126,
			"count":26,
			"type":"VEC2"
		},
		{
			"bufferView":110,
			"componentType":5123,
			"count":144,
			"type":"SCALAR"
		},
		{
			"bufferView":111,
			"componentType":5126,
			"count":90,
			"max":[
				11.598997116088867,
				11.598991394042969,
				16.15401840209961
			],
			"min":[
				-11.598982810974121,
				-11.598989486694336,
				-14.738252639770508
			],
			"type":"VEC3"
		},
		{
			"bufferView":112,
			"componentType":5126,
			"count":90,
			"type":"VEC3"
		},
		{
			"bufferView":113,
			"componentType":5126,
			"count":90,
			"type":"VEC2"
		},
		{
			"bufferView":114,
			"componentType":5123,
			"count":528,
			"type":"SCALAR"
		},
		{
			"bufferView":115,
			"componentType":5126,
			"count":82,
			"max":[
				14.150995254516602,
				14.150970458984375,
				17.618846893310547
			],
			"min":[
				-14.150949478149414,
				-14.150972366333008,
				-18.149620056152344
			],
			"type":"VEC3"
		},
		{
			"bufferView":116,
			"componentType":5126,
			"count":82,
			"type":"VEC3"
		},
		{
			"bufferView":117,
			"componentType":5126,
			"count":82,
			"type":"VEC2"
		}
	],
	"bufferViews":[
		{
			"buffer":0,
			"byteLength":600,
			"byteOffset":0,
			"target":34962
		},
		{
			"buffer":0,
			"byteLength":600,
			"byteOffset":600,
			"target":34962
		},
		{
			"buffer":0,
			"byteLength":400,
			"byteOffset":1200,
			"target":34962
		},
		{
			"buffer":0,
			"byteLength":576,
			"byteOffset":1600,
			"target":34963
		},
		{
			"buffer":0,
			"byteLength":600,
			"byteOffset":2176,
			"target":34962
		},
		{
			"buffer":0,
			"byteLength":600,
			"byteOffset":2776,
			"target":34962
		},
		{
			"buffer":0,
			"byteLength":400,
			"byteOffset":3376,
			"target":34962
		},
		{
			"buffer":0,
			"byteLength":576,
			"byteOffset":3776,
			"target":34963
		},
		{
			"buffer":0,
			"byteLength":984,
			"byteOffset":4352,
			"target":34962
		},
		{
			"buffer":0,
			"byteLength":984,
			"byteOffset":5336,
			"target":34962
		},
		{
			"buffer":0,
			"byteLength":656,
			"byteOffset":6320,
			"target":34962
		},
		{
			"buffer":0,
			"byteLength":960,
			"byteOffset":6976,
			"target":34963
		},
		{
			"buffer":0,
			"byteLength":984,
			"byteOffset":7936,
			"target":34962
		},
		{
			"buffer":0,
			"byteLength":984,
			"byteOffset":8920,
			"target":34962
		},
		{
			"buffer":0,
			"byteLength":656,
			"byteOffset":9904,
			"target":34962
		},
		{
			"buffer":0,
			"byteLength":504,
			"byteOffset":10560,
			"target":34962
		},
		{
			"buffer":0,
			"byteLength":504,
			"byteOffset":11064,
			"target":34962
		},
		{
			"buffer":0,
			"byteLength":336,
			"byteOffset":11568,
			"target":34962
		},
		{
			"buffer":0,
			"byteLength":480,
			"byteOffset":11904,
			"target":34963
		},
		{
			"buffer":0,
			"byteLength":504,
			"byteOffset":12384,
			"target":34962
		},
		{
			"buffer":0,
			"byteLength":504,
			"byteOffset":12888,
			"target":34962
		},
		{
			"buffer":0,
			"byteLength":336,
			"byteOffset":13392,
			"target":34962
		},
		{
			"buffer":0,
			"byteLength":480,
			"byteOffset":13728,
			"target":34963
		},
		{
			"buffer":0,
			"byteLength":504,
			"byteOffset":14208,
			"target":34962
		},
		{
			"buffer":0,
			"byteLength":504,
			"byteOffset":14712,
			"target":34962
		},
		{
			"buffer":0,
			"byteLength":336,
			"byteOffset":15216,
			"target":34962
		},
		{
			"buffer":0,
			"byteLength":480,
			"byteOffset":15552,
			"target":34963
		},
		{
			"buffer":0,
			"byteLength":1176,
			"byteOffset":16032,
			"target":34962
		},
		{
			"buffer":0,
			"byteLength":1176,
			"byteOffset":17208,
			"target":34962
		},
		{
			"buffer":0,
			"byteLength":784,
			"byteOffset":18384,
			"target":34962
		},
		{
			"buffer":0,
			"byteLength":1152,
			"byteOffset":19168,
			"target":34963
		},
		{
			"buffer":0,
			"byteLength":6000,
			"byteOffset":20320,
			"target":34962
		},
		{
			"buffer":0,
			"byteLength":6000,
			"byteOffset":26320,
			"target":34962
		},
		{
			"buffer":0,
			"byteLength":4000,
			"byteOffset":32320,
			"target":34962
		},
		{
			"buffer":0,
			"byteLength":6144,
			"byteOffset":36320,
			"target":34963
		},
		{
			"buffer":0,
			"byteLength":600,
			"byteOffset":42464,
			"target":34962
		},
		{
			"buffer":0,
			"byteLength":600,
			"byteOffset":43064,
			"target":34962
		},
		{
			"buffer":0,
			"byteLength":400,
			"byteOffset":43664,
			"target":34962
		},
		{
			"buffer":0,
			"byteLength":576,
			"byteOffset":44064,
			"target":34963
		},
		{
			"buffer":0,
			"byteLength":600,
			"byteOffset":44640,
			"target":34962
		},
		{
			"buffer":0,
			"byteLength":600,
			"byteOffset":45240,
			"target":34962
		},
		{
			"buffer":0,
			"byteLength":400,
			"byteOffset":45840,
			"target":34962
		},
		{
			"buffer":0,
			"byteLength":4656,
			"byteOffset":46240,
			"target":34962
		},
		{
			"buffer":0,
			"byteLength":4656,
			"byteOffset":50896,
			"target":34962
		},
		{
			"buffer":0,
			"byteLength":3104,
			"byteOffset":55552,
			"target":34962
		},
		{
			"buffer":0,
			"byteLength":4344,
			"byteOffset":58656,
			"target":34963
		},
		{
			"buffer":0,
			"byteLength":1080,
			"byteOffset":63000,
			"target":34962
		},
		{
			"buffer":0,
			"byteLength":1080,
			"byteOffset":64080,
			"target":34962
		},
		{
			"buffer":0,
			"byteLength":720,
			"byteOffset":65160,
			"target":34962
		},
		{
			"buffer":0,
			"byteLength":1056,
			"byteOffset":65880,
			"target":34963
		},
		{
			"buffer":0,
			"byteLength":312,
			"byteOffset":66936,
			"target":34962
		},
		{
			"buffer":0,
			"byteLength":312,
			"byteOffset":67248,
			"target":34962
		},
		{
			"buffer":0,
			"byteLength":208,
			"byteOffset":67560,
			"target":34962
		},
		{
			"buffer":0,
			"byteLength":288,
			"byteOffset":67768,
			"target":34963
		},
		{
			"buffer":0,
			"byteLength":1776,
			"byteOffset":68056,
			"target":34962
		},
		{
			"buffer":0,
			"byteLength":1776,
			"byteOffset":69832,
			"target":34962
		},
		{
			"buffer":0,
			"byteLength":1184,
			"byteOffset":71608,
			"target":34962
		},
		{
			"buffer":0,
			"byteLength":1224,
			"byteOffset":72792,
			"target":34963
		},
		{
			"buffer":0,
			"byteLength":984,
			"byteOffset":74016,
			"target":34962
		},
		{
			"buffer":0,
			"byteLength":984,
			"byteOffset":75000,
			"target":34962
		},
		{
			"buffer":0,
			"byteLength":656,
			"byteOffset":75984,
			"target":34962
		},
		{
			"buffer":0,
			"byteLength":792,
			"byteOffset":76640,
			"target":34962
		},
		{
			"buffer":0,
			"byteLength":792,
			"byteOffset":77432,
			"target":34962
		},
		{
			"buffer":0,
			"byteLength":528,
			"byteOffset":78224,
			"target":34962
		},
		{
			"buffer":0,
			"byteLength":768,
			"byteOffset":78752,
			"target":34963
		},
		{
			"buffer":0,
			"byteLength":2064,
			"byteOffset":79520,
			"target":34962
		},
		{
			"buffer":0,
			"byteLength":2064,
			"byteOffset":81584,
			"target":34962
		},
		{
			"buffer":0,
			"byteLength":1376,
			"byteOffset":83648,
			"target":34962
		},
		{
			"buffer":0,
			"byteLength":2064,
			"byteOffset":85024,
			"target":34963
		},
		{
			"buffer":0,
			"byteLength":792,
			"byteOffset":87088,
			"target":34962
		},
		{
			"buffer":0,
			"byteLength":792,
			"byteOffset":87880,
			"target":34962
		},
		{
			"buffer":0,
			"byteLength":528,
			"byteOffset":88672,
			"target":34962
		},
		{
			"buffer":0,
			"byteLength":768,
			"byteOffset":89200,
			"target":34963
		},
		{
			"buffer":0,
			"byteLength":504,
			"byteOffset":89968,
			"target":34962
		},
		{
			"buffer":0,
			"byteLength":504,
			"byteOffset":90472,
			"target":34962
		},
		{
			"buffer":0,
			"byteLength":336,
			"byteOffset":90976,
			"target":34962
		},
		{
			"buffer":0,
			"byteLength":480,
			"byteOffset":91312,
			"target":34963
		},
		{
			"buffer":0,
			"byteLength":504,
			"byteOffset":91792,
			"target":34962
		},
		{
			"buffer":0,
			"byteLength":504,
			"byteOffset":92296,
			"target":34962
		},
		{
			"buffer":0,
			"byteLength":336,
			"byteOffset":92800,
			"target":34962
		},
		{
			"buffer":0,
			"byteLength":480,
			"byteOffset":93136,
			"target":34963
		},
		{
			"buffer":0,
			"byteLength":600,
			"byteOffset":93616,
			"target":34962
		},
		{
			"buffer":0,
			"byteLength":600,
			"byteOffset":94216,
			"target":34962
		},
		{
			"buffer":0,
			"byteLength":400,
			"byteOffset":94816,
			"target":34962
		},
		{
			"buffer":0,
			"byteLength":576,
			"byteOffset":95216,
			"target":34963
		},
		{
			"buffer":0,
			"byteLength":984,
			"byteOffset":95792,
			"target":34962
		},
		{
			"buffer":0,
			"byteLength":984,
			"byteOffset":96776,
			"target":34962
		},
		{
			"buffer":0,
			"byteLength":656,
			"byteOffset":97760,
			"target":34962
		},
		{
			"buffer":0,
			"byteLength":960,
			"byteOffset":98416,
			"target":34963
		},
		{
			"buffer":0,
			"byteLength":504,
			"byteOffset":99376,
			"target":34962
		},
		{
			"buffer":0,
			"byteLength":504,
			"byteOffset":99880,
			"target":34962
		},
		{
			"buffer":0,
			"byteLength":336,
			"byteOffset":100384,
			"target":34962
		},
		{
			"buffer":0,
			"byteLength":480,
			"byteOffset":100720,
			"target":34963
		},
		{
			"buffer":0,
			"byteLength":600,
			"byteOffset":101200,
			"target":34962
		},
		{
			"buffer":0,
			"byteLength":600,
			"byteOffset":101800,
			"target":34962
		},
		{
			"buffer":0,
			"byteLength":400,
			"byteOffset":102400,
			"target":34962
		},
		{
			"buffer":0,
			"byteLength":984,
			"byteOffset":102800,
			"target":34962
		},
		{
			"buffer":0,
			"byteLength":984,
			"byteOffset":103784,
			"target":34962
		},
		{
			"buffer":0,
			"byteLength":656,
			"byteOffset":104768,
			"target":34962
		},
		{
			"buffer":0,
			"byteLength":1176,
			"byteOffset":105424,
			"target":34962
		},
		{
			"buffer":0,
			"byteLength":1176,
			"byteOffset":106600,
			"target":34962
		},
		{
			"buffer":0,
			"byteLength":784,
			"byteOffset":107776,
			"target":34962
		},
		{
			"buffer":0,
			"byteLength":1152,
			"byteOffset":108560,
			"target":34963
		},
		{
			"buffer":0,
			"byteLength":1776,
			"byteOffset":109712,
			"target":34962
		},
		{
			"buffer":0,
			"byteLength":1776,
			"byteOffset":111488,
			"target":34962
		},
		{
			"buffer":0,
			"byteLength":1184,
			"byteOffset":113264,
			"target":34962
		},
		{
			"buffer":0,
			"byteLength":1224,
			"byteOffset":114448,
			"target":34963
		},
		{
			"buffer":0,
			"byteLength":312,
			"byteOffset":115672,
			"target":34962
		},
		{
			"buffer":0,
			"byteLength":312,
			"byteOffset":115984,
			"target":34962
		},
		{
			"buffer":0,
			"byteLength":208,
			"byteOffset":116296,
			"target":34962
		},
		{
			"buffer":0,
			"byteLength":288,
			"byteOffset":116504,
			"target":34963
		},
		{
			"buffer":0,
			"byteLength":1080,
			"byteOffset":116792,
			"target":34962
		},
		{
			"buffer":0,
			"byteLength":1080,
			"byteOffset":117872,
			"target":34962
		},
		{
			"buffer":0,
			"byteLength":720,
			"byteOffset":118952,
			"target":34962
		},
		{
			"buffer":0,
			"byteLength":1056,
			"byteOffset":119672,
			"target":34963
		},
		{
			"buffer":0,
			"byteLength":984,
			"byteOffset":120728,
			"target":34962
		},
		{
			"buffer":0,
			"byteLength":984,
			"byteOffset":121712,
			"target":34962
		},
		{
			"buffer":0,
			"byteLength":656,
			"byteOffset":122696,
			"target":34962
		}
	],
	"buffers":[
		{
			"byteLength":123352,
			"uri":"skeleton.bin"
		}
	]
}
