{
	"asset":{
		"copyright":"Equipo Camino de Cempas\u00fachil - FI UNAM",
		"generator":"Khronos glTF Blender I/O v5.2.40",
		"version":"2.0"
	},
	"scene":0,
	"scenes":[
		{
			"name":"Scene",
			"nodes":[
				1
			]
		}
	],
	"nodes":[
		{
			"mesh":0,
			"name":"agua"
		},
		{
			"children":[
				0
			],
			"mesh":1,
			"name":"vaso_agua"
		}
	],
	"materials":[
		{
			"alphaMode":"BLEND",
			"name":"agua",
			"pbrMetallicRoughness":{
				"baseColorFactor":[
					0.21223075687885284,
					0.47353148460388184,
					0.7912979125976562,
					0.44999998807907104
				],
				"metallicFactor":0,
				"roughnessFactor":0.019999999552965164
			}
		},
		{
			"alphaMode":"BLEND",
			"name":"vidrio",
			"pbrMetallicRoughness":{
				"baseColorFactor":[
					0.7912979125976562,
					0.8879231214523315,
					1,
					0.2800000011920929
				],
				"metallicFactor":0,
				"roughnessFactor":0.05000000074505806
			}
		}
	],
	"meshes":[
		{
			"name":"agua",
			"primitives":[
				{
					"attributes":{
						"POSITION":0,
						"NORMAL":1,
						"TEXCOORD_0":2
					},
					"indices":3,
					"material":0
				}
			]
		},
		{
			"name":"vaso_agua",
			"primitives":[
				{
					"attributes":{
						"POSITION":4,
						"NORMAL":5,
						"TEXCOORD_0":6
					},
					"indices":7,
					"material":1
				}
			]
		}
	],
	"accessors":[
		{
			"bufferView":0,
			"componentType":5126,
			"count":50,
			"max":[
				0.029298076406121254,
				0.08500000089406967,
				0.029298076406121254
			],
			"min":[
				-0.029298076406121254,
				0.007000000216066837,
				-0.029298076406121254
			],
			"type":"VEC3"
		},
		{
			"bufferView":1,
			"componentType":5126,
			"count":50,
			"type":"VEC3"
		},
		{
			"bufferView":2,
			"componentType":5126,
			"count":50,
			"type":"VEC2"
		},
		{
			"bufferView":3,
			"componentType":5123,
			"count":144,
			"type":"SCALAR"
		},
		{
			"bufferView":4,
			"componentType":5126,
			"count":76,
			"max":[
				0.03400000184774399,
				0.10999999940395355,
				0.03400000184774399
			],
			"min":[
				-0.03400000184774399,
				0,
				-0.03400000184774399
			],
			"type":"VEC3"
		},
		{
			"bufferView":5,
			"componentType":5126,
			"count":76,
			"type":"VEC3"
		},
		{
			"bufferView":6,
			"componentType":5126,
			"count":76,
			"type":"VEC2"
		},
		{
			"bufferView":7,
			"componentType":5123,
			"count":288,
			"type":"SCALAR"
		}
	],
	"bufferViews":[
		{
			"buffer":0,
			"byteLength":600,
			"byteOffset":0,
			"target":34962
		},
		{
			"buffer":0,
			"byteLength":600,
			"byteOffset":600,
			"target":34962
		},
		{
			"buffer":0,
			"byteLength":400,
			"byteOffset":1200,
			"target":34962
		},
		{
			"buffer":0,
			"byteLength":288,
			"byteOffset":1600,
			"target":34963
		},
		{
			"buffer":0,
			"byteLength":912,
			"byteOffset":1888,
			"target":34962
		},
		{
			"buffer":0,
			"byteLength":912,
			"byteOffset":2800,
			"target":34962
		},
		{
			"buffer":0,
			"byteLength":608,
			"byteOffset":3712,
			"target":34962
		},
		{
			"buffer":0,
			"byteLength":576,
			"byteOffset":4320,
			"target":34963
		}
	],
	"buffers":[
		{
			"byteLength":4896,
			"uri":"vaso_agua.bin"
		}
	]
}
