{
	"asset":{
		"copyright":"Equipo Camino de Cempas\u00fachil - FI UNAM",
		"generator":"Khronos glTF Blender I/O v5.2.40",
		"version":"2.0"
	},
	"extensionsUsed":[
		"KHR_materials_emissive_strength"
	],
	"scene":0,
	"scenes":[
		{
			"name":"Scene",
			"nodes":[
				2
			]
		}
	],
	"nodes":[
		{
			"mesh":0,
			"name":"cera"
		},
		{
			"mesh":1,
			"name":"llama",
			"translation":[
				0,
				0.12800000607967377,
				0
			]
		},
		{
			"children":[
				0,
				1
			],
			"mesh":2,
			"name":"veladora"
		}
	],
	"materials":[
		{
			"name":"cera",
			"pbrMetallicRoughness":{
				"baseColorFactor":[
					0.8962693810462952,
					0.8227857351303101,
					0.6514056324958801,
					1
				],
				"metallicFactor":0,
				"roughnessFactor":0.6000000238418579
			}
		},
		{
			"name":"mecha",
			"pbrMetallicRoughness":{
				"baseColorFactor":[
					0.024157632142305374,
					0.015208514407277107,
					0.009134058840572834,
					1
				],
				"metallicFactor":0,
				"roughnessFactor":0.8999999761581421
			}
		},
		{
			"emissiveFactor":[
				1,
				0.4507857859134674,
				0.06301001459360123
			],
			"extensions":{
				"KHR_materials_emissive_strength":{
					"emissiveStrength":4
				}
			},
			"name":"llama",
			"pbrMetallicRoughness":{
				"baseColorFactor":[
					1,
					0.5520114302635193,
					0.14702726900577545,
					1
				],
				"metallicFactor":0,
				"roughnessFactor":0.800000011920929
			}
		},
		{
			"name":"veladora_vidrio",
			"pbrMetallicRoughness":{
				"baseColorTexture":{
					"index":0
				},
				"metallicFactor":0,
				"roughnessFactor":0.25
			}
		},
		{
			"name":"veladora_interior",
			"pbrMetallicRoughness":{
				"baseColorFactor":[
					0.10224173218011856,
					0.0030352699104696512,
					0.012983032502233982,
					1
				],
				"metallicFactor":0,
				"roughnessFactor":0.30000001192092896
			}
		}
	],
	"meshes":[
		{
			"name":"cera",
			"primitives":[
				{
					"attributes":{
						"POSITION":0,
						"NORMAL":1,
						"TEXCOORD_0":2
					},
					"indices":3,
					"material":0
				},
				{
					"attributes":{
						"POSITION":4,
						"NORMAL":5,
						"TEXCOORD_0":6
					},
					"indices":7,
					"material":1
				}
			]
		},
		{
			"name":"llama",
			"primitives":[
				{
					"attributes":{
						"POSITION":8,
						"NORMAL":9,
						"TEXCOORD_0":10
					},
					"indices":11,
					"material":2
				}
			]
		},
		{
			"name":"veladora",
			"primitives":[
				{
					"attributes":{
						"POSITION":12,
						"NORMAL":13,
						"TEXCOORD_0":14
					},
					"indices":15,
					"material":3
				},
				{
					"attributes":{
						"POSITION":16,
						"NORMAL":17,
						"TEXCOORD_0":18
					},
					"indices":19,
					"material":4
				}
			]
		}
	],
	"textures":[
		{
			"sampler":0,
			"source":0
		}
	],
	"images":[
		{
			"mimeType":"image/png",
			"name":"veladora.png",
			"uri":"../../textures/veladora.png"
		}
	],
	"accessors":[
		{
			"bufferView":0,
			"componentType":5126,
			"count":38,
			"max":[
				0.029999999329447746,
				0.12200000137090683,
				0.029999999329447746
			],
			"min":[
				-0.029999999329447746,
				0.11900000274181366,
				-0.029999999329447746
			],
			"type":"VEC3"
		},
		{
			"bufferView":1,
			"componentType":5126,
			"count":38,
			"type":"VEC3"
		},
		{
			"bufferView":2,
			"componentType":5126,
			"count":38,
			"type":"VEC2"
		},
		{
			"bufferView":3,
			"componentType":5123,
			"count":108,
			"type":"SCALAR"
		},
		{
			"bufferView":4,
			"componentType":5126,
			"count":20,
			"max":[
				0.0012000000569969416,
				0.12999999523162842,
				0.0012000000569969416
			],
			"min":[
				-0.0012000000569969416,
				0.11900000274181366,
				-0.0012000000569969416
			],
			"type":"VEC3"
		},
		{
			"bufferView":5,
			"componentType":5126,
			"count":20,
			"type":"VEC3"
		},
		{
			"bufferView":6,
			"componentType":5126,
			"count":20,
			"type":"VEC2"
		},
		{
			"bufferView":7,
			"componentType":5123,
			"count":30,
			"type":"SCALAR"
		},
		{
			"bufferView":8,
			"componentType":5126,
			"count":40,
			"max":[
				0.006495190318673849,
				0.029999999329447746,
				0.007499999832361937
			],
			"min":[
				-0.006495190318673849,
				0,
				-0.007499999832361937
			],
			"type":"VEC3"
		},
		{
			"bufferView":9,
			"componentType":5126,
			"count":40,
			"type":"VEC3"
		},
		{
			"bufferView":10,
			"componentType":5126,
			"count":40,
			"type":"VEC2"
		},
		{
			"bufferView":11,
			"componentType":5123,
			"count":144,
			"type":"SCALAR"
		},
		{
			"bufferView":12,
			"componentType":5126,
			"count":51,
			"max":[
				0.032999999821186066,
				0.14000000059604645,
				0.032999999821186066
			],
			"min":[
				-0.032999999821186066,
				0,
				-0.032999999821186066
			],
			"type":"VEC3"
		},
		{
			"bufferView":13,
			"componentType":5126,
			"count":51,
			"type":"VEC3"
		},
		{
			"bufferView":14,
			"componentType":5126,
			"count":51,
			"type":"VEC2"
		},
		{
			"bufferView":15,
			"componentType":5123,
			"count":180,
			"type":"SCALAR"
		},
		{
			"bufferView":16,
			"componentType":5126,
			"count":39,
			"max":[
				0.032999999821186066,
				0.14000000059604645,
				0.032999999821186066
			],
			"min":[
				-0.032999999821186066,
				0.12200000137090683,
				-0.032999999821186066
			],
			"type":"VEC3"
		},
		{
			"bufferView":17,
			"componentType":5126,
			"count":39,
			"type":"VEC3"
		},
		{
			"bufferView":18,
			"componentType":5126,
			"count":39,
			"type":"VEC2"
		},
		{
			"bufferView":19,
			"componentType":5123,
			"count":144,
			"type":"SCALAR"
		}
	],
	"bufferViews":[
		{
			"buffer":0,
			"byteLength":456,
			"byteOffset":0,
			"target":34962
		},
		{
			"buffer":0,
			"byteLength":456,
			"byteOffset":456,
			"target":34962
		},
		{
			"buffer":0,
			"byteLength":304,
			"byteOffset":912,
			"target":34962
		},
		{
			"buffer":0,
			"byteLength":216,
			"byteOffset":1216,
			"target":34963
		},
		{
			"buffer":0,
			"byteLength":240,
			"byteOffset":1432,
			"target":34962
		},
		{
			"buffer":0,
			"byteLength":240,
			"byteOffset":1672,
			"target":34962
		},
		{
			"buffer":0,
			"byteLength":160,
			"byteOffset":1912,
			"target":34962
		},
		{
			"buffer":0,
			"byteLength":60,
			"byteOffset":2072,
			"target":34963
		},
		{
			"buffer":0,
			"byteLength":480,
			"byteOffset":2132,
			"target":34962
		},
		{
			"buffer":0,
			"byteLength":480,
			"byteOffset":2612,
			"target":34962
		},
		{
			"buffer":0,
			"byteLength":320,
			"byteOffset":3092,
			"target":34962
		},
		{
			"buffer":0,
			"byteLength":288,
			"byteOffset":3412,
			"target":34963
		},
		{
			"buffer":0,
			"byteLength":612,
			"byteOffset":3700,
			"target":34962
		},
		{
			"buffer":0,
			"byteLength":612,
			"byteOffset":4312,
			"target":34962
		},
		{
			"buffer":0,
			"byteLength":408,
			"byteOffset":4924,
			"target":34962
		},
		{
			"buffer":0,
			"byteLength":360,
			"byteOffset":5332,
			"target":34963
		},
		{
			"buffer":0,
			"byteLength":468,
			"byteOffset":5692,
			"target":34962
		},
		{
			"buffer":0,
			"byteLength":468,
			"byteOffset":6160,
			"target":34962
		},
		{
			"buffer":0,
			"byteLength":312,
			"byteOffset":6628,
			"target":34962
		},
		{
			"buffer":0,
			"byteLength":288,
			"byteOffset":6940,
			"target":34963
		}
	],
	"samplers":[
		{
			"magFilter":9729,
			"minFilter":9987
		}
	],
	"buffers":[
		{
			"byteLength":7228,
			"uri":"veladora.bin"
		}
	]
}
